<svg width="498" height="441" viewBox="0 0 498 441" fill="none" xmlns="http://www.w3.org/2000/svg">
<path d="M444.589 206.525L496.715 436.399" stroke="#2D3133" stroke-width="1.04251" stroke-linecap="round" stroke-linejoin="round"/>
<path d="M53.125 205.482L0.999337 437.962" stroke="#2D3133" stroke-width="1.04251" stroke-linecap="round" stroke-linejoin="round"/>
<path d="M216.539 293.835H80.4911" stroke="#2D3133" stroke-width="1.04251" stroke-linecap="round" stroke-linejoin="round"/>
<path d="M176.924 294.096L130.271 439.787" stroke="#2D3133" stroke-width="1.04251" stroke-linecap="round" stroke-linejoin="round"/>
<path d="M108.117 293.835L61.4647 439.787" stroke="#2D3133" stroke-width="1.04251" stroke-linecap="round" stroke-linejoin="round"/>
<path d="M130.532 293.835L176.924 439.527" stroke="#2D3133" stroke-width="1.04251" stroke-linecap="round" stroke-linejoin="round"/>
<path d="M199.338 293.835L207.418 318.074" stroke="#2D3133" stroke-width="1.04251" stroke-linecap="round" stroke-linejoin="round"/>
<path d="M74.2354 200.53L94.5645 293.835" stroke="#2D3133" stroke-width="1.04251" stroke-linecap="round" stroke-linejoin="round"/>
<path d="M473.258 205.482H23.674" stroke="#2D3133" stroke-width="1.04251" stroke-linecap="round" stroke-linejoin="round"/>
<path d="M196.471 64.2218L190.216 57.7061" stroke="#2D3133" stroke-width="1.04251" stroke-linecap="round" stroke-linejoin="round"/>
<path d="M196.731 24.0851C198.771 22.7871 200.412 23.5917 201.178 24.3356C201.336 24.4885 201.562 24.5613 201.77 24.4936L220.043 18.5671C220.375 18.4594 220.512 18.0655 220.309 17.781C217.567 13.9237 211.591 6.53135 206.635 3.75614C201.422 0.837107 195.428 0.802357 193.082 1.14986C189.434 1.84487 181.771 4.38165 180.312 8.96871C178.487 14.7025 186.567 24.0851 188.652 26.1702C190.29 27.8087 192.23 27.2341 193.04 26.7192C193.069 26.7008 193.094 26.6795 193.119 26.656C193.435 26.3566 194.532 25.4844 196.731 24.0851Z" fill="#9AC1BC" stroke="#9AC1BC" stroke-width="1.04251" stroke-linecap="round" stroke-linejoin="round"/>
<path d="M337.209 191.148C337.005 140.971 352.249 130.768 360.395 131.894C360.688 131.934 360.865 132.227 360.802 132.516C359.452 138.718 362.892 139.797 364.836 139.543H395.329C399.971 139.543 400.188 135.207 399.64 132.568C399.575 132.258 399.795 131.947 400.111 131.919C421.98 130.023 425.548 178.752 423.999 191.148C422.748 201.156 413.921 204.527 409.664 204.961H357.799C342.578 206.003 337.731 196.187 337.209 191.148Z" fill="#9AC1BC" stroke="#9AC1BC" stroke-width="1.04251" stroke-linecap="round" stroke-linejoin="round"/>
<path d="M288.684 436.71C286.448 413.741 299.871 399.072 307.195 394.368C307.379 394.25 307.609 394.267 307.784 394.4C318.857 402.893 341.699 404.573 352.072 404.348C352.236 404.344 352.385 404.417 352.488 404.545C355.634 408.414 360.791 411.572 363.011 412.682C367.876 414.506 378.962 419.354 384.383 424.15C391.835 432.43 387.573 436.257 384.45 437.162C384.405 437.175 384.359 437.181 384.312 437.181H333.827C333.659 437.181 333.497 437.093 333.399 436.959C322.28 421.748 316.844 430.234 315.404 436.763C315.35 437.007 315.137 437.181 314.888 437.181H289.201C288.935 437.181 288.71 436.975 288.684 436.71Z" fill="#2D3133" stroke="#2D3133" stroke-width="1.04251" stroke-linecap="round" stroke-linejoin="round"/>
<path d="M360.146 409.815C358.756 410.684 355.768 413.359 354.934 417.113" stroke="white" stroke-width="1.04251" stroke-linecap="round" stroke-linejoin="round"/>
<path d="M366.4 412.942C365.01 413.985 362.022 416.904 361.188 420.24" stroke="white" stroke-width="1.04251" stroke-linecap="round" stroke-linejoin="round"/>
<path d="M373.178 416.07C371.44 417.373 367.861 420.553 367.444 422.846" stroke="white" stroke-width="1.04251" stroke-linecap="round" stroke-linejoin="round"/>
<path d="M307.522 393.906L308.239 385.544C308.263 385.269 308.496 385.06 308.771 385.067L351.24 386.084C351.545 386.091 351.778 386.358 351.751 386.661C351.262 392.208 352.003 400.153 352.511 404.032C352.551 404.339 352.313 404.612 352.004 404.62C327.684 405.31 312.512 398.181 307.705 394.344C307.571 394.238 307.508 394.076 307.522 393.906Z" fill="#F2B1AA" stroke="#F2B1AA" stroke-width="1.04251" stroke-linecap="round" stroke-linejoin="round"/>
<path d="M171.131 436.463C168.275 413.647 181.432 399.015 188.656 394.341C188.817 394.237 189.019 394.238 189.186 394.333C209.172 405.657 227.749 405.642 234.945 404.159C235.165 404.113 235.382 404.212 235.502 404.402C238.009 408.394 241.776 411.054 243.384 411.9C249.101 414.239 261.916 420.204 267.572 425.406C267.606 425.437 267.636 425.475 267.661 425.515C273.026 434.222 269.354 436.747 266.841 436.92H216.012C215.851 436.92 215.695 436.839 215.595 436.713C203.483 421.3 198.599 429.855 197.578 436.469C197.538 436.727 197.317 436.92 197.056 436.92H171.646C171.385 436.92 171.163 436.722 171.131 436.463Z" fill="#2D3133" stroke="#2D3133" stroke-width="1.04251" stroke-linecap="round" stroke-linejoin="round"/>
<path d="M248.596 412.942C246.945 413.985 243.592 416.956 243.383 420.501" stroke="white" stroke-width="1.04251" stroke-linecap="round" stroke-linejoin="round"/>
<path d="M254.852 416.07C253.375 417.373 250.265 420.553 249.639 422.846" stroke="white" stroke-width="1.04251" stroke-linecap="round" stroke-linejoin="round"/>
<path d="M242.342 410.075C240.604 411.118 237.129 414.089 237.129 417.633" stroke="white" stroke-width="1.04251" stroke-linecap="round" stroke-linejoin="round"/>
<path d="M94.5658 266.47C82.7927 246.435 88.1214 218.096 92.3607 206.08C92.434 205.872 92.6175 205.744 92.8379 205.744C146.915 205.918 256.434 206.264 264.756 206.264C273.018 206.264 281.451 208.822 284.733 210.137C284.796 210.162 284.858 210.174 284.925 210.174C293.25 210.212 303.781 214.875 308.02 217.211C336.585 232.432 346.854 273.072 348.418 291.49L361.394 382.582C361.427 382.812 361.305 383.036 361.092 383.129C342.696 391.194 315.867 387.531 304.395 384.607C304.214 384.561 304.081 384.423 304.031 384.243L285.445 316.52C285.319 316.059 284.69 315.997 284.476 316.424L269.447 346.482L244.31 394.166C244.221 394.334 244.051 394.441 243.861 394.444C223.874 394.752 199.139 385.037 188.933 379.982C188.756 379.895 188.652 379.736 188.657 379.538C188.924 369.898 201.405 334.486 207.679 317.813L217.985 290.917C218.14 290.513 217.758 290.064 217.33 290.126C213.422 290.69 201.672 291.257 195.69 291.49L145.388 292.272C133.399 292.098 106.45 286.694 94.5658 266.47Z" fill="#9AC1BC" stroke="#9AC1BC" stroke-width="1.04251" stroke-linecap="round" stroke-linejoin="round"/>
<path d="M226.373 272.314C224.375 276.31 219.909 285.554 218.033 290.558" stroke="white" stroke-width="1.04251" stroke-linecap="round" stroke-linejoin="round"/>
<path d="M284.492 210.024C294.222 214.107 311.91 229.675 304.821 259.283C297.732 288.89 288.315 308.976 284.492 315.318" stroke="white" stroke-width="1.04251" stroke-linecap="round" stroke-linejoin="round"/>
<path d="M217.06 89.2418C206.896 76.588 185.913 70.6244 176.545 69.195C176.449 69.1803 176.354 69.1946 176.264 69.2333C158.668 76.8274 140.844 72.0759 134.014 68.6991C133.949 68.6672 133.886 68.6502 133.814 68.6476C129.596 68.4985 119.703 71.6843 115.201 73.3263C115.169 73.3381 115.14 73.3456 115.106 73.3511C111.667 73.9129 101.166 79.0493 86.2247 95.2362C71.3772 111.321 61.2547 136.21 57.9245 147.008C57.8577 147.224 57.9398 147.448 58.1285 147.574C70.6802 155.951 95.4765 157.043 107.112 156.52C107.476 156.504 107.738 156.856 107.627 157.203L92.4375 204.798C92.3297 205.135 92.583 205.48 92.9373 205.478L217.396 204.705C217.747 204.702 217.997 204.369 217.888 204.036C216.301 199.215 211.021 184.618 208.459 177.595L204.414 161.415C204.345 161.138 204.506 160.858 204.781 160.783C218.167 157.113 238.193 144.913 246.96 138.987C247.16 138.852 247.231 138.598 247.144 138.373C238.844 116.729 229.755 105.046 217.06 89.2418Z" fill="#F9DA95" stroke="#F9DA95" stroke-width="0.521257" stroke-linecap="round" stroke-linejoin="round"/>
<path d="M212.11 80.3807C227.658 79.3441 230.925 62.0747 230.62 53.4233C230.616 53.3242 230.586 53.2341 230.528 53.1535C228.217 49.9352 221.791 45.1277 213.681 50.4882C213.518 50.5961 213.429 50.7948 213.452 50.9893C214.167 57.1862 211.827 58.7485 210.546 58.7485H206.115C203.222 58.5418 201.626 61.7321 201.175 63.3958C201.167 63.4257 201.162 63.454 201.16 63.4849C200.899 66.807 200.541 74.0336 201.163 76.7319C201.789 79.4424 203.856 80.2938 204.812 80.3807H212.11Z" fill="#9AC1BC" stroke="#9AC1BC" stroke-width="1.04251" stroke-linecap="round" stroke-linejoin="round"/>
<path d="M211.66 60.1626C212.094 65.2014 212.598 76.1131 211.139 79.4491" stroke="#2D3133" stroke-width="1.04251" stroke-linecap="round" stroke-linejoin="round"/>
<path d="M186.117 6.21289C188.897 8.99293 194.926 16.1168 196.803 22.3718" stroke="#2D3133" stroke-width="1.04251" stroke-linecap="round" stroke-linejoin="round"/>
<rect x="-0.173662" y="0.325109" width="6.4921" height="25.0062" rx="3.24605" transform="matrix(-0.956862 0.290543 0.290543 0.956862 186.302 149.619)" fill="#2D3133" stroke="#2D3133" stroke-width="0.521257"/>
<path d="M187.609 153.096L181.615 155.813" stroke="white" stroke-width="1.04251" stroke-linecap="round" stroke-linejoin="round"/>
<path d="M248.649 144.073L247.256 139.721C247.147 139.379 246.736 139.245 246.447 139.458C233.859 148.755 213.691 157.582 204.676 161.028C204.446 161.116 204.315 161.346 204.363 161.588C205.715 168.308 214.895 179.345 219.406 184.111C224.097 188.454 235.148 198.08 241.82 201.833C248.492 205.586 257.631 205.482 261.367 204.961C263.191 204.7 268.3 203.345 274.138 200.009C279.952 196.687 284.697 190.159 286.367 187.274C286.381 187.249 286.392 187.226 286.402 187.199C288.232 182.318 292.124 172.011 293.164 169.516C294.206 167.013 296.204 153.53 297.073 147.101C297.16 142.236 297.229 130.421 296.812 122.081C296.395 113.741 293.858 104.011 292.642 100.188C289.254 92.1958 281.696 74.8031 278.568 69.1733C275.441 63.5436 268.23 53.6226 265.015 49.3658L251.494 35.584C251.473 35.5631 251.451 35.5439 251.427 35.5267L234.565 23.3344C234.537 23.3135 234.507 23.2964 234.475 23.2818C231.928 22.1431 226.002 19.7011 222.272 18.8723C218.539 18.0428 213.122 18.1758 210.841 18.3483C210.816 18.3502 210.794 18.3535 210.769 18.3592C208.061 18.9815 202.301 21.5016 200.64 26.6911C199.174 31.2729 201.225 32.7 202.864 32.9193C203.193 32.9633 203.456 33.2585 203.422 33.5885C203.012 37.4811 204.994 38.6026 206.575 38.7142C206.962 38.7415 207.279 39.1163 207.19 39.4935C206.402 42.8122 207.831 44.2791 209.082 44.7608C209.409 44.8868 209.615 45.2617 209.488 45.5883C207.425 50.8943 211.534 51.0725 214.058 50.4428C214.147 50.4206 214.227 50.3732 214.294 50.3105C216.815 47.9457 221.805 48.8433 224.055 49.6118C224.084 49.6216 224.112 49.6286 224.142 49.6336C230.631 50.7002 234.541 57.4723 242.601 69.1733C249.065 78.556 252.592 95.8443 253.548 103.316C254.9 121.67 251.732 137.264 249.601 144.085C249.453 144.561 248.8 144.547 248.649 144.073Z" fill="#F2B1AA" stroke="#F2B1AA" stroke-width="1.04251" stroke-linecap="round" stroke-linejoin="round"/>
<path d="M424.521 191.929C428.169 191.929 443.025 192.972 444.068 186.456C444.241 183.937 443.442 178.898 438.855 178.898C434.268 178.898 434.946 184.023 435.988 184.892C437.548 186.192 441.337 187.284 444.046 181.291C444.06 181.26 444.071 181.228 444.079 181.195C444.598 178.909 445.203 173.556 443.547 170.036C441.879 166.492 439.376 166.127 438.334 166.388C435.206 166.759 433.382 171.711 438.334 172.643C444.053 173.718 444.775 167.43 444.85 163C444.85 160.828 444.433 156.067 442.765 154.399C441.097 152.731 438.421 152.488 437.291 152.574C433.643 152.855 432.079 158.419 438.334 158.83C444.577 159.239 443.811 150.36 442.772 145.056C442.767 145.029 442.76 145.004 442.751 144.978C442.132 143.312 440.511 139.796 438.855 138.761C436.77 137.458 429.994 136.155 431.558 141.889C432.809 146.476 438.334 143.365 438.855 141.107C439.376 138.848 439.429 133.392 435.467 129.639C431.505 125.886 429.299 124.426 428.691 124.166C424.531 121.937 417 129.6 422.912 131.45C422.94 131.458 422.971 131.465 423 131.469C425.788 131.797 430.605 130.484 427.909 122.602C425.198 114.679 418.266 113.219 415.138 113.48C412.271 113.48 408.362 118.022 412.792 120.517C416.317 122.176 418.416 117.443 419.037 114.828C419.044 114.798 419.048 114.769 419.05 114.738C419.202 111.336 417.075 104.778 407.319 105.401C397.937 106 400.803 112.557 403.149 112.959C406.185 113.479 410.9 112.181 405.521 102.84C405.504 102.811 405.483 102.781 405.461 102.755C399.623 96.132 390.892 98.6283 387.251 100.709C384.644 101.863 383.081 110.464 388.554 110.092C391.681 109.88 395.799 103.733 384.123 100.188C377.034 98.9371 371.961 101.926 370.31 103.576C368.664 105.222 366.931 110.065 372.867 110.092C372.899 110.092 372.932 110.089 372.963 110.083C376.581 109.355 378.38 101.646 364.055 101.231C355.298 101.648 352.477 107.687 353.89 110.613C355.454 113.852 360.406 113.07 360.406 108.528C360.406 104.619 352.935 104.184 348.678 104.619C343.986 105.097 334.604 110.092 336.428 116.608C337.481 120.368 341.12 118.693 342.423 117.39C344.397 115.416 343.726 110.613 333.301 110.613C326.003 111.03 321.746 115.826 320.53 118.171C319.314 120.517 322.243 127.144 326.264 123.123C328.953 120.434 325.536 116.154 323.446 114.305C323.413 114.276 323.379 114.253 323.339 114.234C321.187 113.179 314.279 110.988 305.674 115.565C298.116 119.586 299.838 126.512 303.85 126.512C305.674 126.512 312.45 121.149 303.068 114.523C295.809 110.167 288.292 112.156 285.391 113.716C285.359 113.733 285.332 113.751 285.305 113.775C282.35 116.329 277.818 123.905 284.824 123.905C289.776 123.905 288.473 118.283 287.169 115.044C286.648 113.139 281.384 109.31 269.707 109.31C263.495 110.138 263.624 114.635 264.477 116.824C264.489 116.854 264.503 116.881 264.521 116.908C265.159 117.866 267.144 119.35 270.229 117.911C273.356 116.451 270.663 110.874 268.925 108.268C263.713 102.273 260.533 103.889 253.027 103.055C245.521 102.221 244.687 109.31 247.815 110.613C250.942 111.482 256.155 110.874 251.985 101.491C247.815 94.5654 243.123 96.3366 240.256 96.0181C236.565 95.6079 229.988 99.9795 234.783 102.273C239.579 104.567 240.43 98.5377 240.256 95.2364C239.214 89.8741 233.324 87.5218 226.443 86.8963C219.629 86.2768 216.854 90.316 218.319 93.071C218.348 93.1242 218.386 93.1707 218.432 93.2093C220.291 94.7603 224.384 96.5298 226.443 91.5875C228.528 86.5834 223.663 79.9461 220.97 77.2529" stroke="#2D3133" stroke-width="1.04251" stroke-linecap="round" stroke-linejoin="round"/>
<path d="M217.844 25.3875C213.934 25.04 205.594 26.0652 203.509 32.9457" stroke="#2D3133" stroke-width="1.04251" stroke-linecap="round" stroke-linejoin="round"/>
<path d="M221.23 41.2863C218.45 40.7651 212.265 40.8172 209.763 45.1957" stroke="#2D3133" stroke-width="1.04251" stroke-linecap="round" stroke-linejoin="round"/>
<path d="M219.928 33.4673C216.279 32.9461 208.616 33.3109 207.157 38.9405" stroke="#2D3133" stroke-width="1.04251" stroke-linecap="round" stroke-linejoin="round"/>
<path d="M202.621 196.008C204.214 195.445 204.582 192.681 204.562 190.996C204.559 190.774 204.408 190.584 204.196 190.522L201.051 189.597C200.652 189.48 200.283 189.853 200.405 190.25L202.079 195.692C202.152 195.929 202.387 196.09 202.621 196.008Z" fill="#F2B1AA" stroke="#2D3133" stroke-width="1.04251" stroke-linecap="round" stroke-linejoin="round"/>
<path d="M202.172 195.993L200.413 190.275C200.289 189.873 199.765 189.775 199.505 190.106L194.652 196.283C194.498 196.479 194.504 196.757 194.668 196.946L200.397 203.556C200.692 203.897 201.252 203.727 201.308 203.279L202.191 196.211C202.2 196.137 202.194 196.063 202.172 195.993Z" fill="#2D3133" stroke="#2D3133" stroke-width="1.04251" stroke-linecap="round" stroke-linejoin="round"/>
<path d="M58.3363 187.499C50.6168 177.951 54.7235 157.425 57.8323 147.699C57.9462 147.342 58.3837 147.223 58.6763 147.457C68.4417 155.245 94.4367 156.782 107.07 156.497C107.363 156.49 107.595 156.732 107.603 157.025C107.955 168.902 119.848 172.736 125.839 173.164L137.828 175.249L148.969 176.804C149.013 176.81 149.055 176.821 149.096 176.838C150.181 177.267 153.023 177.829 156.27 176.832C156.311 176.82 156.351 176.801 156.388 176.779C164.453 171.828 172.49 169.541 175.565 169.004C175.603 168.997 175.637 168.995 175.675 168.997C177.448 169.083 181.701 169.2 185.002 168.994C188.338 168.786 192.126 170.645 193.602 171.6C196.991 174.207 204.184 180.722 205.852 185.935C207.493 191.061 203.722 190.894 201.53 190.143C201.458 190.118 201.393 190.077 201.339 190.023L200.738 189.421C200.343 189.027 199.569 189.49 199.578 190.047C199.603 191.648 198.611 192.133 197.562 192.143C197.082 192.148 196.655 192.712 196.837 193.156C197.648 195.137 196.808 195.92 195.675 196.135C195.16 196.233 194.778 197.032 195.032 197.49C195.854 198.978 194.561 199.611 193.602 199.748C188.042 200.096 175.984 201.051 172.231 202.094C168.478 203.136 160.068 204.092 156.333 204.44L138.61 205.221L94.6069 204.44C94.5781 204.44 94.5494 204.437 94.521 204.432L76.3196 201.051C73.6265 200.617 66.2594 197.298 58.3363 187.499Z" fill="#F2B1AA" stroke="#F2B1AA" stroke-width="1.04251" stroke-linecap="round" stroke-linejoin="round"/>
<path d="M183.439 176.813C187.261 176.813 195.845 179.263 199.598 189.063" stroke="#2D3133" stroke-width="1.04251" stroke-linecap="round" stroke-linejoin="round"/>
<path d="M182.917 183.85C186.045 184.458 193.186 187.03 196.73 192.451" stroke="#2D3133" stroke-width="1.04251" stroke-linecap="round" stroke-linejoin="round"/>
<path d="M181.875 191.409C184.394 191.582 190.528 192.972 194.906 197.143" stroke="#2D3133" stroke-width="1.04251" stroke-linecap="round" stroke-linejoin="round"/>
<path d="M199.339 129.639C199.773 138.327 201.372 156.849 204.291 161.436" stroke="#2D3133" stroke-width="1.04251" stroke-linecap="round" stroke-linejoin="round"/>
<path d="M123.494 119.214C118.629 128.684 108.638 148.464 107.596 155.553" stroke="#2D3133" stroke-width="1.04251" stroke-linecap="round" stroke-linejoin="round"/>
<path d="M194.906 77.6245L186.045 83.619" stroke="#2D3133" stroke-width="1.04251" stroke-linecap="round" stroke-linejoin="round"/>
<path d="M153.988 82.5765C149.123 82.8372 138.298 82.4723 133.92 78.9277" stroke="#2D3133" stroke-width="1.04251" stroke-linecap="round" stroke-linejoin="round"/>
<path d="M176.142 37.1163C175.561 26.9651 171.537 24.2587 169.105 23.0424C164.188 21.4897 161.241 25.2472 160.519 26.9164C160.508 26.9408 160.497 26.9623 160.483 26.9849C159.078 29.2529 155.43 33.5687 151.903 32.9463C144.084 31.1219 143.302 35.8132 147.733 39.9832C151.278 43.3193 150.774 50.5821 150.079 53.7965C149.297 57.2716 144.918 65.1078 133.659 68.6523C154.926 76.784 169.452 72.7355 174.057 69.6949C160.087 68.6523 156.942 58.6616 157.116 53.7965C169.156 57.7406 174.1 52.3674 175.086 49.1478C175.095 49.1188 175.105 49.0926 175.119 49.0655C175.42 48.4703 176.651 46.0245 176.142 37.1163Z" fill="#F2B1AA" stroke="#2D3133" stroke-width="1.04251" stroke-linecap="round" stroke-linejoin="round"/>
<path d="M153.468 51.4507C154.076 52.0588 155.813 53.4315 157.898 54.057" stroke="#2D3133" stroke-width="1.04251" stroke-linecap="round" stroke-linejoin="round"/>
<path d="M166.885 50.5194C169.251 50.5194 170.337 49.2261 170.74 48.159C170.861 47.8366 170.517 47.6056 170.221 47.7832C170.156 47.8227 170.08 47.8436 170.004 47.8436H164.39C164.261 47.8436 164.136 47.7958 164.041 47.7094L163.981 47.6559C163.646 47.3534 163.162 47.5925 163.297 48.0233C163.669 49.2034 164.664 50.5194 166.885 50.5194Z" stroke="#2D3133" stroke-width="1.04251" stroke-linecap="round" stroke-linejoin="round"/>
<path d="M168.584 37.8979C169.8 39.1142 171.19 41.7552 167.02 42.5893" stroke="#2D3133" stroke-width="1.04251" stroke-linecap="round" stroke-linejoin="round"/>
<path d="M164.674 31.6429C163.284 30.7741 160.243 29.9749 159.201 33.7279" stroke="#2D3133" stroke-width="1.04251" stroke-linecap="round" stroke-linejoin="round"/>
<path d="M174.578 30.3402C173.796 29.9927 172.076 29.6626 171.451 31.1221" stroke="#2D3133" stroke-width="1.04251" stroke-linecap="round" stroke-linejoin="round"/>
<path d="M149.559 34.3604C148.32 34.6384 147.112 35.9137 148.255 37.7485" stroke="#2D3133" stroke-width="1.04251" stroke-linecap="round" stroke-linejoin="round"/>
<path d="M176.143 37.1163C175.562 26.965 171.538 24.2586 169.106 23.0423C164.189 21.4896 161.242 25.2472 160.52 26.9163C160.51 26.9407 160.499 26.9622 160.485 26.9848C159.079 29.2528 155.432 33.5687 151.904 32.9462C144.085 31.1218 143.303 35.8131 147.734 39.9832C151.279 43.3192 150.775 50.5821 150.08 53.7965C149.298 57.2715 144.919 65.1077 133.66 68.6523C119.904 70.0684 106.837 76.9958 101.548 80.581C101.295 80.7522 100.944 80.6658 100.793 80.4013C89.5061 60.7073 98.5065 53.2339 102.125 48.3234C105.044 44.3618 114.982 43.3714 119.587 43.3714C122.888 43.1977 129.543 40.8694 129.751 32.9462C129.96 25.023 133.487 19.7411 135.225 18.0905C136.354 16.9611 139.812 14.1811 144.607 12.096C150.602 9.48976 157.639 10.7929 161.287 12.096C163.821 13.0008 166.014 15.4107 167.117 16.9402C167.331 17.2372 167.835 17.2878 168.19 17.1986C169.223 16.9389 171.02 17.2967 171.973 17.5691C175.883 19.046 184.223 25.1273 186.308 37.6374C186.933 57.6537 183.962 66.0461 182.138 66.8278L174.058 69.6948C160.088 68.6523 156.943 58.6615 157.117 53.7965C169.157 57.7406 174.101 52.3673 175.087 49.1478C175.096 49.1187 175.106 49.0926 175.12 49.0655C175.421 48.4703 176.652 46.0244 176.143 37.1163Z" fill="#2D3133" stroke="#2D3133" stroke-width="1.04251" stroke-linecap="round" stroke-linejoin="round"/>
<path d="M122.713 49.8872C118.717 50.756 109.994 52.8584 107.075 54.3179C103.426 56.1423 98.9957 62.1367 103.426 69.695" stroke="white" stroke-width="1.04251" stroke-linecap="round" stroke-linejoin="round"/>
<circle r="1.04251" transform="matrix(-1 0 0 1 173.536 34.3604)" fill="#2D3133"/>
<circle r="1.04251" transform="matrix(-1 0 0 1 163.11 35.4029)" fill="#2D3133"/>
<path d="M189.45 394.415C189.69 391.994 192.729 386.108 194.448 383.06C194.565 382.853 194.808 382.754 195.037 382.817L237.247 394.444C237.645 394.553 237.784 395.085 237.556 395.429C236.202 397.469 235.542 401.568 235.339 403.904C235.317 404.157 235.117 404.36 234.864 404.384C214.041 406.298 196.252 398.934 189.67 394.846C189.519 394.752 189.432 394.592 189.45 394.415Z" fill="#F2B1AA" stroke="#F2B1AA" stroke-width="1.04251" stroke-linecap="round" stroke-linejoin="round"/>
<path d="M411.743 166.606C408.799 148.711 388.807 144.756 379.171 145.017C369.541 145.017 349.826 149.332 347.904 166.579C347.899 166.625 347.9 166.673 347.907 166.718C351.702 190.835 379.01 190.624 392.203 187.499C398.712 186.197 411.723 180.214 411.75 166.692C411.75 166.664 411.748 166.634 411.743 166.606Z" fill="white" stroke="white" stroke-width="1.04251" stroke-linecap="round" stroke-linejoin="round"/>
<path d="M405.496 165.08C405.496 151.532 386.961 147.949 379.167 148.153C371.374 148.153 353.892 154.138 353.892 165.08C355.195 181.765 380.997 183.08 389.699 181.395C394.965 180.375 405.496 175.685 405.496 165.08Z" fill="#2D3133" stroke="#2D3133" stroke-width="1.04251" stroke-linecap="round" stroke-linejoin="round"/>
<path d="M391.943 163.799C391.943 157.113 383.331 155.345 379.71 155.446C376.089 155.446 367.966 158.399 367.966 163.799C368.571 172.032 379.56 172.693 383.603 171.861C386.05 171.358 391.943 169.032 391.943 163.799Z" fill="white" stroke="white" stroke-width="1.04251" stroke-linecap="round" stroke-linejoin="round"/>
<path d="M382.559 177.338C382.559 175.25 379.75 174.698 378.569 174.729C377.389 174.729 374.74 175.652 374.74 177.338C374.937 179.909 378.521 180.116 379.839 179.856C380.637 179.699 382.559 178.972 382.559 177.338Z" fill="white" stroke="white" stroke-width="1.04251" stroke-linecap="round" stroke-linejoin="round"/>
<path d="M392.465 175.253C392.465 173.165 389.656 172.613 388.476 172.644C387.295 172.644 384.646 173.567 384.646 175.253C384.843 177.824 388.427 178.031 389.745 177.771C390.543 177.614 392.465 176.887 392.465 175.253Z" fill="white" stroke="white" stroke-width="1.04251" stroke-linecap="round" stroke-linejoin="round"/>
<path d="M400.805 170.562C400.805 168.474 397.996 167.921 396.815 167.953C395.635 167.953 392.986 168.875 392.986 170.562C393.183 173.133 396.767 173.339 398.085 173.08C398.883 172.922 400.805 172.196 400.805 170.562Z" fill="white" stroke="white" stroke-width="1.04251" stroke-linecap="round" stroke-linejoin="round"/>
<path d="M402.367 162.222C402.367 160.134 399.559 159.582 398.378 159.613C397.197 159.613 394.548 160.535 394.548 162.222C394.746 164.793 398.329 164.999 399.648 164.74C400.445 164.583 402.367 163.856 402.367 162.222Z" fill="white" stroke="white" stroke-width="1.04251" stroke-linecap="round" stroke-linejoin="round"/>
<path d="M396.633 155.966C396.633 154.296 394.386 153.854 393.441 153.879C392.497 153.879 390.378 154.617 390.378 155.966C390.536 158.023 393.402 158.188 394.457 157.98C395.095 157.855 396.633 157.273 396.633 155.966Z" fill="white" stroke="white" stroke-width="1.04251" stroke-linecap="round" stroke-linejoin="round"/>
<path d="M388.293 152.577C388.293 151.116 386.046 150.729 385.102 150.751C384.157 150.751 382.038 151.397 382.038 152.577C382.196 154.377 385.063 154.522 386.117 154.34C386.756 154.23 388.293 153.721 388.293 152.577Z" fill="white" stroke="white" stroke-width="1.04251" stroke-linecap="round" stroke-linejoin="round"/>
<path d="M379.432 152.577C379.432 151.116 377.185 150.729 376.24 150.751C375.296 150.751 373.177 151.397 373.177 152.577C373.335 154.377 376.201 154.522 377.256 154.34C377.894 154.23 379.432 153.721 379.432 152.577Z" fill="white" stroke="white" stroke-width="1.04251" stroke-linecap="round" stroke-linejoin="round"/>
<path d="M371.092 155.705C371.092 154.243 368.845 153.857 367.9 153.879C366.956 153.879 364.837 154.524 364.837 155.705C364.995 157.505 367.861 157.649 368.916 157.467C369.554 157.357 371.092 156.849 371.092 155.705Z" fill="white" stroke="white" stroke-width="1.04251" stroke-linecap="round" stroke-linejoin="round"/>
<path d="M365.879 160.396C365.879 158.935 363.632 158.548 362.688 158.57C361.743 158.57 359.624 159.216 359.624 160.396C359.782 162.196 362.648 162.341 363.703 162.159C364.341 162.049 365.879 161.54 365.879 160.396Z" fill="white" stroke="white" stroke-width="1.04251" stroke-linecap="round" stroke-linejoin="round"/>
<path d="M153.727 210.024C150.425 218.625 138.61 236.817 117.76 240.778" stroke="white" stroke-width="1.04251" stroke-linecap="round" stroke-linejoin="round"/>
<circle r="2.08503" transform="matrix(-1 0 0 1 333.04 369.528)" fill="white"/>
<circle r="1.8244" transform="matrix(-1 0 0 1 306.717 344.769)" fill="white"/>
<circle r="1.8244" transform="matrix(-1 0 0 1 336.428 330.695)" fill="white"/>
<circle r="1.8244" transform="matrix(-1 0 0 1 308.281 298.898)" fill="white"/>
<circle r="1.8244" transform="matrix(-1 0 0 1 333.301 274.921)" fill="white"/>
<circle r="1.8244" transform="matrix(-1 0 0 1 283.781 254.591)" fill="white"/>
<circle r="1.8244" transform="matrix(-1 0 0 1 262.41 227.486)" fill="white"/>
<circle r="1.8244" transform="matrix(-1 0 0 1 243.644 259.804)" fill="white"/>
<circle r="1.8244" transform="matrix(-1 0 0 1 188.39 267.623)" fill="white"/>
<circle r="1.8244" transform="matrix(-1 0 0 1 208.199 232.177)" fill="white"/>
<circle r="1.8244" transform="matrix(-1 0 0 1 171.189 227.486)" fill="white"/>
<circle r="1.8244" transform="matrix(-1 0 0 1 144.605 269.708)" fill="white"/>
<circle r="1.8244" transform="matrix(-1 0 0 1 99.2557 233.741)" fill="white"/>
<circle r="1.8244" transform="matrix(-1 0 0 1 267.623 296.813)" fill="white"/>
<circle r="1.8244" transform="matrix(-1 0 0 1 239.996 308.802)" fill="white"/>
<circle r="1.8244" transform="matrix(-1 0 0 1 260.324 346.332)" fill="white"/>
<circle r="1.8244" transform="matrix(-1 0 0 1 211.326 341.12)" fill="white"/>
<circle r="1.8244" transform="matrix(-1 0 0 1 220.187 375.002)" fill="white"/>
</svg>
