<svg width="139" height="167" viewBox="0 0 139 167" fill="none" xmlns="http://www.w3.org/2000/svg">
<path d="M106.434 128.388C61.6196 122.626 16.8054 140.392 0 149.995V166C51.8565 164.079 92.5628 140.125 106.434 128.388Z" fill="#8AE882" stroke="#8AE882" stroke-width="1.60051"/>
<path d="M126.44 81.9736C83.5463 82.6138 48.8152 104.648 36.8114 115.584L33.6104 119.586C84.8267 117.025 116.837 93.444 126.44 81.9736Z" fill="#8AE882" stroke="#8AE882" stroke-width="1.60051"/>
<path d="M137.644 29.1562C113.316 32.9975 86.9613 53.6974 76.8247 63.5672L67.2217 79.5723C97.6314 78.7721 142.446 34.758 137.644 29.1562Z" fill="#8AE882" stroke="#8AE882" stroke-width="1.60051"/>
<path d="M0 69.9691V140.392C26.8886 98.7783 25.0747 51.5632 20.8066 33.1573C20.2731 27.022 18.2458 16.512 14.4046 23.5543C10.5634 30.5965 3.20102 57.4317 0 69.9691Z" fill="#8AE882" stroke="#8AE882" stroke-width="1.60051"/>
<path d="M51.2168 2.74805C37.1323 41.1603 52.8173 66.7685 62.4203 74.771L68.0214 65.9682C73.6225 41.1603 55.2173 9.15009 51.2168 2.74805Z" fill="#8AE882" stroke="#8AE882" stroke-width="1.60051"/>
<path d="M104.033 9.15039C57.2983 91.0965 15.2048 131.856 0 141.993V149.995C67.8616 92.3769 97.6311 32.091 104.033 9.15039Z" fill="#106A4C"/>
</svg>
