<svg width="148" height="209" viewBox="0 0 148 209" fill="none" xmlns="http://www.w3.org/2000/svg">
<path d="M2 77.7089C37.4979 76.5638 59.2548 86.7743 65.6959 92.0226L82.8723 112.778C43.3666 119.076 12.4967 92.0228 2 77.7089Z" fill="#8AE882" stroke="#8AE882" stroke-width="1.43137"/>
<path d="M71.4198 51.9448C69.1296 67.9761 80.4851 94.4087 86.4491 105.621L90.7445 110.631C109.639 56.2389 82.872 26.4187 67.127 18.3076C69.0354 22.6017 72.5659 35.3409 71.4198 51.9448Z" fill="#8AE882" stroke="#8AE882" stroke-width="1.43137"/>
<path d="M114.362 26.8955C95.4681 74.9895 109.352 118.98 118.656 134.964L138.695 149.993C158.161 105.335 130.584 49.3203 114.362 26.8955Z" fill="#8AE882" stroke="#8AE882" stroke-width="1.43137"/>
<path d="M49.2356 136.396C92.1767 130.098 115.794 140.451 122.235 146.415L130.108 152.856C105.488 180.338 49.7127 156.196 24.9023 140.689C27.0494 140.451 34.9219 139.258 49.2356 136.396Z" fill="#8AE882" stroke="#8AE882" stroke-width="1.43137"/>
<path d="M148.001 207.963V172.895C126.531 165.022 59.9707 190.787 65.6976 192.218C104.631 206.532 136.789 208.679 148.001 207.963Z" fill="#8AE882" stroke="#8AE882" stroke-width="1.43137"/>
<path d="M46.3723 58.3866C43.9161 50.8919 39.4953 32.5182 50.1815 15.9672C54.9611 26.1806 59.5541 50.8544 46.3723 58.3866Z" fill="#8AE882" stroke="#8AE882" stroke-width="1.43137"/>
<path d="M44.0161 62.0536C36.1372 62.4108 17.251 61.7441 4.17063 47.012C15.2915 45.1454 40.2935 47.3351 44.0161 62.0536Z" fill="#8AE882" stroke="#8AE882" stroke-width="1.43137"/>
<path d="M32.7754 37.6309C71.7086 102.329 125.814 143.314 148.001 155.719V164.307C71.2792 114.495 39.2165 59.1014 32.7754 37.6309Z" fill="#106A4C"/>
<path d="M33.7958 39.9313C33.3186 32.0587 28.3565 13.4509 12.3252 2C10.1833 13.4509 18.7664 37.7842 33.7958 39.9313Z" fill="#8AE882" stroke="#8AE882" stroke-width="1.43137"/>
</svg>
