<svg width="81" height="258" viewBox="0 0 81 258" fill="none" xmlns="http://www.w3.org/2000/svg">
<path d="M18.347 73.2262C15.7297 73.2262 13.476 74.3894 11.5858 76.7159C9.69552 79.0423 8.7504 82.0231 8.7504 85.6581C8.7504 89.1478 10.1317 92.2013 12.8944 94.8185C15.657 97.4358 19.1467 98.7444 23.3634 98.7444C27.4347 98.7444 31.0698 97.145 34.2686 93.9461C37.3221 90.6018 38.8488 86.0944 38.8488 80.4236C38.8488 71.1178 36.4497 63.1934 31.6514 56.6502C26.8531 49.9617 21.1097 46.6174 14.4211 46.6174C9.62282 46.6174 7.22366 48.3622 7.22366 51.8519C12.022 53.0151 16.0206 55.6324 19.2194 59.7037C22.2729 63.6296 23.7996 68.4279 23.7996 74.0986C22.6364 73.517 20.8189 73.2262 18.347 73.2262Z" fill="#1EC28B"/>
<path d="M55.4222 73.2262C52.8049 73.2262 50.5512 74.3894 48.661 76.7159C46.7707 79.0423 45.8256 82.0231 45.8256 85.6581C45.8256 89.1478 47.2069 92.2013 49.9696 94.8185C52.7322 97.4358 56.2219 98.7444 60.4386 98.7444C64.5099 98.7444 68.145 97.145 71.3438 93.9461C74.3973 90.6018 75.924 86.0944 75.924 80.4236C75.924 71.1178 73.5249 63.1934 68.7266 56.6502C63.9283 49.9617 58.1849 46.6174 51.4963 46.6174C46.698 46.6174 44.2989 48.3622 44.2989 51.8519C49.0972 53.0151 53.0957 55.6324 56.2946 59.7037C59.3481 63.6296 60.8748 68.4279 60.8748 74.0986C59.7116 73.517 57.8941 73.2262 55.4222 73.2262Z" fill="#1EC28B"/>
</svg>
