<svg width="892" height="892" viewBox="0 0 892 892" fill="none" xmlns="http://www.w3.org/2000/svg">
<rect x="426" y="86" width="564" height="368" transform="rotate(90 426 86)" fill="#E8FCF6"/>
<path d="M377.057 712.369C399.303 711.655 419.391 711.227 436.821 710.969C454.25 710.71 469.031 710.639 480.636 710.621C547.009 710.54 596.792 710.469 630.545 710.46C664.299 710.451 682.023 710.46 684.279 710.621C699.979 711.513 709.782 711.816 717.373 711.424C724.107 711.096 730.777 709.955 737.237 708.025C766.477 699.899 782.221 677.064 790.856 649.992C799.49 622.919 801.024 591.61 801.836 566.554C802.032 560.399 802.336 550.979 802.327 539.972C802.318 528.965 801.97 516.379 800.891 503.891C798.848 480.378 796.306 451.129 788.474 422.335C780.642 393.542 767.512 365.247 744.311 343.581C727.996 328.372 710.237 319.755 687.937 314.038C665.637 308.32 638.77 305.492 604.267 301.862C573.878 298.582 543.206 298.932 512.899 302.905C496.034 305.104 479.378 308.684 463.099 313.609C455.544 315.92 448.506 318.069 441.468 320.701C434.01 323.459 426.778 326.793 419.837 330.673C392.283 346.105 372.954 367.977 359.431 389.545C345.908 411.114 338.21 432.281 333.902 446.375L326.32 477.925L318.747 509.484L286.902 470.352L255.111 431.255L206.943 474.169L158.775 517.075L162.343 521.642C163.476 523.069 164.52 524.407 165.483 525.629L166.991 527.565C167.883 528.697 169.042 530.187 170.122 531.579C173.69 536.163 192.422 563.86 214.374 594.099C236.326 624.338 261.32 657.119 277.456 671.89C278.616 672.952 280.177 674.334 282.148 675.851C284.419 677.599 286.803 679.197 289.284 680.632C292.357 682.37 295.563 683.861 298.873 685.092C305.958 687.907 313.497 689.406 321.119 689.516C334.831 689.366 348.088 684.574 358.726 675.922C369.947 666.805 377.932 654.316 381.499 640.304C380.761 652.311 380.024 664.32 379.287 676.332L377.057 712.369Z" fill="#104FC1" stroke="black" stroke-width="2.676" stroke-miterlimit="10" stroke-linecap="round"/>
<path d="M510.634 399.25L495.63 554.94L480.645 710.62H534.075H587.497L549.061 554.94L510.634 399.25Z" fill="#FFF8F8" stroke="black" stroke-width="2.676" stroke-miterlimit="10" stroke-linecap="round"/>
<path d="M491.777 364.212L501.197 381.731L510.634 399.25L516.958 379.501L523.283 359.752L507.53 361.982L491.777 364.212Z" fill="#FFF8F8" stroke="black" stroke-width="2.676" stroke-miterlimit="10" stroke-linecap="round"/>
<path d="M318.721 509.439L331.887 526.459L345.053 543.478C345.14 543.591 345.264 543.67 345.404 543.699C345.544 543.728 345.69 543.706 345.815 543.637C345.94 543.568 346.037 543.456 346.087 543.322C346.137 543.189 346.137 543.041 346.087 542.907C342.519 533.232 338.975 523.554 335.455 513.872C331.934 504.191 328.39 494.516 324.822 484.847L321.771 497.138L318.721 509.439Z" fill="black" stroke="black" stroke-width="2.676" stroke-miterlimit="10" stroke-linecap="round"/>
<path d="M390.26 505.255C388.815 528.601 387.373 551.942 385.934 575.277C384.495 598.612 383.052 621.952 381.607 645.299" stroke="black" stroke-width="2.676" stroke-miterlimit="10" stroke-linecap="round"/>
<path d="M463.072 313.601L450.843 317.49L446.659 318.828C446.659 318.828 445.455 336.061 443.707 361.144C441.959 386.227 439.648 419.169 437.463 450.594L474.035 424.922L510.607 399.25L486.835 356.434L463.072 313.601Z" fill="#104FC1" stroke="black" stroke-width="2.676" stroke-miterlimit="10" stroke-linecap="round"/>
<path d="M545.342 300.023L527.983 349.663C522.203 366.201 516.417 382.739 510.625 399.276L555.546 422.807L600.467 446.347C598.094 437.597 588.14 400.855 578.765 366.326L560.622 299.426L553.093 299.729L545.342 300.023Z" fill="#104FC1" stroke="black" stroke-width="2.676" stroke-miterlimit="10" stroke-linecap="round"/>
<path d="M560.497 248.689L535.316 255.112L510.135 261.534C512.267 268.201 515.266 274.559 519.055 280.445C527.207 293.183 539.288 302.919 553.468 308.177C557.468 309.66 561.59 310.788 565.787 311.549C567.441 306.024 568.529 300.346 569.033 294.601C569.982 283.649 568.865 272.618 565.742 262.078C564.368 257.478 562.613 252.999 560.497 248.689V248.689Z" fill="black" stroke="black" stroke-width="2.676" stroke-miterlimit="10" stroke-linecap="round"/>
<path d="M544.209 303.94C542.541 303.048 541.23 302.156 540.213 301.496C539.196 300.836 538.429 300.247 537.965 299.846L536.957 299.007L536.19 298.329L536.877 298.374H537.68H538.367C538.786 298.374 539.339 298.329 539.892 298.258C542.93 297.941 545.846 296.892 548.389 295.2C550.932 293.508 553.026 291.224 554.492 288.545C555.958 285.865 556.752 282.87 556.806 279.816C556.859 276.762 556.171 273.741 554.8 271.012C553.428 268.282 551.415 265.927 548.933 264.147C546.451 262.367 543.574 261.216 540.549 260.792C537.524 260.369 534.442 260.686 531.567 261.717C528.691 262.747 526.109 264.46 524.041 266.708C520.961 270.026 519.115 274.303 518.814 278.821C517.922 277.679 517.03 276.377 516.138 274.914C515.142 273.329 514.231 271.691 513.409 270.008C512.659 268.465 512.026 266.967 511.491 265.548C510.956 264.13 510.528 262.792 510.171 261.561L467.194 272.515L424.227 283.469C424.227 285.172 424.271 286.885 424.369 288.606C424.467 290.328 424.61 292.059 424.815 293.798C427.402 315.625 437.803 334.429 452.53 347.184C467.257 359.94 486.292 366.665 506.175 364.311C520.143 362.635 533.24 356.641 543.639 347.166C554.158 337.552 561.847 325.245 565.876 311.575C563.244 311.085 560.639 310.46 558.071 309.702C555.77 309.015 553.79 308.311 552.148 307.66C551.256 307.303 550.07 306.821 548.741 306.215C547.412 305.608 545.824 304.823 544.209 303.94Z" fill="#FFC0C0" stroke="black" stroke-width="2.676" stroke-miterlimit="10" stroke-linecap="round"/>
<path d="M527.52 302.887C527.794 305.209 527.255 307.554 525.994 309.523C524.734 311.492 522.829 312.963 520.606 313.685C518.382 314.407 515.977 314.336 513.8 313.484C511.623 312.632 509.808 311.052 508.666 309.012C507.523 306.972 507.123 304.599 507.534 302.298C507.945 299.996 509.141 297.908 510.918 296.389C512.696 294.871 514.945 294.015 517.283 293.969C519.62 293.922 521.901 294.688 523.738 296.135C524.783 296.954 525.656 297.973 526.305 299.132C526.954 300.291 527.367 301.567 527.52 302.887V302.887Z" fill="#EF3F3F" stroke="black" stroke-width="2.676" stroke-miterlimit="10" stroke-linecap="round"/>
<path d="M475.936 341.868C476.21 344.189 475.671 346.534 474.41 348.503C473.15 350.472 471.245 351.943 469.022 352.666C466.798 353.388 464.393 353.317 462.216 352.465C460.039 351.613 458.224 350.032 457.082 347.992C455.939 345.953 455.539 343.58 455.95 341.278C456.361 338.977 457.557 336.889 459.334 335.37C461.112 333.851 463.361 332.996 465.699 332.949C468.036 332.903 470.317 333.668 472.154 335.115C473.198 335.936 474.069 336.955 474.718 338.114C475.367 339.273 475.781 340.548 475.936 341.868V341.868Z" fill="#EF3F3F" stroke="black" stroke-width="2.676" stroke-miterlimit="10" stroke-linecap="round"/>
<path d="M459.131 318.685C459.215 319.226 459.19 319.779 459.056 320.31C458.922 320.841 458.682 321.339 458.351 321.776C458.02 322.212 457.605 322.577 457.13 322.849C456.654 323.122 456.129 323.295 455.585 323.36C455.041 323.425 454.49 323.379 453.964 323.226C453.438 323.073 452.949 322.816 452.525 322.469C452.1 322.123 451.75 321.695 451.495 321.21C451.241 320.725 451.086 320.194 451.041 319.648C450.956 319.107 450.982 318.554 451.116 318.023C451.25 317.492 451.49 316.994 451.821 316.557C452.152 316.121 452.567 315.756 453.042 315.484C453.518 315.211 454.043 315.038 454.587 314.973C455.13 314.908 455.682 314.954 456.208 315.107C456.734 315.26 457.223 315.517 457.647 315.864C458.071 316.21 458.422 316.638 458.676 317.123C458.931 317.608 459.086 318.139 459.131 318.685Z" fill="#231F20"/>
<path d="M496.086 297.384C496.18 298.184 496.036 298.995 495.67 299.713C495.304 300.432 494.734 301.025 494.03 301.419C493.327 301.814 492.523 301.99 491.719 301.928C490.916 301.865 490.149 301.565 489.516 301.066C488.882 300.568 488.411 299.892 488.161 299.126C487.912 298.359 487.895 297.536 488.113 296.76C488.331 295.984 488.775 295.29 489.387 294.766C490 294.242 490.754 293.911 491.554 293.816C492.086 293.752 492.625 293.794 493.141 293.939C493.656 294.084 494.138 294.329 494.559 294.661C494.98 294.992 495.331 295.403 495.593 295.87C495.855 296.338 496.022 296.852 496.086 297.384Z" fill="#231F20"/>
<path d="M448.676 297.036C451.565 294.442 454.635 292.057 457.863 289.9C467.886 283.178 479.295 278.8 491.242 277.091" stroke="black" stroke-width="2.676" stroke-miterlimit="10" stroke-linecap="round"/>
<path d="M458.756 290.756L467.471 308.007L476.194 325.25L478.523 323.822L480.851 322.404" stroke="black" stroke-width="2.676" stroke-miterlimit="10" stroke-linecap="round"/>
<path d="M487.399 206.178C469.104 208.354 453.297 217.827 442.067 231.68C430.376 246.376 424.079 264.637 424.227 283.416L492.385 266.058L560.543 248.69C553.861 234.916 543.325 223.377 530.215 215.472C517.365 207.72 502.306 204.451 487.399 206.178V206.178Z" fill="#F9851C" stroke="black" stroke-width="2.676" stroke-miterlimit="10" stroke-linecap="round"/>
<path d="M532.533 286.439L537.823 280.864L543.121 275.28" stroke="black" stroke-width="2.676" stroke-miterlimit="10" stroke-linecap="round"/>
<path d="M450.069 276.832C452.289 283.997 452.308 291.663 450.122 298.838C448.063 305.673 443.82 311.645 438.044 315.839C435.877 317.393 433.514 318.653 431.016 319.586C423.029 322.533 414.21 322.268 406.414 318.846C402.44 317.094 398.906 314.479 396.069 311.191C393.231 307.903 391.162 304.025 390.01 299.837C389.306 297.266 388.979 294.607 389.038 291.943C389.242 286.127 391.051 280.48 394.265 275.628C397.539 270.722 402.293 266.895 408.189 265.682C411.756 264.996 415.439 265.226 418.893 266.351C421.162 267.072 423.329 268.079 425.342 269.348C425.111 270.713 424.896 272.158 424.718 273.666C424.54 275.173 424.406 276.752 424.308 278.393C424.263 279.285 424.227 280.177 424.21 280.998C424.192 281.819 424.21 282.675 424.21 283.478L437.152 280.177L450.069 276.832Z" fill="black" stroke="black" stroke-width="2.676" stroke-miterlimit="10" stroke-linecap="round"/>
<path d="M427.945 258.261L488.084 244.328L548.231 230.395" stroke="black" stroke-width="2.676" stroke-miterlimit="10" stroke-linecap="round"/>
<path d="M446.135 254.05L447.508 265.592L448.873 277.135" stroke="black" stroke-width="2.676" stroke-miterlimit="10" stroke-linecap="round"/>
<path d="M469.924 248.708L471.217 259.626L472.511 270.535" stroke="black" stroke-width="2.676" stroke-miterlimit="10" stroke-linecap="round"/>
<path d="M498.977 242.276L500.243 252.998L501.519 263.72" stroke="black" stroke-width="2.676" stroke-miterlimit="10" stroke-linecap="round"/>
<path d="M528.535 235.399L529.73 245.541L530.935 255.684" stroke="black" stroke-width="2.676" stroke-miterlimit="10" stroke-linecap="round"/>
<path d="M508.057 318.203C507.817 317.878 507.511 317.607 507.159 317.409C506.807 317.21 506.417 317.089 506.014 317.053C505.615 317.012 505.211 317.057 504.831 317.187C504.451 317.316 504.103 317.526 503.811 317.802L498.967 322.333C497.362 323.85 495.75 325.36 494.133 326.865C493.257 330.362 493.03 333.99 493.464 337.569C493.761 340.32 494.36 343.03 495.248 345.65C497.593 345.667 499.919 345.218 502.089 344.33C504.229 343.457 506.141 342.109 507.682 340.387C510.231 337.425 511.645 333.654 511.669 329.746C511.751 325.608 510.483 321.556 508.057 318.203V318.203Z" fill="#EF3F3F" stroke="black" stroke-width="2.676" stroke-miterlimit="10" stroke-linecap="round"/>
<path d="M483.321 337.006C483.027 337.285 482.796 337.624 482.642 337.999C482.489 338.374 482.416 338.777 482.429 339.183C482.435 339.589 482.527 339.99 482.701 340.358C482.875 340.726 483.126 341.052 483.437 341.314C486.762 344.113 490.964 345.654 495.31 345.667C494.422 343.047 493.823 340.337 493.526 337.586C493.092 334.007 493.319 330.379 494.195 326.882L488.789 331.957L483.321 337.006Z" fill="black" stroke="black" stroke-width="2.676" stroke-miterlimit="10" stroke-linecap="round"/>
<path d="M474.135 522.31C474.124 523.436 473.722 524.523 472.999 525.386C472.276 526.248 471.276 526.833 470.17 527.041C469.063 527.248 467.919 527.065 466.932 526.523C465.946 525.981 465.178 525.113 464.76 524.068C464.342 523.023 464.299 521.865 464.64 520.792C464.98 519.719 465.683 518.798 466.627 518.185C467.571 517.572 468.699 517.306 469.818 517.432C470.936 517.558 471.977 518.068 472.761 518.876C473.656 519.793 474.15 521.029 474.135 522.31V522.31Z" fill="black" stroke="black" stroke-width="2.676" stroke-miterlimit="10" stroke-linecap="round"/>
<path d="M466.088 615.542C466.089 616.342 465.893 617.13 465.516 617.836C465.14 618.542 464.595 619.144 463.931 619.589C463.266 620.034 462.502 620.308 461.706 620.387C460.909 620.466 460.106 620.347 459.367 620.041C458.628 619.735 457.976 619.251 457.468 618.633C456.961 618.014 456.614 617.28 456.458 616.496C456.303 615.711 456.343 614.9 456.576 614.135C456.808 613.369 457.226 612.673 457.792 612.108C458.472 611.43 459.338 610.968 460.28 610.781C461.222 610.594 462.199 610.69 463.086 611.057C463.974 611.425 464.732 612.047 465.267 612.845C465.801 613.643 466.087 614.582 466.088 615.542Z" fill="black" stroke="black" stroke-width="2.676" stroke-miterlimit="10" stroke-linecap="round"/>
<path d="M684.281 710.62C652.641 707.686 623.054 650.856 601.325 594.66C579.595 538.464 565.912 483.107 565.912 483.107L625.096 454.813L684.281 426.527L710.149 488.414L736.017 550.292" stroke="black" stroke-width="2.676" stroke-miterlimit="10" stroke-linecap="round"/>
<path d="M602.58 390.794L573.555 387.512L544.493 384.229C543.374 384.103 542.29 383.757 541.303 383.211C540.317 382.666 539.448 381.932 538.746 381.05C538.043 380.169 537.521 379.158 537.21 378.075C536.898 376.992 536.803 375.858 536.929 374.738L543.842 313.52L550.755 252.302C551.013 250.041 552.157 247.974 553.936 246.554C555.715 245.135 557.984 244.478 560.246 244.729L589.281 247.976L618.333 251.259C619.453 251.385 620.537 251.731 621.523 252.276C622.51 252.822 623.379 253.556 624.081 254.437C624.784 255.319 625.306 256.33 625.617 257.413C625.929 258.496 626.024 259.63 625.897 260.749L618.984 322.012L612.071 383.239C611.945 384.359 611.599 385.443 611.054 386.429C610.508 387.415 609.774 388.284 608.893 388.987C608.011 389.689 607 390.211 605.917 390.523C604.834 390.834 603.7 390.93 602.58 390.803V390.794Z" fill="#D1B7E5" stroke="black" stroke-width="2.676" stroke-miterlimit="10" stroke-linecap="round"/>
<path d="M612.429 274.326C612.435 275.705 611.964 277.045 611.094 278.115C610.224 279.186 609.01 279.923 607.659 280.199C606.307 280.476 604.901 280.276 603.681 279.633C602.46 278.99 601.5 277.944 600.964 276.673C600.427 275.402 600.348 273.984 600.739 272.661C601.13 271.338 601.968 270.192 603.109 269.417C604.25 268.642 605.625 268.286 606.999 268.41C608.373 268.534 609.661 269.131 610.645 270.098C611.207 270.65 611.654 271.308 611.96 272.033C612.266 272.759 612.425 273.538 612.429 274.326Z" fill="black" stroke="black" stroke-width="2.676" stroke-miterlimit="10" stroke-linecap="round"/>
<path d="M610.244 295.885C610.252 297.269 609.78 298.614 608.908 299.689C608.037 300.764 606.819 301.504 605.463 301.783C604.107 302.061 602.696 301.861 601.471 301.216C600.246 300.572 599.282 299.522 598.744 298.247C598.206 296.971 598.127 295.549 598.52 294.221C598.912 292.894 599.753 291.744 600.899 290.966C602.045 290.189 603.424 289.834 604.803 289.959C606.182 290.085 607.474 290.685 608.46 291.657C609.021 292.21 609.467 292.868 609.773 293.593C610.079 294.319 610.239 295.097 610.244 295.885Z" fill="black" stroke="black" stroke-width="2.676" stroke-miterlimit="10" stroke-linecap="round"/>
<path d="M626.541 273.549C627.105 272.9 627.767 272.343 628.503 271.899C629.225 271.469 630.026 271.187 630.858 271.07C631.288 271.025 631.722 271.025 632.152 271.07C633.192 271.176 634.203 271.478 635.131 271.962C639.591 274.281 641.919 282.157 643.105 289.463C643.836 294.101 644.253 298.782 644.354 303.476C644.454 314.305 645.349 325.113 647.03 335.811C648.618 346.23 650.821 356.8 653.372 369.047C653.372 369.047 653.756 370.831 656.45 379.582C659.144 388.332 664.183 403.969 673.46 431.728C668.965 433.869 664.46 436.018 659.946 438.177L646.406 444.662C635.482 449.919 624.596 455.178 613.75 460.441C602.903 465.704 592.107 470.979 581.361 476.265C567.375 459.317 555.493 444.153 546.234 431.915C536.975 419.677 530.276 410.231 526.664 404.656C525.054 402.054 523.644 399.335 522.445 396.521C520.411 391.748 518.511 385.594 519.082 380.019C519.21 378.757 519.421 377.506 519.715 376.272C519.974 375.184 520.259 374.283 520.491 373.596C518.972 372.067 517.672 370.335 516.629 368.449C514.666 365.016 513.774 361.074 514.069 357.13C514.252 354.909 514.816 352.737 515.737 350.707C516.362 349.332 517.134 348.028 518.038 346.818C517.308 345.681 516.741 344.447 516.352 343.152C515.531 340.554 515.518 337.768 516.315 335.163C517.111 332.557 518.679 330.254 520.812 328.559C521.957 327.6 523.242 326.821 524.621 326.249C523.753 323.989 523.552 321.528 524.041 319.157C524.485 316.919 525.632 314.882 527.315 313.342C529.337 311.58 531.939 310.627 534.62 310.666C537.486 310.676 540.264 311.661 542.497 313.458C542.845 313.734 543.176 314.032 543.487 314.35C543.808 314.671 544.102 315.01 544.379 315.358C547.033 318.51 549.916 321.461 553.005 324.188C556.849 327.58 561.007 330.599 565.421 333.206C574.717 338.648 584.991 342.209 595.66 343.687C602.562 344.665 609.555 344.836 616.497 344.196C618.281 329.986 619.12 322.547 619.583 318.658C620.047 314.769 620.056 314.439 620.056 314.439C620.368 309.64 620.779 305.162 621.385 299.783C621.992 294.404 622.768 288.187 623.82 279.811C623.957 278.654 624.257 277.521 624.712 276.448C625.167 275.393 625.784 274.414 626.541 273.549V273.549Z" fill="#FFC0C0" stroke="black" stroke-width="2.676" stroke-miterlimit="10" stroke-linecap="round"/>
<path d="M524.594 326.213C528.63 331.938 533.069 337.37 537.876 342.465C545.966 351.073 556.973 360.662 568.605 364.542" stroke="black" stroke-width="2.676" stroke-miterlimit="10" stroke-linecap="round"/>
<path d="M518.047 346.782C522.14 352.236 526.539 357.454 531.222 362.41C538.991 370.634 549.115 379.688 558.544 382.989" stroke="black" stroke-width="2.676" stroke-miterlimit="10" stroke-linecap="round"/>
<path d="M520.5 373.561C520.5 373.561 525.022 378.743 531.204 384.719C537.386 390.696 545.11 397.448 551.586 400.597" stroke="black" stroke-width="2.676" stroke-miterlimit="10" stroke-linecap="round"/>
<path d="M356.997 179.631H230.886C226.975 179.636 223.225 181.191 220.459 183.957C217.693 186.723 216.138 190.473 216.133 194.385V264.63C216.133 268.542 217.687 272.295 220.454 275.062C223.221 277.829 226.974 279.383 230.886 279.383H288.296L305.422 296.501L322.539 313.609L319.516 296.501L316.492 279.383H356.997C360.91 279.383 364.663 277.829 367.43 275.062C370.197 272.295 371.751 268.542 371.751 264.63V194.385C371.746 190.473 370.19 186.723 367.425 183.957C364.659 181.191 360.909 179.636 356.997 179.631Z" fill="#14AF6C" stroke="black" stroke-width="2.676" stroke-miterlimit="10" stroke-linecap="round"/>
<path d="M266.984 232.5C266.986 234.653 266.242 236.74 264.878 238.405C263.514 240.07 261.615 241.211 259.504 241.633C257.393 242.055 255.201 241.732 253.302 240.718C251.403 239.705 249.914 238.065 249.088 236.077C248.263 234.089 248.152 231.876 248.775 229.816C249.399 227.756 250.717 225.975 252.506 224.778C254.295 223.581 256.443 223.041 258.586 223.25C260.728 223.46 262.731 224.405 264.255 225.926C265.12 226.789 265.807 227.813 266.275 228.941C266.743 230.069 266.984 231.279 266.984 232.5V232.5Z" fill="#F7CE21" stroke="black" stroke-width="2.676" stroke-miterlimit="10" stroke-linecap="round"/>
<path d="M339.485 232.5C339.473 234.648 338.717 236.726 337.344 238.38C335.971 240.033 334.068 241.159 331.958 241.566C329.848 241.972 327.662 241.635 325.774 240.611C323.885 239.587 322.409 237.939 321.599 235.949C320.789 233.959 320.694 231.749 321.331 229.697C321.968 227.645 323.296 225.877 325.09 224.694C326.885 223.512 329.033 222.988 331.17 223.213C333.307 223.438 335.3 224.396 336.809 225.926C337.665 226.792 338.342 227.818 338.802 228.946C339.261 230.074 339.493 231.282 339.485 232.5V232.5Z" fill="#F7CE21" stroke="black" stroke-width="2.676" stroke-miterlimit="10" stroke-linecap="round"/>
<path d="M303.28 232.5C303.279 234.648 302.533 236.729 301.169 238.388C299.805 240.048 297.908 241.183 295.801 241.601C293.694 242.019 291.508 241.693 289.614 240.68C287.72 239.667 286.236 238.028 285.415 236.044C284.593 234.059 284.485 231.851 285.109 229.795C285.733 227.74 287.05 225.965 288.837 224.771C290.623 223.578 292.767 223.041 294.905 223.252C297.042 223.462 299.041 224.407 300.56 225.926C302.302 227.67 303.28 230.035 303.28 232.5V232.5Z" fill="#F7CE21" stroke="black" stroke-width="2.676" stroke-miterlimit="10" stroke-linecap="round"/>
<path d="M164.576 391.107C161.298 387.878 158.357 384.324 155.798 380.501C153.533 377.174 151.811 374.167 150.286 371.857C145.517 364.658 141.129 357.215 137.138 349.557C133.14 341.906 129.686 333.983 126.799 325.848C126.094 323.694 125.155 321.624 123.998 319.675C122.479 316.953 120.083 314.825 117.201 313.636C116.484 313.369 115.739 313.184 114.98 313.083C113.742 312.914 112.481 313.033 111.296 313.431C109.455 314.094 107.887 315.349 106.836 316.999C105.632 318.878 104.901 321.02 104.704 323.243C103.494 323.469 102.322 323.868 101.226 324.43C100.471 324.814 99.764 325.287 99.1206 325.839C96.9019 327.838 95.448 330.547 95.0084 333.501C94.4603 336.918 94.7668 340.418 95.9004 343.688C95.3972 343.949 94.9142 344.247 94.4554 344.58C94.0343 344.894 93.6377 345.24 93.269 345.615C88.8893 350.003 89.148 357.567 90.593 364.266C91.6535 368.896 93.1807 373.405 95.1512 377.727L96.614 380.902C97.0957 381.955 97.5863 383.016 98.068 384.078C97.6392 384.309 97.2278 384.571 96.837 384.863C96.3338 385.243 95.8678 385.67 95.4455 386.138C93.8667 387.922 92.1986 391.098 93.0371 397.859C93.8756 404.62 97.2295 414.95 105.668 430.997C111.76 442.483 118.555 453.583 126.014 464.233C137.745 480.971 150.558 496.924 164.37 511.99L209.693 471.61L255.114 431.255C240.074 400.589 227.158 374.23 217.757 355.034C208.355 335.838 202.486 323.796 201.513 321.727C201.382 321.446 201.236 321.172 201.076 320.906C199.846 318.808 198.062 317.089 195.92 315.938C194.48 315.189 192.852 314.879 191.237 315.046C190.715 315.105 190.2 315.221 189.703 315.394C188.739 315.7 187.844 316.194 187.072 316.848C184.396 319.122 183.798 322.298 184.057 325.58C184.461 328.804 185.237 331.971 186.367 335.018C189.863 345.506 192.573 356.239 194.475 367.13C196.679 380.884 196.696 394.603 189.498 399.063C188.259 399.794 186.872 400.239 185.439 400.366C184.036 400.486 182.624 400.486 181.22 400.366C178.688 400.192 176.222 399.481 173.986 398.278C170.512 396.366 167.341 393.949 164.576 391.107V391.107Z" fill="#FFC0C0" stroke="black" stroke-width="2.676" stroke-miterlimit="10" stroke-linecap="round"/>
<path d="M98.1191 384.113C98.1191 384.113 101.411 393.096 106.147 403.363C110.884 413.63 116.923 425.172 122.515 430.301" stroke="black" stroke-width="2.676" stroke-miterlimit="10" stroke-linecap="round"/>
<path d="M95.9258 343.715C95.9258 343.715 103.017 361.368 111.42 379.546C119.822 397.725 129.519 416.395 134.692 418.438" stroke="black" stroke-width="2.676" stroke-miterlimit="10" stroke-linecap="round"/>
<path d="M104.713 323.27C104.713 323.27 111.474 341.939 120.216 361.626C128.957 381.312 139.688 402.033 147.618 406.127" stroke="black" stroke-width="2.676" stroke-miterlimit="10" stroke-linecap="round"/>
<path d="M587.561 556.18V633.4V710.621H679.142C676.573 710.621 673.933 709.229 671.462 707.472C668.991 705.715 666.69 703.574 664.808 702.12C654.006 693.53 645.112 682.63 637.45 670.828C629.788 659.027 623.357 646.307 617.496 634.096C613.803 626.407 610.824 619.556 608.05 612.688C605.276 605.819 602.698 598.951 599.826 591.226C598.131 586.686 596.258 581.414 594.152 575.59C592.047 569.765 589.871 563.218 587.561 556.18Z" fill="black" stroke="black" stroke-width="2.676" stroke-miterlimit="10" stroke-linecap="round"/>
<circle cx="79" cy="112" r="5" fill="#99D6C3"/>
<circle cx="102" cy="112" r="5" fill="#99D6C3"/>
<circle cx="125" cy="112" r="5" fill="#99D6C3"/>
<circle cx="148" cy="112" r="5" fill="#99D6C3"/>
<circle cx="171" cy="112" r="5" fill="#99D6C3"/>
<circle cx="194" cy="112" r="5" fill="#99D6C3"/>
<circle cx="217" cy="112" r="5" fill="#99D6C3"/>
<circle cx="240" cy="112" r="5" fill="#99D6C3"/>
<circle cx="79" cy="135" r="5" fill="#99D6C3"/>
<circle cx="102" cy="135" r="5" fill="#99D6C3"/>
<circle cx="125" cy="135" r="5" fill="#99D6C3"/>
<circle cx="148" cy="135" r="5" fill="#99D6C3"/>
<circle cx="171" cy="135" r="5" fill="#99D6C3"/>
<circle cx="194" cy="135" r="5" fill="#99D6C3"/>
<circle cx="217" cy="135" r="5" fill="#99D6C3"/>
<circle cx="240" cy="135" r="5" fill="#99D6C3"/>
<circle cx="79" cy="158" r="5" fill="#99D6C3"/>
<circle cx="102" cy="158" r="5" fill="#99D6C3"/>
<circle cx="125" cy="158" r="5" fill="#99D6C3"/>
<circle cx="148" cy="158" r="5" fill="#99D6C3"/>
<circle cx="171" cy="158" r="5" fill="#99D6C3"/>
<circle cx="194" cy="158" r="5" fill="#99D6C3"/>
<circle cx="217" cy="158" r="5" fill="#99D6C3"/>
<circle cx="240" cy="158" r="5" fill="#99D6C3"/>
<circle cx="79" cy="181" r="5" fill="#99D6C3"/>
<circle cx="102" cy="181" r="5" fill="#99D6C3"/>
<circle cx="125" cy="181" r="5" fill="#99D6C3"/>
<circle cx="148" cy="181" r="5" fill="#99D6C3"/>
<circle cx="171" cy="181" r="5" fill="#99D6C3"/>
<circle cx="194" cy="181" r="5" fill="#99D6C3"/>
<circle cx="217" cy="181" r="5" fill="#99D6C3"/>
<circle cx="240" cy="181" r="5" fill="#99D6C3"/>
<g filter="url(#filter0_d_1866_19961)">
<rect x="756.971" y="668" width="146" height="391.97" rx="14.3842" transform="rotate(90 756.971 668)" fill="white"/>
</g>
<path d="M523.665 757.15C522.845 757.15 522.06 757.035 521.31 756.805C520.56 756.565 519.965 756.26 519.525 755.89L520.2 754.375C520.62 754.705 521.14 754.98 521.76 755.2C522.38 755.42 523.015 755.53 523.665 755.53C524.215 755.53 524.66 755.47 525 755.35C525.34 755.23 525.59 755.07 525.75 754.87C525.91 754.66 525.99 754.425 525.99 754.165C525.99 753.845 525.875 753.59 525.645 753.4C525.415 753.2 525.115 753.045 524.745 752.935C524.385 752.815 523.98 752.705 523.53 752.605C523.09 752.505 522.645 752.39 522.195 752.26C521.755 752.12 521.35 751.945 520.98 751.735C520.62 751.515 520.325 751.225 520.095 750.865C519.865 750.505 519.75 750.045 519.75 749.485C519.75 748.915 519.9 748.395 520.2 747.925C520.51 747.445 520.975 747.065 521.595 746.785C522.225 746.495 523.02 746.35 523.98 746.35C524.61 746.35 525.235 746.43 525.855 746.59C526.475 746.75 527.015 746.98 527.475 747.28L526.86 748.795C526.39 748.515 525.905 748.31 525.405 748.18C524.905 748.04 524.425 747.97 523.965 747.97C523.425 747.97 522.985 748.035 522.645 748.165C522.315 748.295 522.07 748.465 521.91 748.675C521.76 748.885 521.685 749.125 521.685 749.395C521.685 749.715 521.795 749.975 522.015 750.175C522.245 750.365 522.54 750.515 522.9 750.625C523.27 750.735 523.68 750.845 524.13 750.955C524.58 751.055 525.025 751.17 525.465 751.3C525.915 751.43 526.32 751.6 526.68 751.81C527.05 752.02 527.345 752.305 527.565 752.665C527.795 753.025 527.91 753.48 527.91 754.03C527.91 754.59 527.755 755.11 527.445 755.59C527.145 756.06 526.68 756.44 526.05 756.73C525.42 757.01 524.625 757.15 523.665 757.15ZM529.364 757V748.99H531.239V757H529.364ZM530.309 747.67C529.959 747.67 529.669 747.56 529.439 747.34C529.219 747.12 529.109 746.855 529.109 746.545C529.109 746.225 529.219 745.96 529.439 745.75C529.669 745.53 529.959 745.42 530.309 745.42C530.659 745.42 530.944 745.525 531.164 745.735C531.394 745.935 531.509 746.19 531.509 746.5C531.509 746.83 531.399 747.11 531.179 747.34C530.959 747.56 530.669 747.67 530.309 747.67ZM536.415 757.105C535.535 757.105 534.855 756.88 534.375 756.43C533.895 755.97 533.655 755.295 533.655 754.405V747.22H535.53V754.36C535.53 754.74 535.625 755.035 535.815 755.245C536.015 755.455 536.29 755.56 536.64 755.56C537.06 755.56 537.41 755.45 537.69 755.23L538.215 756.565C537.995 756.745 537.725 756.88 537.405 756.97C537.085 757.06 536.755 757.105 536.415 757.105ZM532.335 750.55V749.05H537.675V750.55H532.335ZM548.237 757V755.38L548.132 755.035V752.2C548.132 751.65 547.967 751.225 547.637 750.925C547.307 750.615 546.807 750.46 546.137 750.46C545.687 750.46 545.242 750.53 544.802 750.67C544.372 750.81 544.007 751.005 543.707 751.255L542.972 749.89C543.402 749.56 543.912 749.315 544.502 749.155C545.102 748.985 545.722 748.9 546.362 748.9C547.522 748.9 548.417 749.18 549.047 749.74C549.687 750.29 550.007 751.145 550.007 752.305V757H548.237ZM545.717 757.105C545.117 757.105 544.592 757.005 544.142 756.805C543.692 756.595 543.342 756.31 543.092 755.95C542.852 755.58 542.732 755.165 542.732 754.705C542.732 754.255 542.837 753.85 543.047 753.49C543.267 753.13 543.622 752.845 544.112 752.635C544.602 752.425 545.252 752.32 546.062 752.32H548.387V753.565H546.197C545.557 753.565 545.127 753.67 544.907 753.88C544.687 754.08 544.577 754.33 544.577 754.63C544.577 754.97 544.712 755.24 544.982 755.44C545.252 755.64 545.627 755.74 546.107 755.74C546.567 755.74 546.977 755.635 547.337 755.425C547.707 755.215 547.972 754.905 548.132 754.495L548.447 755.62C548.267 756.09 547.942 756.455 547.472 756.715C547.012 756.975 546.427 757.105 545.717 757.105ZM556.659 748.9C557.299 748.9 557.869 749.025 558.369 749.275C558.879 749.525 559.279 749.91 559.569 750.43C559.859 750.94 560.004 751.6 560.004 752.41V757H558.129V752.65C558.129 751.94 557.959 751.41 557.619 751.06C557.289 750.71 556.824 750.535 556.224 750.535C555.784 750.535 555.394 750.625 555.054 750.805C554.714 750.985 554.449 751.255 554.259 751.615C554.079 751.965 553.989 752.41 553.989 752.95V757H552.114V748.99H553.899V751.15L553.584 750.49C553.864 749.98 554.269 749.59 554.799 749.32C555.339 749.04 555.959 748.9 556.659 748.9ZM565.487 757.105C564.717 757.105 564.022 756.935 563.402 756.595C562.792 756.245 562.312 755.765 561.962 755.155C561.612 754.545 561.437 753.825 561.437 752.995C561.437 752.165 561.612 751.445 561.962 750.835C562.312 750.225 562.792 749.75 563.402 749.41C564.022 749.07 564.717 748.9 565.487 748.9C566.157 748.9 566.757 749.05 567.287 749.35C567.817 749.64 568.237 750.085 568.547 750.685C568.857 751.285 569.012 752.055 569.012 752.995C569.012 753.925 568.862 754.695 568.562 755.305C568.262 755.905 567.847 756.355 567.317 756.655C566.787 756.955 566.177 757.105 565.487 757.105ZM565.712 755.5C566.162 755.5 566.562 755.4 566.912 755.2C567.272 755 567.557 754.71 567.767 754.33C567.987 753.95 568.097 753.505 568.097 752.995C568.097 752.475 567.987 752.03 567.767 751.66C567.557 751.28 567.272 750.99 566.912 750.79C566.562 750.59 566.162 750.49 565.712 750.49C565.262 750.49 564.857 750.59 564.497 750.79C564.147 750.99 563.862 751.28 563.642 751.66C563.432 752.03 563.327 752.475 563.327 752.995C563.327 753.505 563.432 753.95 563.642 754.33C563.862 754.71 564.147 755 564.497 755.2C564.857 755.4 565.262 755.5 565.712 755.5ZM568.142 757V755.11L568.217 752.98L568.067 750.85V745.87H569.927V757H568.142ZM575.94 757V748.99H577.725V751.195L577.515 750.55C577.755 750.01 578.13 749.6 578.64 749.32C579.16 749.04 579.805 748.9 580.575 748.9V750.685C580.495 750.665 580.42 750.655 580.35 750.655C580.28 750.645 580.21 750.64 580.14 750.64C579.43 750.64 578.865 750.85 578.445 751.27C578.025 751.68 577.815 752.295 577.815 753.115V757H575.94ZM585.558 757.105C584.668 757.105 583.888 756.93 583.218 756.58C582.558 756.22 582.043 755.73 581.673 755.11C581.313 754.49 581.133 753.785 581.133 752.995C581.133 752.195 581.308 751.49 581.658 750.88C582.018 750.26 582.508 749.775 583.128 749.425C583.758 749.075 584.473 748.9 585.273 748.9C586.053 748.9 586.748 749.07 587.358 749.41C587.968 749.75 588.448 750.23 588.798 750.85C589.148 751.47 589.323 752.2 589.323 753.04C589.323 753.12 589.318 753.21 589.308 753.31C589.308 753.41 589.303 753.505 589.293 753.595H582.618V752.35H588.303L587.568 752.74C587.578 752.28 587.483 751.875 587.283 751.525C587.083 751.175 586.808 750.9 586.458 750.7C586.118 750.5 585.723 750.4 585.273 750.4C584.813 750.4 584.408 750.5 584.058 750.7C583.718 750.9 583.448 751.18 583.248 751.54C583.058 751.89 582.963 752.305 582.963 752.785V753.085C582.963 753.565 583.073 753.99 583.293 754.36C583.513 754.73 583.823 755.015 584.223 755.215C584.623 755.415 585.083 755.515 585.603 755.515C586.053 755.515 586.458 755.445 586.818 755.305C587.178 755.165 587.498 754.945 587.778 754.645L588.783 755.8C588.423 756.22 587.968 756.545 587.418 756.775C586.878 756.995 586.258 757.105 585.558 757.105ZM590.824 757V745.87H592.699V757H590.824ZM598.625 757.105C597.735 757.105 596.955 756.93 596.285 756.58C595.625 756.22 595.11 755.73 594.74 755.11C594.38 754.49 594.2 753.785 594.2 752.995C594.2 752.195 594.375 751.49 594.725 750.88C595.085 750.26 595.575 749.775 596.195 749.425C596.825 749.075 597.54 748.9 598.34 748.9C599.12 748.9 599.815 749.07 600.425 749.41C601.035 749.75 601.515 750.23 601.865 750.85C602.215 751.47 602.39 752.2 602.39 753.04C602.39 753.12 602.385 753.21 602.375 753.31C602.375 753.41 602.37 753.505 602.36 753.595H595.685V752.35H601.37L600.635 752.74C600.645 752.28 600.55 751.875 600.35 751.525C600.15 751.175 599.875 750.9 599.525 750.7C599.185 750.5 598.79 750.4 598.34 750.4C597.88 750.4 597.475 750.5 597.125 750.7C596.785 750.9 596.515 751.18 596.315 751.54C596.125 751.89 596.03 752.305 596.03 752.785V753.085C596.03 753.565 596.14 753.99 596.36 754.36C596.58 754.73 596.89 755.015 597.29 755.215C597.69 755.415 598.15 755.515 598.67 755.515C599.12 755.515 599.525 755.445 599.885 755.305C600.245 755.165 600.565 754.945 600.845 754.645L601.85 755.8C601.49 756.22 601.035 756.545 600.485 756.775C599.945 756.995 599.325 757.105 598.625 757.105ZM602.576 757L606.101 752.41L606.071 753.415L602.711 748.99H604.796L607.151 752.14H606.356L608.726 748.99H610.751L607.361 753.415L607.376 752.41L610.886 757H608.771L606.296 753.655L607.076 753.76L604.646 757H602.576ZM611.475 759.265L612.345 755.95L612.6 757.06C612.25 757.06 611.955 756.955 611.715 756.745C611.485 756.525 611.37 756.23 611.37 755.86C611.37 755.48 611.485 755.18 611.715 754.96C611.955 754.73 612.245 754.615 612.585 754.615C612.935 754.615 613.225 754.73 613.455 754.96C613.685 755.19 613.8 755.49 613.8 755.86C613.8 755.96 613.79 756.07 613.77 756.19C613.75 756.3 613.715 756.43 613.665 756.58C613.625 756.73 613.555 756.92 613.455 757.15L612.69 759.265H611.475ZM620.947 757L618.007 748.99H619.777L622.297 756.055H621.457L624.097 748.99H625.672L628.237 756.055H627.412L630.007 748.99H631.672L628.717 757H626.917L624.577 750.745H625.132L622.747 757H620.947ZM636.207 757.105C635.317 757.105 634.537 756.93 633.867 756.58C633.207 756.22 632.692 755.73 632.322 755.11C631.962 754.49 631.782 753.785 631.782 752.995C631.782 752.195 631.957 751.49 632.307 750.88C632.667 750.26 633.157 749.775 633.777 749.425C634.407 749.075 635.122 748.9 635.922 748.9C636.702 748.9 637.397 749.07 638.007 749.41C638.617 749.75 639.097 750.23 639.447 750.85C639.797 751.47 639.972 752.2 639.972 753.04C639.972 753.12 639.967 753.21 639.957 753.31C639.957 753.41 639.952 753.505 639.942 753.595H633.267V752.35H638.952L638.217 752.74C638.227 752.28 638.132 751.875 637.932 751.525C637.732 751.175 637.457 750.9 637.107 750.7C636.767 750.5 636.372 750.4 635.922 750.4C635.462 750.4 635.057 750.5 634.707 750.7C634.367 750.9 634.097 751.18 633.897 751.54C633.707 751.89 633.612 752.305 633.612 752.785V753.085C633.612 753.565 633.722 753.99 633.942 754.36C634.162 754.73 634.472 755.015 634.872 755.215C635.272 755.415 635.732 755.515 636.252 755.515C636.702 755.515 637.107 755.445 637.467 755.305C637.827 755.165 638.147 754.945 638.427 754.645L639.432 755.8C639.072 756.22 638.617 756.545 638.067 756.775C637.527 756.995 636.907 757.105 636.207 757.105ZM647.088 757L644.148 748.99H645.918L648.438 756.055H647.598L650.238 748.99H651.813L654.378 756.055H653.553L656.148 748.99H657.813L654.858 757H653.058L650.718 750.745H651.273L648.888 757H647.088ZM658.802 757V748.99H660.677V757H658.802ZM659.747 747.67C659.397 747.67 659.107 747.56 658.877 747.34C658.657 747.12 658.547 746.855 658.547 746.545C658.547 746.225 658.657 745.96 658.877 745.75C659.107 745.53 659.397 745.42 659.747 745.42C660.097 745.42 660.382 745.525 660.602 745.735C660.832 745.935 660.947 746.19 660.947 746.5C660.947 746.83 660.837 747.11 660.617 747.34C660.397 747.56 660.107 747.67 659.747 747.67ZM662.838 757V745.87H664.713V757H662.838ZM666.874 757V745.87H668.749V757H666.874ZM679.301 748.9C679.941 748.9 680.511 749.025 681.011 749.275C681.521 749.525 681.921 749.91 682.211 750.43C682.501 750.94 682.646 751.6 682.646 752.41V757H680.771V752.65C680.771 751.94 680.601 751.41 680.261 751.06C679.931 750.71 679.466 750.535 678.866 750.535C678.426 750.535 678.036 750.625 677.696 750.805C677.356 750.985 677.091 751.255 676.901 751.615C676.721 751.965 676.631 752.41 676.631 752.95V757H674.756V745.87H676.631V751.15L676.226 750.49C676.506 749.98 676.911 749.59 677.441 749.32C677.981 749.04 678.601 748.9 679.301 748.9ZM688.504 757.105C687.614 757.105 686.834 756.93 686.164 756.58C685.504 756.22 684.989 755.73 684.619 755.11C684.259 754.49 684.079 753.785 684.079 752.995C684.079 752.195 684.254 751.49 684.604 750.88C684.964 750.26 685.454 749.775 686.074 749.425C686.704 749.075 687.419 748.9 688.219 748.9C688.999 748.9 689.694 749.07 690.304 749.41C690.914 749.75 691.394 750.23 691.744 750.85C692.094 751.47 692.269 752.2 692.269 753.04C692.269 753.12 692.264 753.21 692.254 753.31C692.254 753.41 692.249 753.505 692.239 753.595H685.564V752.35H691.249L690.514 752.74C690.524 752.28 690.429 751.875 690.229 751.525C690.029 751.175 689.754 750.9 689.404 750.7C689.064 750.5 688.669 750.4 688.219 750.4C687.759 750.4 687.354 750.5 687.004 750.7C686.664 750.9 686.394 751.18 686.194 751.54C686.004 751.89 685.909 752.305 685.909 752.785V753.085C685.909 753.565 686.019 753.99 686.239 754.36C686.459 754.73 686.769 755.015 687.169 755.215C687.569 755.415 688.029 755.515 688.549 755.515C688.999 755.515 689.404 755.445 689.764 755.305C690.124 755.165 690.444 754.945 690.724 754.645L691.729 755.8C691.369 756.22 690.914 756.545 690.364 756.775C689.824 756.995 689.204 757.105 688.504 757.105ZM693.77 757V745.87H695.645V757H693.77ZM702.246 757.105C701.596 757.105 701.001 756.955 700.461 756.655C699.931 756.355 699.506 755.905 699.186 755.305C698.876 754.695 698.721 753.925 698.721 752.995C698.721 752.055 698.871 751.285 699.171 750.685C699.481 750.085 699.901 749.64 700.431 749.35C700.961 749.05 701.566 748.9 702.246 748.9C703.036 748.9 703.731 749.07 704.331 749.41C704.941 749.75 705.421 750.225 705.771 750.835C706.131 751.445 706.311 752.165 706.311 752.995C706.311 753.825 706.131 754.55 705.771 755.17C705.421 755.78 704.941 756.255 704.331 756.595C703.731 756.935 703.036 757.105 702.246 757.105ZM697.806 759.91V748.99H699.591V750.88L699.531 753.01L699.681 755.14V759.91H697.806ZM702.036 755.5C702.486 755.5 702.886 755.4 703.236 755.2C703.596 755 703.881 754.71 704.091 754.33C704.301 753.95 704.406 753.505 704.406 752.995C704.406 752.475 704.301 752.03 704.091 751.66C703.881 751.28 703.596 750.99 703.236 750.79C702.886 750.59 702.486 750.49 702.036 750.49C701.586 750.49 701.181 750.59 700.821 750.79C700.461 750.99 700.176 751.28 699.966 751.66C699.756 752.03 699.651 752.475 699.651 752.995C699.651 753.505 699.756 753.95 699.966 754.33C700.176 754.71 700.461 755 700.821 755.2C701.181 755.4 701.586 755.5 702.036 755.5ZM520.89 778.015C520.5 778.015 520.11 777.95 519.72 777.82C519.33 777.69 519.005 777.51 518.745 777.28L519.495 775.9C519.685 776.07 519.9 776.205 520.14 776.305C520.38 776.405 520.625 776.455 520.875 776.455C521.215 776.455 521.49 776.37 521.7 776.2C521.91 776.03 522.105 775.745 522.285 775.345L522.75 774.295L522.9 774.07L525.93 766.99H527.73L523.98 775.645C523.73 776.245 523.45 776.72 523.14 777.07C522.84 777.42 522.5 777.665 522.12 777.805C521.75 777.945 521.34 778.015 520.89 778.015ZM522.54 775.285L518.925 766.99H520.875L523.815 773.905L522.54 775.285ZM531.982 775.105C531.162 775.105 530.432 774.93 529.792 774.58C529.152 774.22 528.647 773.73 528.277 773.11C527.907 772.49 527.722 771.785 527.722 770.995C527.722 770.195 527.907 769.49 528.277 768.88C528.647 768.26 529.152 767.775 529.792 767.425C530.432 767.075 531.162 766.9 531.982 766.9C532.812 766.9 533.547 767.075 534.187 767.425C534.837 767.775 535.342 768.255 535.702 768.865C536.072 769.475 536.257 770.185 536.257 770.995C536.257 771.785 536.072 772.49 535.702 773.11C535.342 773.73 534.837 774.22 534.187 774.58C533.547 774.93 532.812 775.105 531.982 775.105ZM531.982 773.5C532.442 773.5 532.852 773.4 533.212 773.2C533.572 773 533.852 772.71 534.052 772.33C534.262 771.95 534.367 771.505 534.367 770.995C534.367 770.475 534.262 770.03 534.052 769.66C533.852 769.28 533.572 768.99 533.212 768.79C532.852 768.59 532.447 768.49 531.997 768.49C531.537 768.49 531.127 768.59 530.767 768.79C530.417 768.99 530.137 769.28 529.927 769.66C529.717 770.03 529.612 770.475 529.612 770.995C529.612 771.505 529.717 771.95 529.927 772.33C530.137 772.71 530.417 773 530.767 773.2C531.127 773.4 531.532 773.5 531.982 773.5ZM541.14 775.105C540.46 775.105 539.86 774.98 539.34 774.73C538.82 774.47 538.415 774.08 538.125 773.56C537.835 773.03 537.69 772.365 537.69 771.565V766.99H539.565V771.31C539.565 772.03 539.725 772.57 540.045 772.93C540.375 773.28 540.84 773.455 541.44 773.455C541.88 773.455 542.26 773.365 542.58 773.185C542.91 773.005 543.165 772.735 543.345 772.375C543.535 772.015 543.63 771.57 543.63 771.04V766.99H545.505V775H543.72V772.84L544.035 773.5C543.765 774.02 543.37 774.42 542.85 774.7C542.33 774.97 541.76 775.105 541.14 775.105ZM555.136 778.015C554.396 778.015 553.671 777.915 552.961 777.715C552.261 777.525 551.686 777.245 551.236 776.875L552.076 775.465C552.426 775.755 552.866 775.985 553.396 776.155C553.936 776.335 554.481 776.425 555.031 776.425C555.911 776.425 556.556 776.22 556.966 775.81C557.376 775.41 557.581 774.805 557.581 773.995V772.57L557.731 770.755L557.671 768.94V766.99H559.456V773.785C559.456 775.235 559.086 776.3 558.346 776.98C557.606 777.67 556.536 778.015 555.136 778.015ZM554.896 774.64C554.136 774.64 553.446 774.48 552.826 774.16C552.216 773.83 551.731 773.375 551.371 772.795C551.021 772.215 550.846 771.535 550.846 770.755C550.846 769.985 551.021 769.31 551.371 768.73C551.731 768.15 552.216 767.7 552.826 767.38C553.446 767.06 554.136 766.9 554.896 766.9C555.576 766.9 556.186 767.035 556.726 767.305C557.266 767.575 557.696 767.995 558.016 768.565C558.346 769.135 558.511 769.865 558.511 770.755C558.511 771.645 558.346 772.38 558.016 772.96C557.696 773.53 557.266 773.955 556.726 774.235C556.186 774.505 555.576 774.64 554.896 774.64ZM555.181 773.05C555.651 773.05 556.071 772.955 556.441 772.765C556.811 772.565 557.096 772.295 557.296 771.955C557.506 771.605 557.611 771.205 557.611 770.755C557.611 770.305 557.506 769.91 557.296 769.57C557.096 769.22 556.811 768.955 556.441 768.775C556.071 768.585 555.651 768.49 555.181 768.49C554.711 768.49 554.286 768.585 553.906 768.775C553.536 768.955 553.246 769.22 553.036 769.57C552.836 769.91 552.736 770.305 552.736 770.755C552.736 771.205 552.836 771.605 553.036 771.955C553.246 772.295 553.536 772.565 553.906 772.765C554.286 772.955 554.711 773.05 555.181 773.05ZM565.386 775.105C564.496 775.105 563.716 774.93 563.046 774.58C562.386 774.22 561.871 773.73 561.501 773.11C561.141 772.49 560.961 771.785 560.961 770.995C560.961 770.195 561.136 769.49 561.486 768.88C561.846 768.26 562.336 767.775 562.956 767.425C563.586 767.075 564.301 766.9 565.101 766.9C565.881 766.9 566.576 767.07 567.186 767.41C567.796 767.75 568.276 768.23 568.626 768.85C568.976 769.47 569.151 770.2 569.151 771.04C569.151 771.12 569.146 771.21 569.136 771.31C569.136 771.41 569.131 771.505 569.121 771.595H562.446V770.35H568.131L567.396 770.74C567.406 770.28 567.311 769.875 567.111 769.525C566.911 769.175 566.636 768.9 566.286 768.7C565.946 768.5 565.551 768.4 565.101 768.4C564.641 768.4 564.236 768.5 563.886 768.7C563.546 768.9 563.276 769.18 563.076 769.54C562.886 769.89 562.791 770.305 562.791 770.785V771.085C562.791 771.565 562.901 771.99 563.121 772.36C563.341 772.73 563.651 773.015 564.051 773.215C564.451 773.415 564.911 773.515 565.431 773.515C565.881 773.515 566.286 773.445 566.646 773.305C567.006 773.165 567.326 772.945 567.606 772.645L568.611 773.8C568.251 774.22 567.796 774.545 567.246 774.775C566.706 774.995 566.086 775.105 565.386 775.105ZM573.667 775.105C572.787 775.105 572.107 774.88 571.627 774.43C571.147 773.97 570.907 773.295 570.907 772.405V765.22H572.782V772.36C572.782 772.74 572.877 773.035 573.067 773.245C573.267 773.455 573.542 773.56 573.892 773.56C574.312 773.56 574.662 773.45 574.942 773.23L575.467 774.565C575.247 774.745 574.977 774.88 574.657 774.97C574.337 775.06 574.007 775.105 573.667 775.105ZM569.587 768.55V767.05H574.927V768.55H569.587ZM582.685 775L579.25 766.99H581.2L584.155 774.055H583.195L586.255 766.99H588.055L584.62 775H582.685ZM588.926 775V766.99H590.801V775H588.926ZM589.871 765.67C589.521 765.67 589.231 765.56 589.001 765.34C588.781 765.12 588.671 764.855 588.671 764.545C588.671 764.225 588.781 763.96 589.001 763.75C589.231 763.53 589.521 763.42 589.871 763.42C590.221 763.42 590.506 763.525 590.726 763.735C590.956 763.935 591.071 764.19 591.071 764.5C591.071 764.83 590.961 765.11 590.741 765.34C590.521 765.56 590.231 765.67 589.871 765.67ZM595.437 775.105C594.767 775.105 594.122 775.02 593.502 774.85C592.892 774.67 592.407 774.455 592.047 774.205L592.767 772.78C593.127 773.01 593.557 773.2 594.057 773.35C594.557 773.5 595.057 773.575 595.557 773.575C596.147 773.575 596.572 773.495 596.832 773.335C597.102 773.175 597.237 772.96 597.237 772.69C597.237 772.47 597.147 772.305 596.967 772.195C596.787 772.075 596.552 771.985 596.262 771.925C595.972 771.865 595.647 771.81 595.287 771.76C594.937 771.71 594.582 771.645 594.222 771.565C593.872 771.475 593.552 771.35 593.262 771.19C592.972 771.02 592.737 770.795 592.557 770.515C592.377 770.235 592.287 769.865 592.287 769.405C592.287 768.895 592.432 768.455 592.722 768.085C593.012 767.705 593.417 767.415 593.937 767.215C594.467 767.005 595.092 766.9 595.812 766.9C596.352 766.9 596.897 766.96 597.447 767.08C597.997 767.2 598.452 767.37 598.812 767.59L598.092 769.015C597.712 768.785 597.327 768.63 596.937 768.55C596.557 768.46 596.177 768.415 595.797 768.415C595.227 768.415 594.802 768.5 594.522 768.67C594.252 768.84 594.117 769.055 594.117 769.315C594.117 769.555 594.207 769.735 594.387 769.855C594.567 769.975 594.802 770.07 595.092 770.14C595.382 770.21 595.702 770.27 596.052 770.32C596.412 770.36 596.767 770.425 597.117 770.515C597.467 770.605 597.787 770.73 598.077 770.89C598.377 771.04 598.617 771.255 598.797 771.535C598.977 771.815 599.067 772.18 599.067 772.63C599.067 773.13 598.917 773.565 598.617 773.935C598.327 774.305 597.912 774.595 597.372 774.805C596.832 775.005 596.187 775.105 595.437 775.105ZM605.317 775V773.38L605.212 773.035V770.2C605.212 769.65 605.047 769.225 604.717 768.925C604.387 768.615 603.887 768.46 603.217 768.46C602.767 768.46 602.322 768.53 601.882 768.67C601.452 768.81 601.087 769.005 600.787 769.255L600.052 767.89C600.482 767.56 600.992 767.315 601.582 767.155C602.182 766.985 602.802 766.9 603.442 766.9C604.602 766.9 605.497 767.18 606.127 767.74C606.767 768.29 607.087 769.145 607.087 770.305V775H605.317ZM602.797 775.105C602.197 775.105 601.672 775.005 601.222 774.805C600.772 774.595 600.422 774.31 600.172 773.95C599.932 773.58 599.812 773.165 599.812 772.705C599.812 772.255 599.917 771.85 600.127 771.49C600.347 771.13 600.702 770.845 601.192 770.635C601.682 770.425 602.332 770.32 603.142 770.32H605.467V771.565H603.277C602.637 771.565 602.207 771.67 601.987 771.88C601.767 772.08 601.657 772.33 601.657 772.63C601.657 772.97 601.792 773.24 602.062 773.44C602.332 773.64 602.707 773.74 603.187 773.74C603.647 773.74 604.057 773.635 604.417 773.425C604.787 773.215 605.052 772.905 605.212 772.495L605.527 773.62C605.347 774.09 605.022 774.455 604.552 774.715C604.092 774.975 603.507 775.105 602.797 775.105Z" fill="#757575"/>
<circle cx="430" cy="741" r="40" fill="#EEE6FE"/>
<circle cx="430" cy="741" r="22.3729" fill="#C2A4FE"/>
<path d="M415.764 738.966C427.152 746.362 433.73 746.032 445.594 738.966" stroke="#5B0FF7" stroke-width="2.71186" stroke-linecap="round"/>
<path d="M525.446 726L518.802 710.6H522.652L528.46 724.24H526.194L532.09 710.6H535.632L528.966 726H525.446ZM536.429 726V714.164H539.861V726H536.429ZM538.145 712.514C537.514 712.514 537.001 712.331 536.605 711.964C536.209 711.597 536.011 711.143 536.011 710.6C536.011 710.057 536.209 709.603 536.605 709.236C537.001 708.869 537.514 708.686 538.145 708.686C538.776 708.686 539.289 708.862 539.685 709.214C540.081 709.551 540.279 709.991 540.279 710.534C540.279 711.106 540.081 711.583 539.685 711.964C539.304 712.331 538.79 712.514 538.145 712.514ZM546.588 726.176C545.576 726.176 544.601 726.059 543.662 725.824C542.738 725.575 542.005 725.267 541.462 724.9L542.606 722.436C543.149 722.773 543.787 723.052 544.52 723.272C545.268 723.477 546.002 723.58 546.72 723.58C547.512 723.58 548.07 723.485 548.392 723.294C548.73 723.103 548.898 722.839 548.898 722.502C548.898 722.223 548.766 722.018 548.502 721.886C548.253 721.739 547.916 721.629 547.49 721.556C547.065 721.483 546.596 721.409 546.082 721.336C545.584 721.263 545.078 721.167 544.564 721.05C544.051 720.918 543.582 720.727 543.156 720.478C542.731 720.229 542.386 719.891 542.122 719.466C541.873 719.041 541.748 718.491 541.748 717.816C541.748 717.068 541.961 716.408 542.386 715.836C542.826 715.264 543.457 714.817 544.278 714.494C545.1 714.157 546.082 713.988 547.226 713.988C548.033 713.988 548.854 714.076 549.69 714.252C550.526 714.428 551.223 714.685 551.78 715.022L550.636 717.464C550.064 717.127 549.485 716.899 548.898 716.782C548.326 716.65 547.769 716.584 547.226 716.584C546.464 716.584 545.906 716.687 545.554 716.892C545.202 717.097 545.026 717.361 545.026 717.684C545.026 717.977 545.151 718.197 545.4 718.344C545.664 718.491 546.009 718.608 546.434 718.696C546.86 718.784 547.322 718.865 547.82 718.938C548.334 718.997 548.847 719.092 549.36 719.224C549.874 719.356 550.336 719.547 550.746 719.796C551.172 720.031 551.516 720.361 551.78 720.786C552.044 721.197 552.176 721.739 552.176 722.414C552.176 723.147 551.956 723.8 551.516 724.372C551.076 724.929 550.438 725.369 549.602 725.692C548.781 726.015 547.776 726.176 546.588 726.176ZM561.114 726V723.69L560.894 723.184V719.048C560.894 718.315 560.667 717.743 560.212 717.332C559.772 716.921 559.09 716.716 558.166 716.716C557.535 716.716 556.912 716.819 556.296 717.024C555.695 717.215 555.181 717.479 554.756 717.816L553.524 715.418C554.169 714.963 554.947 714.611 555.856 714.362C556.765 714.113 557.689 713.988 558.628 713.988C560.432 713.988 561.833 714.413 562.83 715.264C563.827 716.115 564.326 717.442 564.326 719.246V726H561.114ZM557.506 726.176C556.582 726.176 555.79 726.022 555.13 725.714C554.47 725.391 553.964 724.959 553.612 724.416C553.26 723.873 553.084 723.265 553.084 722.59C553.084 721.886 553.253 721.27 553.59 720.742C553.942 720.214 554.492 719.803 555.24 719.51C555.988 719.202 556.963 719.048 558.166 719.048H561.312V721.05H558.54C557.733 721.05 557.176 721.182 556.868 721.446C556.575 721.71 556.428 722.04 556.428 722.436C556.428 722.876 556.597 723.228 556.934 723.492C557.286 723.741 557.763 723.866 558.364 723.866C558.936 723.866 559.449 723.734 559.904 723.47C560.359 723.191 560.689 722.788 560.894 722.26L561.422 723.844C561.173 724.607 560.718 725.186 560.058 725.582C559.398 725.978 558.547 726.176 557.506 726.176ZM583.584 710.6H587.148V726H583.584V710.6ZM576.588 726H573.024V710.6H576.588V726ZM583.848 719.686H576.324V716.672H583.848V719.686ZM595.984 726.176C594.635 726.176 593.447 725.912 592.42 725.384C591.408 724.856 590.623 724.137 590.066 723.228C589.509 722.304 589.23 721.255 589.23 720.082C589.23 718.894 589.501 717.845 590.044 716.936C590.601 716.012 591.357 715.293 592.31 714.78C593.263 714.252 594.341 713.988 595.544 713.988C596.703 713.988 597.744 714.237 598.668 714.736C599.607 715.22 600.347 715.924 600.89 716.848C601.433 717.757 601.704 718.85 601.704 720.126C601.704 720.258 601.697 720.412 601.682 720.588C601.667 720.749 601.653 720.903 601.638 721.05H592.024V719.048H599.834L598.514 719.642C598.514 719.026 598.389 718.491 598.14 718.036C597.891 717.581 597.546 717.229 597.106 716.98C596.666 716.716 596.153 716.584 595.566 716.584C594.979 716.584 594.459 716.716 594.004 716.98C593.564 717.229 593.219 717.589 592.97 718.058C592.721 718.513 592.596 719.055 592.596 719.686V720.214C592.596 720.859 592.735 721.431 593.014 721.93C593.307 722.414 593.711 722.788 594.224 723.052C594.752 723.301 595.368 723.426 596.072 723.426C596.703 723.426 597.253 723.331 597.722 723.14C598.206 722.949 598.646 722.663 599.042 722.282L600.868 724.262C600.325 724.878 599.643 725.355 598.822 725.692C598.001 726.015 597.055 726.176 595.984 726.176ZM603.549 726V709.676H606.981V726H603.549ZM616.722 726.176C615.725 726.176 614.852 725.956 614.104 725.516C613.356 725.076 612.769 724.409 612.344 723.514C611.933 722.605 611.728 721.461 611.728 720.082C611.728 718.689 611.926 717.545 612.322 716.65C612.718 715.755 613.29 715.088 614.038 714.648C614.786 714.208 615.681 713.988 616.722 713.988C617.837 713.988 618.834 714.245 619.714 714.758C620.609 715.257 621.313 715.961 621.826 716.87C622.354 717.779 622.618 718.85 622.618 720.082C622.618 721.329 622.354 722.407 621.826 723.316C621.313 724.225 620.609 724.929 619.714 725.428C618.834 725.927 617.837 726.176 616.722 726.176ZM609.726 730.268V714.164H613.004V716.584L612.938 720.104L613.158 723.602V730.268H609.726ZM616.128 723.36C616.7 723.36 617.206 723.228 617.646 722.964C618.101 722.7 618.46 722.326 618.724 721.842C619.003 721.343 619.142 720.757 619.142 720.082C619.142 719.393 619.003 718.806 618.724 718.322C618.46 717.838 618.101 717.464 617.646 717.2C617.206 716.936 616.7 716.804 616.128 716.804C615.556 716.804 615.043 716.936 614.588 717.2C614.133 717.464 613.774 717.838 613.51 718.322C613.246 718.806 613.114 719.393 613.114 720.082C613.114 720.757 613.246 721.343 613.51 721.842C613.774 722.326 614.133 722.7 614.588 722.964C615.043 723.228 615.556 723.36 616.128 723.36ZM626.72 720.654C626.72 720.141 626.801 719.686 626.962 719.29C627.138 718.894 627.351 718.542 627.6 718.234C627.864 717.926 628.143 717.64 628.436 717.376C628.73 717.112 629.001 716.863 629.25 716.628C629.514 716.379 629.727 716.122 629.888 715.858C630.064 715.594 630.152 715.301 630.152 714.978C630.152 714.45 629.932 714.025 629.492 713.702C629.067 713.379 628.495 713.218 627.776 713.218C627.087 713.218 626.471 713.365 625.928 713.658C625.386 713.937 624.938 714.333 624.586 714.846L621.924 713.284C622.511 712.389 623.325 711.678 624.366 711.15C625.408 710.607 626.669 710.336 628.15 710.336C629.25 710.336 630.218 710.497 631.054 710.82C631.89 711.128 632.543 711.583 633.012 712.184C633.496 712.785 633.738 713.526 633.738 714.406C633.738 714.978 633.65 715.484 633.474 715.924C633.298 716.364 633.071 716.745 632.792 717.068C632.514 717.391 632.213 717.691 631.89 717.97C631.582 718.249 631.289 718.52 631.01 718.784C630.732 719.048 630.497 719.327 630.306 719.62C630.13 719.913 630.042 720.258 630.042 720.654H626.72ZM628.392 726.176C627.776 726.176 627.27 725.978 626.874 725.582C626.478 725.186 626.28 724.717 626.28 724.174C626.28 723.617 626.478 723.155 626.874 722.788C627.27 722.407 627.776 722.216 628.392 722.216C629.023 722.216 629.529 722.407 629.91 722.788C630.306 723.155 630.504 723.617 630.504 724.174C630.504 724.717 630.306 725.186 629.91 725.582C629.529 725.978 629.023 726.176 628.392 726.176Z" fill="#393852"/>
<g filter="url(#filter1_d_1866_19961)">
<rect x="876.971" y="75" width="146" height="391.97" rx="14.3842" transform="rotate(90 876.971 75)" fill="white"/>
</g>
<path d="M645.33 164.15C644.51 164.15 643.755 164.015 643.065 163.745C642.375 163.475 641.775 163.1 641.265 162.62C640.755 162.13 640.36 161.56 640.08 160.91C639.8 160.25 639.66 159.53 639.66 158.75C639.66 157.97 639.8 157.255 640.08 156.605C640.36 155.945 640.755 155.375 641.265 154.895C641.775 154.405 642.375 154.025 643.065 153.755C643.755 153.485 644.505 153.35 645.315 153.35C646.135 153.35 646.885 153.485 647.565 153.755C648.255 154.025 648.855 154.405 649.365 154.895C649.875 155.375 650.27 155.945 650.55 156.605C650.83 157.255 650.97 157.97 650.97 158.75C650.97 159.53 650.83 160.25 650.55 160.91C650.27 161.57 649.875 162.14 649.365 162.62C648.855 163.1 648.255 163.475 647.565 163.745C646.885 164.015 646.14 164.15 645.33 164.15ZM645.315 162.44C645.845 162.44 646.335 162.35 646.785 162.17C647.235 161.99 647.625 161.735 647.955 161.405C648.285 161.065 648.54 160.675 648.72 160.235C648.91 159.785 649.005 159.29 649.005 158.75C649.005 158.21 648.91 157.72 648.72 157.28C648.54 156.83 648.285 156.44 647.955 156.11C647.625 155.77 647.235 155.51 646.785 155.33C646.335 155.15 645.845 155.06 645.315 155.06C644.785 155.06 644.295 155.15 643.845 155.33C643.405 155.51 643.015 155.77 642.675 156.11C642.345 156.44 642.085 156.83 641.895 157.28C641.715 157.72 641.625 158.21 641.625 158.75C641.625 159.28 641.715 159.77 641.895 160.22C642.085 160.67 642.345 161.065 642.675 161.405C643.005 161.735 643.395 161.99 643.845 162.17C644.295 162.35 644.785 162.44 645.315 162.44ZM655.947 164.105C655.267 164.105 654.667 163.98 654.147 163.73C653.627 163.47 653.222 163.08 652.932 162.56C652.642 162.03 652.497 161.365 652.497 160.565V155.99H654.372V160.31C654.372 161.03 654.532 161.57 654.852 161.93C655.182 162.28 655.647 162.455 656.247 162.455C656.687 162.455 657.067 162.365 657.387 162.185C657.717 162.005 657.972 161.735 658.152 161.375C658.342 161.015 658.437 160.57 658.437 160.04V155.99H660.312V164H658.527V161.84L658.842 162.5C658.572 163.02 658.177 163.42 657.657 163.7C657.137 163.97 656.567 164.105 655.947 164.105ZM662.467 164V155.99H664.252V158.195L664.042 157.55C664.282 157.01 664.657 156.6 665.167 156.32C665.687 156.04 666.332 155.9 667.102 155.9V157.685C667.022 157.665 666.947 157.655 666.877 157.655C666.807 157.645 666.737 157.64 666.667 157.64C665.957 157.64 665.392 157.85 664.972 158.27C664.552 158.68 664.342 159.295 664.342 160.115V164H662.467ZM677.351 164.15C676.551 164.15 675.806 164.02 675.116 163.76C674.436 163.49 673.841 163.115 673.331 162.635C672.831 162.145 672.441 161.57 672.161 160.91C671.881 160.25 671.741 159.53 671.741 158.75C671.741 157.97 671.881 157.25 672.161 156.59C672.441 155.93 672.836 155.36 673.346 154.88C673.856 154.39 674.451 154.015 675.131 153.755C675.811 153.485 676.556 153.35 677.366 153.35C678.226 153.35 679.011 153.5 679.721 153.8C680.431 154.09 681.031 154.525 681.521 155.105L680.261 156.29C679.881 155.88 679.456 155.575 678.986 155.375C678.516 155.165 678.006 155.06 677.456 155.06C676.906 155.06 676.401 155.15 675.941 155.33C675.491 155.51 675.096 155.765 674.756 156.095C674.426 156.425 674.166 156.815 673.976 157.265C673.796 157.715 673.706 158.21 673.706 158.75C673.706 159.29 673.796 159.785 673.976 160.235C674.166 160.685 674.426 161.075 674.756 161.405C675.096 161.735 675.491 161.99 675.941 162.17C676.401 162.35 676.906 162.44 677.456 162.44C678.006 162.44 678.516 162.34 678.986 162.14C679.456 161.93 679.881 161.615 680.261 161.195L681.521 162.395C681.031 162.965 680.431 163.4 679.721 163.7C679.011 164 678.221 164.15 677.351 164.15ZM686.202 164.105C685.382 164.105 684.652 163.93 684.012 163.58C683.372 163.22 682.867 162.73 682.497 162.11C682.127 161.49 681.942 160.785 681.942 159.995C681.942 159.195 682.127 158.49 682.497 157.88C682.867 157.26 683.372 156.775 684.012 156.425C684.652 156.075 685.382 155.9 686.202 155.9C687.032 155.9 687.767 156.075 688.407 156.425C689.057 156.775 689.562 157.255 689.922 157.865C690.292 158.475 690.477 159.185 690.477 159.995C690.477 160.785 690.292 161.49 689.922 162.11C689.562 162.73 689.057 163.22 688.407 163.58C687.767 163.93 687.032 164.105 686.202 164.105ZM686.202 162.5C686.662 162.5 687.072 162.4 687.432 162.2C687.792 162 688.072 161.71 688.272 161.33C688.482 160.95 688.587 160.505 688.587 159.995C688.587 159.475 688.482 159.03 688.272 158.66C688.072 158.28 687.792 157.99 687.432 157.79C687.072 157.59 686.667 157.49 686.217 157.49C685.757 157.49 685.347 157.59 684.987 157.79C684.637 157.99 684.357 158.28 684.147 158.66C683.937 159.03 683.832 159.475 683.832 159.995C683.832 160.505 683.937 160.95 684.147 161.33C684.357 161.71 684.637 162 684.987 162.2C685.347 162.4 685.752 162.5 686.202 162.5ZM696.515 155.9C697.155 155.9 697.725 156.025 698.225 156.275C698.735 156.525 699.135 156.91 699.425 157.43C699.715 157.94 699.86 158.6 699.86 159.41V164H697.985V159.65C697.985 158.94 697.815 158.41 697.475 158.06C697.145 157.71 696.68 157.535 696.08 157.535C695.64 157.535 695.25 157.625 694.91 157.805C694.57 157.985 694.305 158.255 694.115 158.615C693.935 158.965 693.845 159.41 693.845 159.95V164H691.97V155.99H693.755V158.15L693.44 157.49C693.72 156.98 694.125 156.59 694.655 156.32C695.195 156.04 695.815 155.9 696.515 155.9ZM704.414 164.105C703.744 164.105 703.099 164.02 702.479 163.85C701.869 163.67 701.384 163.455 701.024 163.205L701.744 161.78C702.104 162.01 702.534 162.2 703.034 162.35C703.534 162.5 704.034 162.575 704.534 162.575C705.124 162.575 705.549 162.495 705.809 162.335C706.079 162.175 706.214 161.96 706.214 161.69C706.214 161.47 706.124 161.305 705.944 161.195C705.764 161.075 705.529 160.985 705.239 160.925C704.949 160.865 704.624 160.81 704.264 160.76C703.914 160.71 703.559 160.645 703.199 160.565C702.849 160.475 702.529 160.35 702.239 160.19C701.949 160.02 701.714 159.795 701.534 159.515C701.354 159.235 701.264 158.865 701.264 158.405C701.264 157.895 701.409 157.455 701.699 157.085C701.989 156.705 702.394 156.415 702.914 156.215C703.444 156.005 704.069 155.9 704.789 155.9C705.329 155.9 705.874 155.96 706.424 156.08C706.974 156.2 707.429 156.37 707.789 156.59L707.069 158.015C706.689 157.785 706.304 157.63 705.914 157.55C705.534 157.46 705.154 157.415 704.774 157.415C704.204 157.415 703.779 157.5 703.499 157.67C703.229 157.84 703.094 158.055 703.094 158.315C703.094 158.555 703.184 158.735 703.364 158.855C703.544 158.975 703.779 159.07 704.069 159.14C704.359 159.21 704.679 159.27 705.029 159.32C705.389 159.36 705.744 159.425 706.094 159.515C706.444 159.605 706.764 159.73 707.054 159.89C707.354 160.04 707.594 160.255 707.774 160.535C707.954 160.815 708.044 161.18 708.044 161.63C708.044 162.13 707.894 162.565 707.594 162.935C707.304 163.305 706.889 163.595 706.349 163.805C705.809 164.005 705.164 164.105 704.414 164.105ZM712.748 164.105C712.068 164.105 711.468 163.98 710.948 163.73C710.428 163.47 710.023 163.08 709.733 162.56C709.443 162.03 709.298 161.365 709.298 160.565V155.99H711.173V160.31C711.173 161.03 711.333 161.57 711.653 161.93C711.983 162.28 712.448 162.455 713.048 162.455C713.488 162.455 713.868 162.365 714.188 162.185C714.518 162.005 714.773 161.735 714.953 161.375C715.143 161.015 715.238 160.57 715.238 160.04V155.99H717.113V164H715.328V161.84L715.643 162.5C715.373 163.02 714.978 163.42 714.458 163.7C713.938 163.97 713.368 164.105 712.748 164.105ZM719.268 164V152.87H721.143V164H719.268ZM726.715 164.105C725.835 164.105 725.155 163.88 724.675 163.43C724.195 162.97 723.955 162.295 723.955 161.405V154.22H725.83V161.36C725.83 161.74 725.925 162.035 726.115 162.245C726.315 162.455 726.59 162.56 726.94 162.56C727.36 162.56 727.71 162.45 727.99 162.23L728.515 163.565C728.295 163.745 728.025 163.88 727.705 163.97C727.385 164.06 727.055 164.105 726.715 164.105ZM722.635 157.55V156.05H727.975V157.55H722.635ZM734.692 164V162.38L734.587 162.035V159.2C734.587 158.65 734.422 158.225 734.092 157.925C733.762 157.615 733.262 157.46 732.592 157.46C732.142 157.46 731.697 157.53 731.257 157.67C730.827 157.81 730.462 158.005 730.162 158.255L729.427 156.89C729.857 156.56 730.367 156.315 730.957 156.155C731.557 155.985 732.177 155.9 732.817 155.9C733.977 155.9 734.872 156.18 735.502 156.74C736.142 157.29 736.462 158.145 736.462 159.305V164H734.692ZM732.172 164.105C731.572 164.105 731.047 164.005 730.597 163.805C730.147 163.595 729.797 163.31 729.547 162.95C729.307 162.58 729.187 162.165 729.187 161.705C729.187 161.255 729.292 160.85 729.502 160.49C729.722 160.13 730.077 159.845 730.567 159.635C731.057 159.425 731.707 159.32 732.517 159.32H734.842V160.565H732.652C732.012 160.565 731.582 160.67 731.362 160.88C731.142 161.08 731.032 161.33 731.032 161.63C731.032 161.97 731.167 162.24 731.437 162.44C731.707 162.64 732.082 162.74 732.562 162.74C733.022 162.74 733.432 162.635 733.792 162.425C734.162 162.215 734.427 161.905 734.587 161.495L734.902 162.62C734.722 163.09 734.397 163.455 733.927 163.715C733.467 163.975 732.882 164.105 732.172 164.105ZM743.113 155.9C743.753 155.9 744.323 156.025 744.823 156.275C745.333 156.525 745.733 156.91 746.023 157.43C746.313 157.94 746.458 158.6 746.458 159.41V164H744.583V159.65C744.583 158.94 744.413 158.41 744.073 158.06C743.743 157.71 743.278 157.535 742.678 157.535C742.238 157.535 741.848 157.625 741.508 157.805C741.168 157.985 740.903 158.255 740.713 158.615C740.533 158.965 740.443 159.41 740.443 159.95V164H738.568V155.99H740.353V158.15L740.038 157.49C740.318 156.98 740.723 156.59 741.253 156.32C741.793 156.04 742.413 155.9 743.113 155.9ZM752.227 164.105C751.387 164.105 750.637 163.93 749.977 163.58C749.327 163.22 748.817 162.73 748.447 162.11C748.077 161.49 747.892 160.785 747.892 159.995C747.892 159.195 748.077 158.49 748.447 157.88C748.817 157.26 749.327 156.775 749.977 156.425C750.637 156.075 751.387 155.9 752.227 155.9C753.007 155.9 753.692 156.06 754.282 156.38C754.882 156.69 755.337 157.15 755.647 157.76L754.207 158.6C753.967 158.22 753.672 157.94 753.322 157.76C752.982 157.58 752.612 157.49 752.212 157.49C751.752 157.49 751.337 157.59 750.967 157.79C750.597 157.99 750.307 158.28 750.097 158.66C749.887 159.03 749.782 159.475 749.782 159.995C749.782 160.515 749.887 160.965 750.097 161.345C750.307 161.715 750.597 162 750.967 162.2C751.337 162.4 751.752 162.5 752.212 162.5C752.612 162.5 752.982 162.41 753.322 162.23C753.672 162.05 753.967 161.77 754.207 161.39L755.647 162.23C755.337 162.83 754.882 163.295 754.282 163.625C753.692 163.945 753.007 164.105 752.227 164.105ZM757.525 167.015C757.135 167.015 756.745 166.95 756.355 166.82C755.965 166.69 755.64 166.51 755.38 166.28L756.13 164.9C756.32 165.07 756.535 165.205 756.775 165.305C757.015 165.405 757.26 165.455 757.51 165.455C757.85 165.455 758.125 165.37 758.335 165.2C758.545 165.03 758.74 164.745 758.92 164.345L759.385 163.295L759.535 163.07L762.565 155.99H764.365L760.615 164.645C760.365 165.245 760.085 165.72 759.775 166.07C759.475 166.42 759.135 166.665 758.755 166.805C758.385 166.945 757.975 167.015 757.525 167.015ZM759.175 164.285L755.56 155.99H757.51L760.45 162.905L759.175 164.285ZM770.852 164L767.912 155.99H769.682L772.202 163.055H771.362L774.002 155.99H775.577L778.142 163.055H777.317L779.912 155.99H781.577L778.622 164H776.822L774.482 157.745H775.037L772.652 164H770.852ZM782.567 164V155.99H784.442V164H782.567ZM783.512 154.67C783.162 154.67 782.872 154.56 782.642 154.34C782.422 154.12 782.312 153.855 782.312 153.545C782.312 153.225 782.422 152.96 782.642 152.75C782.872 152.53 783.162 152.42 783.512 152.42C783.862 152.42 784.147 152.525 784.367 152.735C784.597 152.935 784.712 153.19 784.712 153.5C784.712 153.83 784.602 154.11 784.382 154.34C784.162 154.56 783.872 154.67 783.512 154.67ZM786.602 164V152.87H788.477V164H786.602ZM790.638 164V152.87H792.513V164H790.638ZM803.065 155.9C803.705 155.9 804.275 156.025 804.775 156.275C805.285 156.525 805.685 156.91 805.975 157.43C806.265 157.94 806.41 158.6 806.41 159.41V164H804.535V159.65C804.535 158.94 804.365 158.41 804.025 158.06C803.695 157.71 803.23 157.535 802.63 157.535C802.19 157.535 801.8 157.625 801.46 157.805C801.12 157.985 800.855 158.255 800.665 158.615C800.485 158.965 800.395 159.41 800.395 159.95V164H798.52V152.87H800.395V158.15L799.99 157.49C800.27 156.98 800.675 156.59 801.205 156.32C801.745 156.04 802.365 155.9 803.065 155.9ZM812.268 164.105C811.378 164.105 810.598 163.93 809.928 163.58C809.268 163.22 808.753 162.73 808.383 162.11C808.023 161.49 807.843 160.785 807.843 159.995C807.843 159.195 808.018 158.49 808.368 157.88C808.728 157.26 809.218 156.775 809.838 156.425C810.468 156.075 811.183 155.9 811.983 155.9C812.763 155.9 813.458 156.07 814.068 156.41C814.678 156.75 815.158 157.23 815.508 157.85C815.858 158.47 816.033 159.2 816.033 160.04C816.033 160.12 816.028 160.21 816.018 160.31C816.018 160.41 816.013 160.505 816.003 160.595H809.328V159.35H815.013L814.278 159.74C814.288 159.28 814.193 158.875 813.993 158.525C813.793 158.175 813.518 157.9 813.168 157.7C812.828 157.5 812.433 157.4 811.983 157.4C811.523 157.4 811.118 157.5 810.768 157.7C810.428 157.9 810.158 158.18 809.958 158.54C809.768 158.89 809.673 159.305 809.673 159.785V160.085C809.673 160.565 809.783 160.99 810.003 161.36C810.223 161.73 810.533 162.015 810.933 162.215C811.333 162.415 811.793 162.515 812.313 162.515C812.763 162.515 813.168 162.445 813.528 162.305C813.888 162.165 814.208 161.945 814.488 161.645L815.493 162.8C815.133 163.22 814.678 163.545 814.128 163.775C813.588 163.995 812.968 164.105 812.268 164.105ZM817.534 164V152.87H819.409V164H817.534ZM826.01 164.105C825.36 164.105 824.765 163.955 824.225 163.655C823.695 163.355 823.27 162.905 822.95 162.305C822.64 161.695 822.485 160.925 822.485 159.995C822.485 159.055 822.635 158.285 822.935 157.685C823.245 157.085 823.665 156.64 824.195 156.35C824.725 156.05 825.33 155.9 826.01 155.9C826.8 155.9 827.495 156.07 828.095 156.41C828.705 156.75 829.185 157.225 829.535 157.835C829.895 158.445 830.075 159.165 830.075 159.995C830.075 160.825 829.895 161.55 829.535 162.17C829.185 162.78 828.705 163.255 828.095 163.595C827.495 163.935 826.8 164.105 826.01 164.105ZM821.57 166.91V155.99H823.355V157.88L823.295 160.01L823.445 162.14V166.91H821.57ZM825.8 162.5C826.25 162.5 826.65 162.4 827 162.2C827.36 162 827.645 161.71 827.855 161.33C828.065 160.95 828.17 160.505 828.17 159.995C828.17 159.475 828.065 159.03 827.855 158.66C827.645 158.28 827.36 157.99 827 157.79C826.65 157.59 826.25 157.49 825.8 157.49C825.35 157.49 824.945 157.59 824.585 157.79C824.225 157.99 823.94 158.28 823.73 158.66C823.52 159.03 823.415 159.475 823.415 159.995C823.415 160.505 823.52 160.95 823.73 161.33C823.94 161.71 824.225 162 824.585 162.2C824.945 162.4 825.35 162.5 825.8 162.5ZM640.89 185.015C640.5 185.015 640.11 184.95 639.72 184.82C639.33 184.69 639.005 184.51 638.745 184.28L639.495 182.9C639.685 183.07 639.9 183.205 640.14 183.305C640.38 183.405 640.625 183.455 640.875 183.455C641.215 183.455 641.49 183.37 641.7 183.2C641.91 183.03 642.105 182.745 642.285 182.345L642.75 181.295L642.9 181.07L645.93 173.99H647.73L643.98 182.645C643.73 183.245 643.45 183.72 643.14 184.07C642.84 184.42 642.5 184.665 642.12 184.805C641.75 184.945 641.34 185.015 640.89 185.015ZM642.54 182.285L638.925 173.99H640.875L643.815 180.905L642.54 182.285ZM651.982 182.105C651.162 182.105 650.432 181.93 649.792 181.58C649.152 181.22 648.647 180.73 648.277 180.11C647.907 179.49 647.722 178.785 647.722 177.995C647.722 177.195 647.907 176.49 648.277 175.88C648.647 175.26 649.152 174.775 649.792 174.425C650.432 174.075 651.162 173.9 651.982 173.9C652.812 173.9 653.547 174.075 654.187 174.425C654.837 174.775 655.342 175.255 655.702 175.865C656.072 176.475 656.257 177.185 656.257 177.995C656.257 178.785 656.072 179.49 655.702 180.11C655.342 180.73 654.837 181.22 654.187 181.58C653.547 181.93 652.812 182.105 651.982 182.105ZM651.982 180.5C652.442 180.5 652.852 180.4 653.212 180.2C653.572 180 653.852 179.71 654.052 179.33C654.262 178.95 654.367 178.505 654.367 177.995C654.367 177.475 654.262 177.03 654.052 176.66C653.852 176.28 653.572 175.99 653.212 175.79C652.852 175.59 652.447 175.49 651.997 175.49C651.537 175.49 651.127 175.59 650.767 175.79C650.417 175.99 650.137 176.28 649.927 176.66C649.717 177.03 649.612 177.475 649.612 177.995C649.612 178.505 649.717 178.95 649.927 179.33C650.137 179.71 650.417 180 650.767 180.2C651.127 180.4 651.532 180.5 651.982 180.5ZM661.14 182.105C660.46 182.105 659.86 181.98 659.34 181.73C658.82 181.47 658.415 181.08 658.125 180.56C657.835 180.03 657.69 179.365 657.69 178.565V173.99H659.565V178.31C659.565 179.03 659.725 179.57 660.045 179.93C660.375 180.28 660.84 180.455 661.44 180.455C661.88 180.455 662.26 180.365 662.58 180.185C662.91 180.005 663.165 179.735 663.345 179.375C663.535 179.015 663.63 178.57 663.63 178.04V173.99H665.505V182H663.72V179.84L664.035 180.5C663.765 181.02 663.37 181.42 662.85 181.7C662.33 181.97 661.76 182.105 661.14 182.105ZM673.276 182L670.336 173.99H672.106L674.626 181.055H673.786L676.426 173.99H678.001L680.566 181.055H679.741L682.336 173.99H684.001L681.046 182H679.246L676.906 175.745H677.461L675.076 182H673.276ZM684.99 182V173.99H686.865V182H684.99ZM685.935 172.67C685.585 172.67 685.295 172.56 685.065 172.34C684.845 172.12 684.735 171.855 684.735 171.545C684.735 171.225 684.845 170.96 685.065 170.75C685.295 170.53 685.585 170.42 685.935 170.42C686.285 170.42 686.57 170.525 686.79 170.735C687.02 170.935 687.135 171.19 687.135 171.5C687.135 171.83 687.025 172.11 686.805 172.34C686.585 172.56 686.295 172.67 685.935 172.67ZM692.041 182.105C691.161 182.105 690.481 181.88 690.001 181.43C689.521 180.97 689.281 180.295 689.281 179.405V172.22H691.156V179.36C691.156 179.74 691.251 180.035 691.441 180.245C691.641 180.455 691.916 180.56 692.266 180.56C692.686 180.56 693.036 180.45 693.316 180.23L693.841 181.565C693.621 181.745 693.351 181.88 693.031 181.97C692.711 182.06 692.381 182.105 692.041 182.105ZM687.961 175.55V174.05H693.301V175.55H687.961ZM699.628 173.9C700.268 173.9 700.838 174.025 701.338 174.275C701.848 174.525 702.248 174.91 702.538 175.43C702.828 175.94 702.973 176.6 702.973 177.41V182H701.098V177.65C701.098 176.94 700.928 176.41 700.588 176.06C700.258 175.71 699.793 175.535 699.193 175.535C698.753 175.535 698.363 175.625 698.023 175.805C697.683 175.985 697.418 176.255 697.228 176.615C697.048 176.965 696.958 177.41 696.958 177.95V182H695.083V170.87H696.958V176.15L696.553 175.49C696.833 174.98 697.238 174.59 697.768 174.32C698.308 174.04 698.928 173.9 699.628 173.9ZM713.832 182V180.38L713.727 180.035V177.2C713.727 176.65 713.562 176.225 713.232 175.925C712.902 175.615 712.402 175.46 711.732 175.46C711.282 175.46 710.837 175.53 710.397 175.67C709.967 175.81 709.602 176.005 709.302 176.255L708.567 174.89C708.997 174.56 709.507 174.315 710.097 174.155C710.697 173.985 711.317 173.9 711.957 173.9C713.117 173.9 714.012 174.18 714.642 174.74C715.282 175.29 715.602 176.145 715.602 177.305V182H713.832ZM711.312 182.105C710.712 182.105 710.187 182.005 709.737 181.805C709.287 181.595 708.937 181.31 708.687 180.95C708.447 180.58 708.327 180.165 708.327 179.705C708.327 179.255 708.432 178.85 708.642 178.49C708.862 178.13 709.217 177.845 709.707 177.635C710.197 177.425 710.847 177.32 711.657 177.32H713.982V178.565H711.792C711.152 178.565 710.722 178.67 710.502 178.88C710.282 179.08 710.172 179.33 710.172 179.63C710.172 179.97 710.307 180.24 710.577 180.44C710.847 180.64 711.222 180.74 711.702 180.74C712.162 180.74 712.572 180.635 712.932 180.425C713.302 180.215 713.567 179.905 713.727 179.495L714.042 180.62C713.862 181.09 713.537 181.455 713.067 181.715C712.607 181.975 712.022 182.105 711.312 182.105ZM721.398 182.105C720.558 182.105 719.808 181.93 719.148 181.58C718.498 181.22 717.988 180.73 717.618 180.11C717.248 179.49 717.063 178.785 717.063 177.995C717.063 177.195 717.248 176.49 717.618 175.88C717.988 175.26 718.498 174.775 719.148 174.425C719.808 174.075 720.558 173.9 721.398 173.9C722.178 173.9 722.863 174.06 723.453 174.38C724.053 174.69 724.508 175.15 724.818 175.76L723.378 176.6C723.138 176.22 722.843 175.94 722.493 175.76C722.153 175.58 721.783 175.49 721.383 175.49C720.923 175.49 720.508 175.59 720.138 175.79C719.768 175.99 719.478 176.28 719.268 176.66C719.058 177.03 718.953 177.475 718.953 177.995C718.953 178.515 719.058 178.965 719.268 179.345C719.478 179.715 719.768 180 720.138 180.2C720.508 180.4 720.923 180.5 721.383 180.5C721.783 180.5 722.153 180.41 722.493 180.23C722.843 180.05 723.138 179.77 723.378 179.39L724.818 180.23C724.508 180.83 724.053 181.295 723.453 181.625C722.863 181.945 722.178 182.105 721.398 182.105ZM729.697 182.105C728.857 182.105 728.107 181.93 727.447 181.58C726.797 181.22 726.287 180.73 725.917 180.11C725.547 179.49 725.362 178.785 725.362 177.995C725.362 177.195 725.547 176.49 725.917 175.88C726.287 175.26 726.797 174.775 727.447 174.425C728.107 174.075 728.857 173.9 729.697 173.9C730.477 173.9 731.162 174.06 731.752 174.38C732.352 174.69 732.807 175.15 733.117 175.76L731.677 176.6C731.437 176.22 731.142 175.94 730.792 175.76C730.452 175.58 730.082 175.49 729.682 175.49C729.222 175.49 728.807 175.59 728.437 175.79C728.067 175.99 727.777 176.28 727.567 176.66C727.357 177.03 727.252 177.475 727.252 177.995C727.252 178.515 727.357 178.965 727.567 179.345C727.777 179.715 728.067 180 728.437 180.2C728.807 180.4 729.222 180.5 729.682 180.5C730.082 180.5 730.452 180.41 730.792 180.23C731.142 180.05 731.437 179.77 731.677 179.39L733.117 180.23C732.807 180.83 732.352 181.295 731.752 181.625C731.162 181.945 730.477 182.105 729.697 182.105ZM737.92 182.105C737.1 182.105 736.37 181.93 735.73 181.58C735.09 181.22 734.585 180.73 734.215 180.11C733.845 179.49 733.66 178.785 733.66 177.995C733.66 177.195 733.845 176.49 734.215 175.88C734.585 175.26 735.09 174.775 735.73 174.425C736.37 174.075 737.1 173.9 737.92 173.9C738.75 173.9 739.485 174.075 740.125 174.425C740.775 174.775 741.28 175.255 741.64 175.865C742.01 176.475 742.195 177.185 742.195 177.995C742.195 178.785 742.01 179.49 741.64 180.11C741.28 180.73 740.775 181.22 740.125 181.58C739.485 181.93 738.75 182.105 737.92 182.105ZM737.92 180.5C738.38 180.5 738.79 180.4 739.15 180.2C739.51 180 739.79 179.71 739.99 179.33C740.2 178.95 740.305 178.505 740.305 177.995C740.305 177.475 740.2 177.03 739.99 176.66C739.79 176.28 739.51 175.99 739.15 175.79C738.79 175.59 738.385 175.49 737.935 175.49C737.475 175.49 737.065 175.59 736.705 175.79C736.355 175.99 736.075 176.28 735.865 176.66C735.655 177.03 735.55 177.475 735.55 177.995C735.55 178.505 735.655 178.95 735.865 179.33C736.075 179.71 736.355 180 736.705 180.2C737.065 180.4 737.47 180.5 737.92 180.5ZM753.798 173.9C754.438 173.9 755.003 174.025 755.493 174.275C755.993 174.525 756.383 174.91 756.663 175.43C756.943 175.94 757.083 176.6 757.083 177.41V182H755.208V177.65C755.208 176.94 755.053 176.41 754.743 176.06C754.433 175.71 753.988 175.535 753.408 175.535C752.998 175.535 752.633 175.625 752.313 175.805C752.003 175.985 751.758 176.25 751.578 176.6C751.408 176.95 751.323 177.395 751.323 177.935V182H749.448V177.65C749.448 176.94 749.293 176.41 748.983 176.06C748.673 175.71 748.228 175.535 747.648 175.535C747.238 175.535 746.873 175.625 746.553 175.805C746.243 175.985 745.998 176.25 745.818 176.6C745.648 176.95 745.563 177.395 745.563 177.935V182H743.688V173.99H745.473V176.12L745.158 175.49C745.428 174.97 745.818 174.575 746.328 174.305C746.848 174.035 747.438 173.9 748.098 173.9C748.848 173.9 749.498 174.085 750.048 174.455C750.608 174.825 750.978 175.385 751.158 176.135L750.423 175.88C750.683 175.28 751.113 174.8 751.713 174.44C752.313 174.08 753.008 173.9 753.798 173.9ZM762.959 182.105C762.069 182.105 761.289 181.93 760.619 181.58C759.959 181.22 759.444 180.73 759.074 180.11C758.714 179.49 758.534 178.785 758.534 177.995C758.534 177.195 758.709 176.49 759.059 175.88C759.419 175.26 759.909 174.775 760.529 174.425C761.159 174.075 761.874 173.9 762.674 173.9C763.454 173.9 764.149 174.07 764.759 174.41C765.369 174.75 765.849 175.23 766.199 175.85C766.549 176.47 766.724 177.2 766.724 178.04C766.724 178.12 766.719 178.21 766.709 178.31C766.709 178.41 766.704 178.505 766.694 178.595H760.019V177.35H765.704L764.969 177.74C764.979 177.28 764.884 176.875 764.684 176.525C764.484 176.175 764.209 175.9 763.859 175.7C763.519 175.5 763.124 175.4 762.674 175.4C762.214 175.4 761.809 175.5 761.459 175.7C761.119 175.9 760.849 176.18 760.649 176.54C760.459 176.89 760.364 177.305 760.364 177.785V178.085C760.364 178.565 760.474 178.99 760.694 179.36C760.914 179.73 761.224 180.015 761.624 180.215C762.024 180.415 762.484 180.515 763.004 180.515C763.454 180.515 763.859 180.445 764.219 180.305C764.579 180.165 764.899 179.945 765.179 179.645L766.184 180.8C765.824 181.22 765.369 181.545 764.819 181.775C764.279 181.995 763.659 182.105 762.959 182.105ZM772.77 173.9C773.41 173.9 773.98 174.025 774.48 174.275C774.99 174.525 775.39 174.91 775.68 175.43C775.97 175.94 776.115 176.6 776.115 177.41V182H774.24V177.65C774.24 176.94 774.07 176.41 773.73 176.06C773.4 175.71 772.935 175.535 772.335 175.535C771.895 175.535 771.505 175.625 771.165 175.805C770.825 175.985 770.56 176.255 770.37 176.615C770.19 176.965 770.1 177.41 770.1 177.95V182H768.225V173.99H770.01V176.15L769.695 175.49C769.975 174.98 770.38 174.59 770.91 174.32C771.45 174.04 772.07 173.9 772.77 173.9ZM781.598 182.105C780.828 182.105 780.133 181.935 779.513 181.595C778.903 181.245 778.423 180.765 778.073 180.155C777.723 179.545 777.548 178.825 777.548 177.995C777.548 177.165 777.723 176.445 778.073 175.835C778.423 175.225 778.903 174.75 779.513 174.41C780.133 174.07 780.828 173.9 781.598 173.9C782.268 173.9 782.868 174.05 783.398 174.35C783.928 174.64 784.348 175.085 784.658 175.685C784.968 176.285 785.123 177.055 785.123 177.995C785.123 178.925 784.973 179.695 784.673 180.305C784.373 180.905 783.958 181.355 783.428 181.655C782.898 181.955 782.288 182.105 781.598 182.105ZM781.823 180.5C782.273 180.5 782.673 180.4 783.023 180.2C783.383 180 783.668 179.71 783.878 179.33C784.098 178.95 784.208 178.505 784.208 177.995C784.208 177.475 784.098 177.03 783.878 176.66C783.668 176.28 783.383 175.99 783.023 175.79C782.673 175.59 782.273 175.49 781.823 175.49C781.373 175.49 780.968 175.59 780.608 175.79C780.258 175.99 779.973 176.28 779.753 176.66C779.543 177.03 779.438 177.475 779.438 177.995C779.438 178.505 779.543 178.95 779.753 179.33C779.973 179.71 780.258 180 780.608 180.2C780.968 180.4 781.373 180.5 781.823 180.5ZM784.253 182V180.11L784.328 177.98L784.178 175.85V170.87H786.038V182H784.253ZM793.141 182V180.38L793.036 180.035V177.2C793.036 176.65 792.871 176.225 792.541 175.925C792.211 175.615 791.711 175.46 791.041 175.46C790.591 175.46 790.146 175.53 789.706 175.67C789.276 175.81 788.911 176.005 788.611 176.255L787.876 174.89C788.306 174.56 788.816 174.315 789.406 174.155C790.006 173.985 790.626 173.9 791.266 173.9C792.426 173.9 793.321 174.18 793.951 174.74C794.591 175.29 794.911 176.145 794.911 177.305V182H793.141ZM790.621 182.105C790.021 182.105 789.496 182.005 789.046 181.805C788.596 181.595 788.246 181.31 787.996 180.95C787.756 180.58 787.636 180.165 787.636 179.705C787.636 179.255 787.741 178.85 787.951 178.49C788.171 178.13 788.526 177.845 789.016 177.635C789.506 177.425 790.156 177.32 790.966 177.32H793.291V178.565H791.101C790.461 178.565 790.031 178.67 789.811 178.88C789.591 179.08 789.481 179.33 789.481 179.63C789.481 179.97 789.616 180.24 789.886 180.44C790.156 180.64 790.531 180.74 791.011 180.74C791.471 180.74 791.881 180.635 792.241 180.425C792.611 180.215 792.876 179.905 793.036 179.495L793.351 180.62C793.171 181.09 792.846 181.455 792.376 181.715C791.916 181.975 791.331 182.105 790.621 182.105ZM800.033 182.105C799.153 182.105 798.473 181.88 797.993 181.43C797.513 180.97 797.273 180.295 797.273 179.405V172.22H799.148V179.36C799.148 179.74 799.243 180.035 799.433 180.245C799.633 180.455 799.908 180.56 800.258 180.56C800.678 180.56 801.028 180.45 801.308 180.23L801.833 181.565C801.613 181.745 801.343 181.88 801.023 181.97C800.703 182.06 800.373 182.105 800.033 182.105ZM795.953 175.55V174.05H801.293V175.55H795.953ZM803.075 182V173.99H804.95V182H803.075ZM804.02 172.67C803.67 172.67 803.38 172.56 803.15 172.34C802.93 172.12 802.82 171.855 802.82 171.545C802.82 171.225 802.93 170.96 803.15 170.75C803.38 170.53 803.67 170.42 804.02 170.42C804.37 170.42 804.655 170.525 804.875 170.735C805.105 170.935 805.22 171.19 805.22 171.5C805.22 171.83 805.11 172.11 804.89 172.34C804.67 172.56 804.38 172.67 804.02 172.67ZM810.711 182.105C809.891 182.105 809.161 181.93 808.521 181.58C807.881 181.22 807.376 180.73 807.006 180.11C806.636 179.49 806.451 178.785 806.451 177.995C806.451 177.195 806.636 176.49 807.006 175.88C807.376 175.26 807.881 174.775 808.521 174.425C809.161 174.075 809.891 173.9 810.711 173.9C811.541 173.9 812.276 174.075 812.916 174.425C813.566 174.775 814.071 175.255 814.431 175.865C814.801 176.475 814.986 177.185 814.986 177.995C814.986 178.785 814.801 179.49 814.431 180.11C814.071 180.73 813.566 181.22 812.916 181.58C812.276 181.93 811.541 182.105 810.711 182.105ZM810.711 180.5C811.171 180.5 811.581 180.4 811.941 180.2C812.301 180 812.581 179.71 812.781 179.33C812.991 178.95 813.096 178.505 813.096 177.995C813.096 177.475 812.991 177.03 812.781 176.66C812.581 176.28 812.301 175.99 811.941 175.79C811.581 175.59 811.176 175.49 810.726 175.49C810.266 175.49 809.856 175.59 809.496 175.79C809.146 175.99 808.866 176.28 808.656 176.66C808.446 177.03 808.341 177.475 808.341 177.995C808.341 178.505 808.446 178.95 808.656 179.33C808.866 179.71 809.146 180 809.496 180.2C809.856 180.4 810.261 180.5 810.711 180.5ZM821.024 173.9C821.664 173.9 822.234 174.025 822.734 174.275C823.244 174.525 823.644 174.91 823.934 175.43C824.224 175.94 824.369 176.6 824.369 177.41V182H822.494V177.65C822.494 176.94 822.324 176.41 821.984 176.06C821.654 175.71 821.189 175.535 820.589 175.535C820.149 175.535 819.759 175.625 819.419 175.805C819.079 175.985 818.814 176.255 818.624 176.615C818.444 176.965 818.354 177.41 818.354 177.95V182H816.479V173.99H818.264V176.15L817.949 175.49C818.229 174.98 818.634 174.59 819.164 174.32C819.704 174.04 820.324 173.9 821.024 173.9ZM827.047 182.105C826.707 182.105 826.417 181.99 826.177 181.76C825.937 181.52 825.817 181.22 825.817 180.86C825.817 180.48 825.937 180.18 826.177 179.96C826.417 179.73 826.707 179.615 827.047 179.615C827.387 179.615 827.677 179.73 827.917 179.96C828.157 180.18 828.277 180.48 828.277 180.86C828.277 181.22 828.157 181.52 827.917 181.76C827.677 181.99 827.387 182.105 827.047 182.105Z" fill="#757575"/>
<circle cx="550" cy="148" r="40" fill="#EAF9F2"/>
<circle cx="550" cy="148" r="22.3729" fill="#B1EDD4"/>
<path d="M535.764 145.966C547.152 153.362 553.73 153.032 565.594 145.966" stroke="#52CA9B" stroke-width="2.71186" stroke-linecap="round"/>
<path d="M638.802 133L645.666 117.6H649.186L656.072 133H652.332L646.7 119.404H648.108L642.454 133H638.802ZM642.234 129.7L643.18 126.994H651.1L652.068 129.7H642.234ZM662.6 133.176C661.324 133.176 660.188 132.919 659.19 132.406C658.193 131.878 657.408 131.152 656.836 130.228C656.279 129.304 656 128.255 656 127.082C656 125.894 656.279 124.845 656.836 123.936C657.408 123.012 658.193 122.293 659.19 121.78C660.188 121.252 661.324 120.988 662.6 120.988C663.847 120.988 664.932 121.252 665.856 121.78C666.78 122.293 667.462 123.034 667.902 124.002L665.24 125.432C664.932 124.875 664.544 124.464 664.074 124.2C663.62 123.936 663.121 123.804 662.578 123.804C661.992 123.804 661.464 123.936 660.994 124.2C660.525 124.464 660.151 124.838 659.872 125.322C659.608 125.806 659.476 126.393 659.476 127.082C659.476 127.771 659.608 128.358 659.872 128.842C660.151 129.326 660.525 129.7 660.994 129.964C661.464 130.228 661.992 130.36 662.578 130.36C663.121 130.36 663.62 130.235 664.074 129.986C664.544 129.722 664.932 129.304 665.24 128.732L667.902 130.184C667.462 131.137 666.78 131.878 665.856 132.406C664.932 132.919 663.847 133.176 662.6 133.176ZM675.008 133.176C673.732 133.176 672.595 132.919 671.598 132.406C670.601 131.878 669.816 131.152 669.244 130.228C668.687 129.304 668.408 128.255 668.408 127.082C668.408 125.894 668.687 124.845 669.244 123.936C669.816 123.012 670.601 122.293 671.598 121.78C672.595 121.252 673.732 120.988 675.008 120.988C676.255 120.988 677.34 121.252 678.264 121.78C679.188 122.293 679.87 123.034 680.31 124.002L677.648 125.432C677.34 124.875 676.951 124.464 676.482 124.2C676.027 123.936 675.529 123.804 674.986 123.804C674.399 123.804 673.871 123.936 673.402 124.2C672.933 124.464 672.559 124.838 672.28 125.322C672.016 125.806 671.884 126.393 671.884 127.082C671.884 127.771 672.016 128.358 672.28 128.842C672.559 129.326 672.933 129.7 673.402 129.964C673.871 130.228 674.399 130.36 674.986 130.36C675.529 130.36 676.027 130.235 676.482 129.986C676.951 129.722 677.34 129.304 677.648 128.732L680.31 130.184C679.87 131.137 679.188 131.878 678.264 132.406C677.34 132.919 676.255 133.176 675.008 133.176ZM687.328 133.176C686.066 133.176 684.944 132.912 683.962 132.384C682.994 131.856 682.224 131.137 681.652 130.228C681.094 129.304 680.816 128.255 680.816 127.082C680.816 125.894 681.094 124.845 681.652 123.936C682.224 123.012 682.994 122.293 683.962 121.78C684.944 121.252 686.066 120.988 687.328 120.988C688.574 120.988 689.689 121.252 690.672 121.78C691.654 122.293 692.424 123.005 692.982 123.914C693.539 124.823 693.818 125.879 693.818 127.082C693.818 128.255 693.539 129.304 692.982 130.228C692.424 131.137 691.654 131.856 690.672 132.384C689.689 132.912 688.574 133.176 687.328 133.176ZM687.328 130.36C687.9 130.36 688.413 130.228 688.868 129.964C689.322 129.7 689.682 129.326 689.946 128.842C690.21 128.343 690.342 127.757 690.342 127.082C690.342 126.393 690.21 125.806 689.946 125.322C689.682 124.838 689.322 124.464 688.868 124.2C688.413 123.936 687.9 123.804 687.328 123.804C686.756 123.804 686.242 123.936 685.788 124.2C685.333 124.464 684.966 124.838 684.688 125.322C684.424 125.806 684.292 126.393 684.292 127.082C684.292 127.757 684.424 128.343 684.688 128.842C684.966 129.326 685.333 129.7 685.788 129.964C686.242 130.228 686.756 130.36 687.328 130.36ZM710.83 120.988C711.768 120.988 712.597 121.179 713.316 121.56C714.049 121.927 714.621 122.499 715.032 123.276C715.457 124.039 715.67 125.021 715.67 126.224V133H712.238V126.752C712.238 125.799 712.04 125.095 711.644 124.64C711.248 124.185 710.69 123.958 709.972 123.958C709.473 123.958 709.026 124.075 708.63 124.31C708.234 124.53 707.926 124.867 707.706 125.322C707.486 125.777 707.376 126.356 707.376 127.06V133H703.944V126.752C703.944 125.799 703.746 125.095 703.35 124.64C702.968 124.185 702.418 123.958 701.7 123.958C701.201 123.958 700.754 124.075 700.358 124.31C699.962 124.53 699.654 124.867 699.434 125.322C699.214 125.777 699.104 126.356 699.104 127.06V133H695.672V121.164H698.95V124.398L698.334 123.452C698.744 122.645 699.324 122.037 700.072 121.626C700.834 121.201 701.7 120.988 702.668 120.988C703.753 120.988 704.699 121.267 705.506 121.824C706.327 122.367 706.87 123.203 707.134 124.332L705.924 124.002C706.32 123.078 706.95 122.345 707.816 121.802C708.696 121.259 709.7 120.988 710.83 120.988ZM724.266 133.176C722.916 133.176 721.728 132.912 720.702 132.384C719.69 131.856 718.905 131.137 718.348 130.228C717.79 129.304 717.512 128.255 717.512 127.082C717.512 125.894 717.783 124.845 718.326 123.936C718.883 123.012 719.638 122.293 720.592 121.78C721.545 121.252 722.623 120.988 723.826 120.988C724.984 120.988 726.026 121.237 726.95 121.736C727.888 122.22 728.629 122.924 729.172 123.848C729.714 124.757 729.986 125.85 729.986 127.126C729.986 127.258 729.978 127.412 729.964 127.588C729.949 127.749 729.934 127.903 729.92 128.05H720.306V126.048H728.116L726.796 126.642C726.796 126.026 726.671 125.491 726.422 125.036C726.172 124.581 725.828 124.229 725.388 123.98C724.948 123.716 724.434 123.584 723.848 123.584C723.261 123.584 722.74 123.716 722.286 123.98C721.846 124.229 721.501 124.589 721.252 125.058C721.002 125.513 720.878 126.055 720.878 126.686V127.214C720.878 127.859 721.017 128.431 721.296 128.93C721.589 129.414 721.992 129.788 722.506 130.052C723.034 130.301 723.65 130.426 724.354 130.426C724.984 130.426 725.534 130.331 726.004 130.14C726.488 129.949 726.928 129.663 727.324 129.282L729.15 131.262C728.607 131.878 727.925 132.355 727.104 132.692C726.282 133.015 725.336 133.176 724.266 133.176ZM739.025 120.988C739.963 120.988 740.799 121.179 741.533 121.56C742.281 121.927 742.867 122.499 743.293 123.276C743.718 124.039 743.931 125.021 743.931 126.224V133H740.499V126.752C740.499 125.799 740.286 125.095 739.861 124.64C739.45 124.185 738.863 123.958 738.101 123.958C737.558 123.958 737.067 124.075 736.627 124.31C736.201 124.53 735.864 124.875 735.615 125.344C735.38 125.813 735.263 126.415 735.263 127.148V133H731.831V121.164H735.109V124.442L734.493 123.452C734.918 122.66 735.527 122.051 736.319 121.626C737.111 121.201 738.013 120.988 739.025 120.988ZM751.77 133.176C750.655 133.176 749.65 132.927 748.756 132.428C747.861 131.915 747.15 131.203 746.622 130.294C746.108 129.385 745.852 128.314 745.852 127.082C745.852 125.835 746.108 124.757 746.622 123.848C747.15 122.939 747.861 122.235 748.756 121.736C749.65 121.237 750.655 120.988 751.77 120.988C752.767 120.988 753.64 121.208 754.388 121.648C755.136 122.088 755.715 122.755 756.126 123.65C756.536 124.545 756.742 125.689 756.742 127.082C756.742 128.461 756.544 129.605 756.148 130.514C755.752 131.409 755.18 132.076 754.432 132.516C753.698 132.956 752.811 133.176 751.77 133.176ZM752.364 130.36C752.921 130.36 753.427 130.228 753.882 129.964C754.336 129.7 754.696 129.326 754.96 128.842C755.238 128.343 755.378 127.757 755.378 127.082C755.378 126.393 755.238 125.806 754.96 125.322C754.696 124.838 754.336 124.464 753.882 124.2C753.427 123.936 752.921 123.804 752.364 123.804C751.792 123.804 751.278 123.936 750.824 124.2C750.369 124.464 750.002 124.838 749.724 125.322C749.46 125.806 749.328 126.393 749.328 127.082C749.328 127.757 749.46 128.343 749.724 128.842C750.002 129.326 750.369 129.7 750.824 129.964C751.278 130.228 751.792 130.36 752.364 130.36ZM755.466 133V130.58L755.532 127.06L755.312 123.562V116.676H758.744V133H755.466ZM768.74 133V130.69L768.52 130.184V126.048C768.52 125.315 768.293 124.743 767.838 124.332C767.398 123.921 766.716 123.716 765.792 123.716C765.161 123.716 764.538 123.819 763.922 124.024C763.321 124.215 762.807 124.479 762.382 124.816L761.15 122.418C761.795 121.963 762.573 121.611 763.482 121.362C764.391 121.113 765.315 120.988 766.254 120.988C768.058 120.988 769.459 121.413 770.456 122.264C771.453 123.115 771.952 124.442 771.952 126.246V133H768.74ZM765.132 133.176C764.208 133.176 763.416 133.022 762.756 132.714C762.096 132.391 761.59 131.959 761.238 131.416C760.886 130.873 760.71 130.265 760.71 129.59C760.71 128.886 760.879 128.27 761.216 127.742C761.568 127.214 762.118 126.803 762.866 126.51C763.614 126.202 764.589 126.048 765.792 126.048H768.938V128.05H766.166C765.359 128.05 764.802 128.182 764.494 128.446C764.201 128.71 764.054 129.04 764.054 129.436C764.054 129.876 764.223 130.228 764.56 130.492C764.912 130.741 765.389 130.866 765.99 130.866C766.562 130.866 767.075 130.734 767.53 130.47C767.985 130.191 768.315 129.788 768.52 129.26L769.048 130.844C768.799 131.607 768.344 132.186 767.684 132.582C767.024 132.978 766.173 133.176 765.132 133.176ZM779.458 133.176C778.065 133.176 776.979 132.824 776.202 132.12C775.425 131.401 775.036 130.338 775.036 128.93V118.546H778.468V128.886C778.468 129.385 778.6 129.773 778.864 130.052C779.128 130.316 779.487 130.448 779.942 130.448C780.485 130.448 780.947 130.301 781.328 130.008L782.252 132.428C781.9 132.677 781.475 132.868 780.976 133C780.492 133.117 779.986 133.176 779.458 133.176ZM773.21 124.068V121.428H781.416V124.068H773.21ZM783.739 133V121.164H787.171V133H783.739ZM785.455 119.514C784.824 119.514 784.311 119.331 783.915 118.964C783.519 118.597 783.321 118.143 783.321 117.6C783.321 117.057 783.519 116.603 783.915 116.236C784.311 115.869 784.824 115.686 785.455 115.686C786.085 115.686 786.599 115.862 786.995 116.214C787.391 116.551 787.589 116.991 787.589 117.534C787.589 118.106 787.391 118.583 786.995 118.964C786.613 119.331 786.1 119.514 785.455 119.514ZM795.548 133.176C794.287 133.176 793.165 132.912 792.182 132.384C791.214 131.856 790.444 131.137 789.872 130.228C789.315 129.304 789.036 128.255 789.036 127.082C789.036 125.894 789.315 124.845 789.872 123.936C790.444 123.012 791.214 122.293 792.182 121.78C793.165 121.252 794.287 120.988 795.548 120.988C796.795 120.988 797.909 121.252 798.892 121.78C799.875 122.293 800.645 123.005 801.202 123.914C801.759 124.823 802.038 125.879 802.038 127.082C802.038 128.255 801.759 129.304 801.202 130.228C800.645 131.137 799.875 131.856 798.892 132.384C797.909 132.912 796.795 133.176 795.548 133.176ZM795.548 130.36C796.12 130.36 796.633 130.228 797.088 129.964C797.543 129.7 797.902 129.326 798.166 128.842C798.43 128.343 798.562 127.757 798.562 127.082C798.562 126.393 798.43 125.806 798.166 125.322C797.902 124.838 797.543 124.464 797.088 124.2C796.633 123.936 796.12 123.804 795.548 123.804C794.976 123.804 794.463 123.936 794.008 124.2C793.553 124.464 793.187 124.838 792.908 125.322C792.644 125.806 792.512 126.393 792.512 127.082C792.512 127.757 792.644 128.343 792.908 128.842C793.187 129.326 793.553 129.7 794.008 129.964C794.463 130.228 794.976 130.36 795.548 130.36ZM811.086 120.988C812.025 120.988 812.861 121.179 813.594 121.56C814.342 121.927 814.929 122.499 815.354 123.276C815.779 124.039 815.992 125.021 815.992 126.224V133H812.56V126.752C812.56 125.799 812.347 125.095 811.922 124.64C811.511 124.185 810.925 123.958 810.162 123.958C809.619 123.958 809.128 124.075 808.688 124.31C808.263 124.53 807.925 124.875 807.676 125.344C807.441 125.813 807.324 126.415 807.324 127.148V133H803.892V121.164H807.17V124.442L806.554 123.452C806.979 122.66 807.588 122.051 808.38 121.626C809.172 121.201 810.074 120.988 811.086 120.988Z" fill="#393852"/>
<defs>
<filter id="filter0_d_1866_19961" x="350.616" y="654.335" width="420.739" height="174.768" filterUnits="userSpaceOnUse" color-interpolation-filters="sRGB">
<feFlood flood-opacity="0" result="BackgroundImageFix"/>
<feColorMatrix in="SourceAlpha" type="matrix" values="0 0 0 0 0 0 0 0 0 0 0 0 0 0 0 0 0 0 127 0" result="hardAlpha"/>
<feOffset dy="0.719212"/>
<feGaussianBlur stdDeviation="7.19212"/>
<feComposite in2="hardAlpha" operator="out"/>
<feColorMatrix type="matrix" values="0 0 0 0 0 0 0 0 0 0 0 0 0 0 0 0 0 0 0.25 0"/>
<feBlend mode="normal" in2="BackgroundImageFix" result="effect1_dropShadow_1866_19961"/>
<feBlend mode="normal" in="SourceGraphic" in2="effect1_dropShadow_1866_19961" result="shape"/>
</filter>
<filter id="filter1_d_1866_19961" x="470.616" y="61.335" width="420.739" height="174.768" filterUnits="userSpaceOnUse" color-interpolation-filters="sRGB">
<feFlood flood-opacity="0" result="BackgroundImageFix"/>
<feColorMatrix in="SourceAlpha" type="matrix" values="0 0 0 0 0 0 0 0 0 0 0 0 0 0 0 0 0 0 127 0" result="hardAlpha"/>
<feOffset dy="0.719212"/>
<feGaussianBlur stdDeviation="7.19212"/>
<feComposite in2="hardAlpha" operator="out"/>
<feColorMatrix type="matrix" values="0 0 0 0 0 0 0 0 0 0 0 0 0 0 0 0 0 0 0.25 0"/>
<feBlend mode="normal" in2="BackgroundImageFix" result="effect1_dropShadow_1866_19961"/>
<feBlend mode="normal" in="SourceGraphic" in2="effect1_dropShadow_1866_19961" result="shape"/>
</filter>
</defs>
</svg>
