<svg width="147" height="147" viewBox="0 0 147 147" fill="none" xmlns="http://www.w3.org/2000/svg">
<path d="M73.8097 146.135C33.4845 146.135 0.856445 113.459 0.856445 73.1818C0.856445 32.8566 33.5329 0.228516 73.8097 0.228516C114.135 0.228516 146.763 32.905 146.763 73.1818C146.811 113.507 114.135 146.135 73.8097 146.135Z" fill="#F7C0B5"/>
<mask id="mask0_1827_19462" style="mask-type:alpha" maskUnits="userSpaceOnUse" x="0" y="0" width="147" height="147">
<path d="M73.8097 146.136C33.4845 146.136 0.856445 113.46 0.856445 73.1828C0.856445 32.8576 33.5329 0.229492 73.8097 0.229492C114.135 0.229492 146.763 32.906 146.763 73.1828C146.811 113.508 114.135 146.136 73.8097 146.136Z" fill="#F7C0B5"/>
</mask>
<g mask="url(#mask0_1827_19462)">
<path d="M114.858 134.613C114.518 134.857 114.128 135.1 113.788 135.343C113.399 135.586 113.058 135.829 112.669 136.024C112.329 136.218 112.037 136.413 111.697 136.607C111.648 136.656 111.599 136.656 111.551 136.705C110.432 137.386 109.265 138.018 108.098 138.602C107.757 138.796 107.368 138.991 107.028 139.137C107.028 139.137 106.979 139.185 106.93 139.185C106.541 139.38 106.152 139.574 105.763 139.769C104.985 140.158 104.158 140.498 103.38 140.839C102.991 141.033 102.553 141.179 102.164 141.325C101.775 141.471 101.337 141.666 100.948 141.811C100.559 141.957 100.121 142.152 99.7323 142.298C99.7323 142.298 99.7323 142.298 99.6837 142.298C99.2946 142.444 98.8569 142.59 98.4678 142.736C97.5923 143.027 96.6683 143.319 95.7928 143.611C95.501 143.708 95.1606 143.806 94.8688 143.903C93.9447 144.195 93.0206 144.438 92.0965 144.632C91.7561 144.73 91.4156 144.778 91.0265 144.876C90.1511 145.07 89.227 145.265 88.3516 145.459C88.1571 145.508 88.0111 145.508 87.8166 145.556C87.5248 145.605 87.1843 145.654 86.8925 145.702C86.4548 145.751 86.0657 145.848 85.628 145.897C85.4335 145.945 85.2389 145.945 85.0444 145.994C84.8012 146.043 84.5094 146.091 84.2176 146.091C83.4394 146.189 82.6126 146.286 81.8344 146.383C81.5913 146.432 81.2994 146.432 81.0563 146.48H81.0076C80.6672 146.529 80.3267 146.529 79.9863 146.578C79.6458 146.626 79.3054 146.626 78.9649 146.626C78.7704 146.626 78.5272 146.675 78.3327 146.675C77.9436 146.675 77.6031 146.724 77.2627 146.724C76.7763 146.724 76.3386 146.772 75.8523 146.772C75.3659 146.772 74.9282 146.772 74.4418 146.772C74.1014 146.772 73.7609 146.772 73.4205 146.772C52.9449 146.48 34.4634 137.775 21.3318 123.962C21.3318 123.962 21.3318 123.914 21.2832 123.914C22.7909 120.947 28.384 115.597 34.2203 111.171C41.6129 105.578 52.0695 102.125 52.0695 102.125C52.0695 102.125 58.9271 101.006 84.3635 106.308C103.769 110.393 112.037 126.978 114.858 134.613Z" fill="#FEE4BF"/>
<path d="M89.761 119.779C88.7397 124.788 82.1252 127.755 70.9877 123.281C57.3211 117.736 52.0685 102.124 52.0685 102.124C51.339 90.9381 49.6367 81.3569 49.6367 81.3569C65.4433 79.9951 84.1193 98.4766 84.1193 98.4766L86.2593 107.62C86.4538 108.398 86.8429 109.079 87.4265 109.565C88.4479 111.316 90.4419 116.569 89.761 119.779Z" fill="#FEE4BF"/>
<path d="M87.4275 109.614C78.1381 109.128 71.2805 107.766 63.9365 94.5859C70.1619 100.082 77.5058 102.173 85.2389 103.146L86.2602 107.62C86.4548 108.447 86.8439 109.128 87.4275 109.614Z" fill="#EFBDA5"/>
<path d="M106.638 51.0083C107.514 55.0937 107.951 58.4009 105.568 69.2953C103.185 80.1897 107.757 91.084 96.2787 101.054C88.5456 107.766 75.025 109.031 64.2279 101.687C60.5802 99.2062 57.2244 95.753 54.5008 91.2299C52.3608 87.6795 49.8804 84.3237 47.1082 81.2596C43.266 77.077 38.6456 68.663 40.9315 53.7806C44.6278 29.5601 68.6051 26.7879 82.758 29.4628C96.911 32.1378 104.255 40.2113 106.638 51.0083Z" fill="#FEE4BF"/>
<path d="M60.0936 70.0241C60.0936 70.0241 58.5859 62.7287 51.4851 63.6042C45.3571 64.3823 43.2171 79.0703 57.1269 83.1557" fill="#FEE4BF"/>
<path d="M56.69 76.493C56.69 76.493 54.9392 75.3744 55.1337 73.429C55.4255 71.1431 55.1337 69.7327 54.0637 69.295C51.3888 68.1763 50.8538 71.289 50.951 71.6781" stroke="#423232" stroke-width="2.73113" stroke-miterlimit="10" stroke-linecap="round" stroke-linejoin="round"/>
<path d="M93.7982 81.2111C93.7982 81.2111 95.6463 81.3084 97.3972 79.217C98.3699 78.0498 99.1967 76.5907 98.6617 76.153C98.1267 75.6666 89.3237 77.0284 88.7401 78.1957C88.1564 79.3629 91.5609 81.2111 93.7982 81.2111Z" fill="#EFBDA5"/>
<path d="M95.2579 64.8691C95.2579 64.8691 95.3552 69.4895 98.322 74.6449C99.6351 76.9308 97.6411 80.6757 93.3125 81.308" stroke="#423232" stroke-width="2.73113" stroke-miterlimit="10" stroke-linecap="round" stroke-linejoin="round"/>
<path opacity="0.42" d="M68.8972 83.6909C71.6638 83.6909 73.9066 81.84 73.9066 79.5569C73.9066 77.2737 71.6638 75.4229 68.8972 75.4229C66.1305 75.4229 63.8877 77.2737 63.8877 79.5569C63.8877 81.84 66.1305 83.6909 68.8972 83.6909Z" fill="#F2A5B2"/>
<path opacity="0.42" d="M104.791 75.5205C104.645 78.2441 104.694 80.9191 104.499 83.594C102.359 83.1077 100.803 81.5027 100.803 79.6059C100.803 77.5632 102.505 75.9096 104.791 75.5205Z" fill="#F2A5B2"/>
<path d="M88.4597 105.282C88.4597 105.282 81.1643 107.422 71.0481 104.115C60.9319 100.807 51.0589 92.1016 51.0589 92.1016C51.0589 92.1016 47.849 92.1502 46.6331 94.582C45.4658 97.0138 45.5145 102.023 43.6663 103.385C43.2286 103.677 42.0127 104.017 40.2132 104.504C37.2951 105.33 32.9665 106.595 28.5893 109.075C25.3307 110.924 22.0235 113.404 19.2513 116.808C17.9868 118.365 16.8682 120.116 15.8954 122.11C8.21102 137.722 11.5182 159.608 11.5182 159.608H130.384C130.384 159.608 126.93 132.566 119.489 123.666C112.048 114.766 97.8463 107.568 93.6637 105.671V102.85C93.7123 102.85 91.1346 104.552 88.4597 105.282Z" fill="#48D89E"/>
<mask id="mask1_1827_19462" style="mask-type:alpha" maskUnits="userSpaceOnUse" x="10" y="92" width="121" height="68">
<path d="M88.4587 105.282C88.4587 105.282 81.1634 107.422 71.0472 104.115C60.931 100.807 51.058 92.1016 51.058 92.1016C51.058 92.1016 47.848 92.1502 46.6321 94.582C45.4649 97.0138 45.5135 102.023 43.6654 103.385C43.2276 103.677 42.0117 104.017 40.2122 104.504C37.2941 105.33 32.9655 106.595 28.5883 109.075C25.3298 110.924 22.0225 113.404 19.2503 116.808C17.9858 118.365 16.8672 120.116 15.8945 122.11C8.21005 137.722 11.5173 159.608 11.5173 159.608H130.383C130.383 159.608 126.929 132.566 119.488 123.666C112.047 114.766 97.8453 107.568 93.6627 105.671V102.85C93.7113 102.85 91.1336 104.552 88.4587 105.282Z" fill="#48D89E"/>
</mask>
<g mask="url(#mask1_1827_19462)">
<path d="M30.6798 123.861C33.527 123.861 35.8352 121.552 35.8352 118.705C35.8352 115.858 33.527 113.55 30.6798 113.55C27.8325 113.55 25.5244 115.858 25.5244 118.705C25.5244 121.552 27.8325 123.861 30.6798 123.861Z" fill="#FCED7E"/>
<path d="M60.0079 121.478C62.8551 121.478 65.1633 119.17 65.1633 116.322C65.1633 113.475 62.8551 111.167 60.0079 111.167C57.1607 111.167 54.8525 113.475 54.8525 116.322C54.8525 119.17 57.1607 121.478 60.0079 121.478Z" fill="#FCED7E"/>
<path d="M82.1847 110.534C85.0319 110.534 87.34 108.226 87.34 105.379C87.34 102.532 85.0319 100.224 82.1847 100.224C79.3374 100.224 77.0293 102.532 77.0293 105.379C77.0293 108.226 79.3374 110.534 82.1847 110.534Z" fill="#FCED7E"/>
<path d="M50.8634 146.719C53.7106 146.719 56.0187 144.411 56.0187 141.564C56.0187 138.716 53.7106 136.408 50.8634 136.408C48.0161 136.408 45.708 138.716 45.708 141.564C45.708 144.411 48.0161 146.719 50.8634 146.719Z" fill="#FCED7E"/>
<path d="M110.88 144.093C113.727 144.093 116.035 141.785 116.035 138.938C116.035 136.09 113.727 133.782 110.88 133.782C108.033 133.782 105.725 136.09 105.725 138.938C105.725 141.785 108.033 144.093 110.88 144.093Z" fill="#FCED7E"/>
<path d="M82.4767 139.91C85.3239 139.91 87.632 137.602 87.632 134.755C87.632 131.908 85.3239 129.6 82.4767 129.6C79.6294 129.6 77.3213 131.908 77.3213 134.755C77.3213 137.602 79.6294 139.91 82.4767 139.91Z" fill="#FCED7E"/>
<path d="M106.892 118.997C109.739 118.997 112.047 116.689 112.047 113.842C112.047 110.995 109.739 108.687 106.892 108.687C104.044 108.687 101.736 110.995 101.736 113.842C101.736 116.689 104.044 118.997 106.892 118.997Z" fill="#FCED7E"/>
</g>
<path d="M93.7125 105.671C93.7125 105.671 94.3447 110.048 93.2261 112.528C91.4266 116.614 78.9273 121.283 63.8016 115.835C51.7886 111.507 45.9037 105.525 45.7578 104.601" stroke="#329369" stroke-width="2.73113" stroke-miterlimit="10" stroke-linecap="round" stroke-linejoin="round"/>
<path d="M54.8522 97.0625C54.6091 97.3543 54.3659 97.7434 54.1713 98.2298C53.4904 99.8834 53.2959 103.336 53.2959 103.336" stroke="#329369" stroke-width="2.73113" stroke-miterlimit="10" stroke-linecap="round" stroke-linejoin="round"/>
<path d="M63.0712 102.072C62.8766 102.461 62.6821 102.899 62.5848 103.385C62.3416 104.65 62.0498 108.638 62.0498 108.638" stroke="#329369" stroke-width="2.73113" stroke-miterlimit="10" stroke-linecap="round" stroke-linejoin="round"/>
<path d="M71.3391 105.477C71.2419 105.866 71.1446 106.352 71.096 106.936C70.9987 107.617 71.0473 111.751 71.0473 111.751" stroke="#329369" stroke-width="2.73113" stroke-miterlimit="10" stroke-linecap="round" stroke-linejoin="round"/>
<path d="M80.1914 107.422C80.2887 108.54 80.3373 110.097 80.1914 111.994" stroke="#329369" stroke-width="2.73113" stroke-miterlimit="10" stroke-linecap="round" stroke-linejoin="round"/>
<path d="M87.6328 107.033C87.7787 107.957 87.9246 109.222 87.9733 110.827" stroke="#329369" stroke-width="2.73113" stroke-miterlimit="10" stroke-linecap="round" stroke-linejoin="round"/>
<path d="M49.5514 92.2959C48.3841 92.7336 46.8278 93.9009 46.2441 97.3054" stroke="#329369" stroke-width="2.73113" stroke-miterlimit="10" stroke-linecap="round" stroke-linejoin="round"/>
<path d="M99.4509 108.54C96.9705 107.178 94.9278 106.205 93.7119 105.67V102.85" stroke="#329369" stroke-width="2.73113" stroke-miterlimit="10" stroke-linecap="round" stroke-linejoin="round"/>
<path d="M84.5631 59.3268C85.6197 59.4727 86.4362 58.3541 86.0519 57.2841C85.8598 56.7005 85.5236 56.1655 84.9953 55.8251C83.3624 54.8037 77.2629 54.7064 74.045 57.0409C71.2114 59.1809 79.7603 58.6459 84.5631 59.3268Z" fill="#423232"/>
<path d="M97.8674 59.862C97.0029 59.862 96.4746 58.7434 96.9068 57.8193C97.147 57.333 97.4832 56.8953 97.9634 56.6521C99.4523 55.9226 103.439 56.3603 105.216 58.8407C106.801 61.0293 101.854 59.8134 97.8674 59.862Z" fill="#423232"/>
<path d="M82.8816 65.4548C79.8078 63.8985 74.957 65.0657 74.957 65.0657" stroke="#423232" stroke-width="2.73113" stroke-miterlimit="10" stroke-linecap="round" stroke-linejoin="round"/>
<path d="M101.853 66.4285C101.853 66.4285 100.604 65.0667 95.9932 66.1367" stroke="#423232" stroke-width="2.73113" stroke-miterlimit="10" stroke-linecap="round" stroke-linejoin="round"/>
<path d="M104.239 89.918C101.963 90.9194 100.871 88.9166 97.3202 90.6463C94.7711 91.8298 93.4055 92.1939 90.3102 90.3732C88.3074 89.0987 85.8494 90.9194 83.4824 87.46" stroke="#423232" stroke-width="2.73113" stroke-miterlimit="10" stroke-linecap="round" stroke-linejoin="round"/>
<path d="M118.976 105.18C116.253 99.1491 114.161 99.9759 116.058 94.5288C117.955 89.1302 115.523 85.288 110.514 80.1813C105.747 75.3177 105.261 70.0164 105.407 69.2383C104.969 71.281 104.775 73.3723 104.677 75.415C104.531 78.1386 104.58 80.8135 104.386 83.4885C103.996 89.4707 102.586 95.3556 96.1662 100.9C93.3453 103.332 89.7463 105.083 85.7582 105.909C84.6882 109.168 86.2932 111.503 89.7949 111.892C93.2967 112.281 94.7557 117.533 102.683 120.014C114.55 123.856 121.7 111.211 118.976 105.18Z" fill="#423232"/>
<path d="M96.7991 46.3308C97.8205 46.8658 98.6959 46.3795 99.2309 45.3095C104.873 44.4341 106.186 55.7175 106.38 56.3984C106.575 57.1279 106.672 59.1706 106.283 64.7637C106.04 67.8764 124.132 45.7959 107.596 36.4578C108.812 34.6583 107.937 25.7094 97.7719 23.5208C94.1242 22.7426 89.3579 26.1471 83.3757 24.8339C59.982 19.6299 35.7129 24.5908 37.6097 55.4743C38.0474 62.2347 38.4851 69.53 27.0071 74.3936C13.681 80.0353 14.3619 94.7719 23.7486 97.7873C27.6394 99.0518 14.7996 107.806 22.2895 115.588C26.1803 119.673 33.1352 111.405 40.1874 115.88C50.8386 122.64 56.1398 119.576 58.2312 116.901C62.5111 111.454 57.2098 100.511 57.2098 100.511C57.2098 100.511 59.3012 97.155 59.982 95.3555C63.2893 86.5038 55.4103 82.5157 55.4103 82.5157C43.2514 77.8467 45.44 64.2774 51.3736 63.4992C57.5989 62.721 59.5443 68.2655 59.8848 69.6273C59.8848 69.6273 65.3806 77.2144 75.9831 59.9002C86.4884 42.5859 92.2274 43.8504 96.7991 46.3308Z" fill="#423232"/>
<path d="M53.332 79.4092V87.6772" stroke="#FFDE55" stroke-width="2.73113" stroke-miterlimit="10" stroke-linecap="round" stroke-linejoin="round"/>
<path d="M59.8984 98.7659C58.5852 100.079 56.7857 100.906 54.743 100.906C50.8035 100.906 47.5449 97.6959 47.5449 93.7078C47.5449 89.7683 50.7549 86.5098 54.743 86.5098C56.737 86.5098 58.5852 87.3366 59.8984 88.6497C59.0229 88.1634 58.0502 87.8716 56.9802 87.8716C53.7703 87.8716 51.144 90.4979 51.144 93.7078C51.144 96.9178 53.7703 99.5441 56.9802 99.5441C58.0502 99.5927 59.0229 99.3009 59.8984 98.7659Z" fill="#FFDE55"/>
<path d="M53.3314 96.6257C54.9162 96.6257 56.2009 95.341 56.2009 93.7562C56.2009 92.1714 54.9162 90.8867 53.3314 90.8867C51.7466 90.8867 50.4619 92.1714 50.4619 93.7562C50.4619 95.341 51.7466 96.6257 53.3314 96.6257Z" fill="#FF6B57"/>
<path d="M108.826 88.7476C107.95 88.2612 106.978 87.9694 105.908 87.9694C105.129 87.9694 104.448 88.1153 103.768 88.4071C103.865 87.8235 104.011 87.2399 104.059 86.6562C105.956 86.7049 107.61 87.4831 108.826 88.7476Z" fill="#FFDE55"/>
<path d="M108.873 98.7654C107.56 100.079 105.76 100.905 103.717 100.905C101.675 100.905 99.778 100.03 98.4648 98.6195C99.243 97.744 99.9239 96.8686 100.556 95.9932C101.432 98.0845 103.523 99.4949 105.906 99.4949C106.976 99.5922 107.997 99.3004 108.873 98.7654Z" fill="#FFDE55"/>
<path d="M105.178 93.7568C105.178 95.3618 103.914 96.6263 102.309 96.6263C101.676 96.6263 101.093 96.4318 100.606 96.0427C101.725 94.3891 102.552 92.6868 103.087 91.0332C104.254 91.325 105.178 92.4436 105.178 93.7568Z" fill="#FF6B57"/>
</g>
</svg>
