<svg width="147" height="147" viewBox="0 0 147 147" fill="none" xmlns="http://www.w3.org/2000/svg">
<path d="M73.8429 146.135C33.5177 146.135 0.889648 113.459 0.889648 73.1818C0.889648 32.8566 33.5661 0.228516 73.8429 0.228516C114.168 0.228516 146.796 32.905 146.796 73.1818C146.845 113.507 114.168 146.135 73.8429 146.135Z" fill="#F7C0B5"/>
<mask id="mask0_1827_19415" style="mask-type:alpha" maskUnits="userSpaceOnUse" x="0" y="0" width="147" height="147">
<path d="M73.8429 146.136C33.5177 146.136 0.889648 113.46 0.889648 73.1828C0.889648 32.8576 33.5661 0.229492 73.8429 0.229492C114.168 0.229492 146.796 32.906 146.796 73.1828C146.845 113.508 114.168 146.136 73.8429 146.136Z" fill="#F7C0B5"/>
</mask>
<g mask="url(#mask0_1827_19415)">
<path d="M114.6 134.611C114.26 134.855 113.871 135.098 113.53 135.341C113.141 135.584 112.801 135.827 112.412 136.022C112.071 136.216 111.779 136.411 111.439 136.606C111.39 136.654 111.342 136.654 111.293 136.703C110.174 137.384 109.007 138.016 107.84 138.6C107.499 138.794 107.11 138.989 106.77 139.135C106.77 139.135 106.721 139.183 106.673 139.183C106.283 139.378 105.894 139.572 105.505 139.767C104.727 140.156 103.9 140.496 103.122 140.837C102.733 141.031 102.295 141.177 101.906 141.323C101.517 141.469 101.079 141.664 100.69 141.81C100.301 141.955 99.8636 142.15 99.4745 142.296C99.4745 142.296 99.4745 142.296 99.4258 142.296C99.0368 142.442 98.599 142.588 98.21 142.734C97.3345 143.025 96.4104 143.317 95.535 143.609C95.2432 143.706 94.9027 143.804 94.6109 143.901C93.6869 144.193 92.7628 144.436 91.8387 144.63C91.4983 144.728 91.1578 144.776 90.7687 144.874C89.8933 145.068 88.9692 145.263 88.0938 145.457C87.8992 145.506 87.7533 145.506 87.5588 145.554C87.267 145.603 86.9265 145.652 86.6347 145.7C86.197 145.749 85.8079 145.846 85.3702 145.895C85.1756 145.944 84.9811 145.944 84.7866 145.992C84.5434 146.041 84.2516 146.089 83.9597 146.089C83.1816 146.187 82.3548 146.284 81.5766 146.381C81.3334 146.43 81.0416 146.43 80.7984 146.479H80.7498C80.4094 146.527 80.0689 146.527 79.7285 146.576C79.388 146.624 79.0476 146.624 78.7071 146.624C78.5126 146.624 78.2694 146.673 78.0749 146.673C77.6858 146.673 77.3453 146.722 77.0049 146.722C76.5185 146.722 76.0808 146.77 75.5944 146.77C75.1081 146.77 74.6704 146.77 74.184 146.77C73.8436 146.77 73.5031 146.77 73.1627 146.77C52.6871 146.479 34.2056 137.773 21.074 123.96C21.074 123.96 21.074 123.912 21.0254 123.912C22.5331 120.945 28.1262 115.595 33.9624 111.169C41.355 105.576 51.8117 102.123 51.8117 102.123C51.8117 102.123 58.6693 101.004 84.1057 106.306C103.511 110.391 111.779 126.976 114.6 134.611Z" fill="#FEE4BF"/>
<path d="M89.5042 119.778C88.4828 124.787 81.8684 127.754 70.7309 123.28C57.0643 117.735 51.8117 102.123 51.8117 102.123C51.0821 90.9371 49.3799 81.3559 49.3799 81.3559C65.1864 79.9941 83.8625 98.4756 83.8625 98.4756L86.0024 107.619C86.197 108.397 86.5861 109.078 87.1697 109.564C88.191 111.315 90.1851 116.568 89.5042 119.778Z" fill="#FEE4BF"/>
<path d="M87.1697 109.613C77.8803 109.127 71.0227 107.765 63.6787 94.585C69.9041 100.081 77.248 102.172 84.9811 103.145L86.0024 107.619C86.197 108.446 86.586 109.127 87.1697 109.613Z" fill="#EFBD9C"/>
<path d="M106.38 51.0074C107.256 55.0927 107.693 58.4 105.31 69.2943C102.927 80.1887 107.499 91.083 96.0209 101.053C88.2878 107.765 74.7671 109.03 63.9701 101.686C60.3224 99.2052 56.9665 95.752 54.243 91.2289C52.103 87.6785 49.6226 84.3227 46.8504 81.2586C43.0082 77.076 38.3878 68.6621 40.6736 53.7796C44.3699 29.5591 68.3473 26.7869 82.5002 29.4618C96.6531 32.1368 103.997 40.2103 106.38 51.0074Z" fill="#FEE4BF"/>
<path d="M59.8368 70.0241C59.8368 70.0241 58.3291 62.7287 51.2283 63.6042C45.1002 64.3823 42.9603 79.0703 56.87 83.1557" fill="#FEE4BF"/>
<path d="M56.4322 76.492C56.4322 76.492 54.6813 75.3734 54.8759 73.428C55.1677 71.1421 54.8759 69.7317 53.8059 69.294C51.131 68.1754 50.596 71.288 50.6932 71.6771" stroke="#423232" stroke-width="1.89953" stroke-miterlimit="10" stroke-linecap="round" stroke-linejoin="round"/>
<path d="M93.5413 81.2101C93.5413 81.2101 95.3895 81.3074 97.1403 79.2161C98.1131 78.0488 98.9399 76.5897 98.4049 76.152C97.8699 75.6657 89.0669 77.0275 88.4832 78.1947C87.8996 79.362 91.3041 81.2101 93.5413 81.2101Z" fill="#EFBD9C"/>
<path d="M95.0001 64.8691C95.0001 64.8691 95.0974 69.4895 98.0641 74.6449C99.3773 76.9307 97.3832 80.6757 93.0547 81.3079" stroke="#423232" stroke-width="1.89953" stroke-miterlimit="10" stroke-linecap="round" stroke-linejoin="round"/>
<path d="M102.636 91.8612C102.636 91.9099 102.636 91.9099 102.636 91.8612C102.587 91.9099 102.587 91.9099 102.636 91.8612C101.42 95.0225 99.4259 98.0379 96.0215 101.005C88.2884 107.716 74.7677 108.981 63.9706 101.637C62.7548 100.81 61.5875 99.8861 60.4689 98.8647C59.6907 97.892 59.0098 96.8707 58.4262 95.8007C54.9244 89.2349 56.4321 83.1068 56.4321 83.1068C56.4321 83.1068 58.4262 83.1555 60.8093 87.8245C62.8034 91.7153 70.4878 91.5694 73.6491 84.2741C77.1509 76.152 85.9053 79.7023 87.8993 80.4805C89.8934 81.2587 93.006 81.2587 93.006 81.2587C100.885 81.1614 98.5019 86.4627 99.3287 89.3808C100.545 93.3689 102.636 91.8612 102.636 91.8612Z" fill="#423232"/>
<path d="M130.95 164.805H7.99902C7.99902 164.805 8.53401 142.141 16.1212 126.14C21.7142 114.273 36.1104 107.512 46.1293 104.059C48.3665 103.281 50.4092 102.697 52.0628 102.26C52.5978 103.719 57.9963 118.018 70.9334 123.27C82.0709 127.793 88.6854 124.778 89.7067 119.769C90.339 116.559 88.3449 111.306 87.3236 109.604C86.7399 109.117 86.3508 108.388 86.1563 107.658L85.7672 106.053C86.6427 105.859 87.4695 105.616 88.3449 105.372C88.7826 105.47 89.2203 105.567 89.6581 105.664C95.932 107.172 105.221 110.82 116.116 120.012C128.712 130.517 130.95 164.805 130.95 164.805Z" fill="#FFDE55"/>
<path d="M91.4571 132.997C89.7549 133.484 83.8214 127.307 82.6055 126.237C81.4869 127.502 73.6079 136.402 69.7171 135.818C65.4371 135.186 54.4941 127.842 48.9497 116.315C45.8857 109.993 45.7884 106.151 46.1288 104.059C46.2747 103.087 46.5666 102.454 46.7125 102.114C47.1988 100.995 50.7006 96.6666 51.576 96.7153V96.7639C52.0137 101.433 53.5214 105.956 56.0505 109.895C59.1632 114.71 64.0753 120.498 70.9329 123.27C82.0705 127.793 87.8581 123.319 88.8308 118.309C89.4631 115.099 88.3445 111.306 87.3231 109.604C86.7395 109.117 86.3504 108.388 86.1559 107.658L85.7668 106.053C86.6422 105.859 87.469 105.616 88.3445 105.372C88.5876 105.275 88.8795 105.226 89.1226 105.129C89.2685 105.324 89.4631 105.518 89.609 105.713C91.6517 108.047 93.7916 111.257 94.9589 116.704C96.953 125.41 93.3539 132.414 91.4571 132.997Z" fill="#423232"/>
<path d="M82.46 125.945C82.46 125.945 86.0104 127.988 85.9131 129.69C85.8158 131.392 86.8372 136.791 86.8372 136.791" stroke="#423232" stroke-width="1.89953" stroke-miterlimit="10" stroke-linecap="round" stroke-linejoin="round"/>
<path d="M82.4114 132.414C83.056 132.414 83.5786 131.891 83.5786 131.246C83.5786 130.602 83.056 130.079 82.4114 130.079C81.7667 130.079 81.2441 130.602 81.2441 131.246C81.2441 131.891 81.7667 132.414 82.4114 132.414Z" fill="#423232"/>
<path d="M82.8489 136.986C83.4935 136.986 84.0161 136.463 84.0161 135.819C84.0161 135.174 83.4935 134.651 82.8489 134.651C82.2042 134.651 81.6816 135.174 81.6816 135.819C81.6816 136.463 82.2042 136.986 82.8489 136.986Z" fill="#423232"/>
<path d="M32.0734 164.805L29.8848 146.761" stroke="#544D4D" stroke-width="1.89953" stroke-miterlimit="10" stroke-linecap="round" stroke-linejoin="round"/>
<path d="M116.991 140.633C116.991 140.633 115.532 144.183 115.969 147.734C116.407 151.284 117.672 156.488 115.872 164.805" stroke="#544D4D" stroke-width="1.89953" stroke-miterlimit="10" stroke-linecap="round" stroke-linejoin="round"/>
<path d="M79.4234 66.4772C79.4234 66.5258 79.4234 66.5745 79.4234 66.5745L79.3748 67.9363C79.3262 69.1035 78.3535 69.979 77.1862 69.9303C76.019 69.8817 75.1435 68.8603 75.2408 67.7417L75.2894 66.3799C75.2894 66.1367 75.3867 65.8449 75.484 65.6504L79.3748 65.8449C79.3748 66.0395 79.4234 66.234 79.4234 66.4772Z" fill="#423232"/>
<path d="M99.753 67.5473L99.7044 68.8118C99.6558 69.8818 98.7317 70.7086 97.6617 70.66C96.5917 70.6114 95.7649 69.6873 95.8136 68.6173L95.8622 67.3528C95.8622 67.1096 95.9108 66.8664 96.0081 66.6719L99.6558 66.8178C99.753 67.061 99.753 67.3041 99.753 67.5473Z" fill="#423232"/>
<path d="M84.2863 59.8141C85.3563 59.96 86.1831 58.8414 85.794 57.7714C85.5995 57.1878 85.2591 56.6528 84.7241 56.3124C83.0705 55.291 76.8937 55.1937 73.6352 57.5282C70.7657 59.6682 79.4228 59.1332 84.2863 59.8141Z" fill="#423232"/>
<path d="M97.7585 60.3493C96.883 60.3493 96.348 59.2307 96.7857 58.3066C97.0289 57.8203 97.3694 57.3826 97.8557 57.1394C99.3634 56.4099 103.4 56.8476 105.2 59.328C106.805 61.5166 101.795 60.3007 97.7585 60.3493Z" fill="#423232"/>
<path d="M82.5844 65.942L79.3259 65.7961L75.435 65.6502L74.5596 65.6016" stroke="#423232" stroke-width="1.89953" stroke-miterlimit="10" stroke-linecap="round" stroke-linejoin="round"/>
<path d="M101.796 66.9151L99.6559 66.8178L96.0082 66.6719H95.8623" stroke="#423232" stroke-width="1.89953" stroke-miterlimit="10" stroke-linecap="round" stroke-linejoin="round"/>
<path d="M94.492 87.7752C94.5553 88.7883 93.7955 90.5612 92.4025 91.8275C85.2476 87.4586 82.0184 89.7381 82.0184 89.7381C79.4857 85.8757 80.0556 80.6203 86.1974 84.6093C90.503 87.332 93.099 87.7752 94.492 87.7752Z" fill="#423232"/>
<path d="M92.4026 91.8274C90.883 93.1571 88.6036 93.9802 85.501 92.7138C84.0447 92.144 82.905 91.0043 82.0186 89.7379C82.0186 89.7379 85.2477 87.4585 92.4026 91.8274Z" fill="#FE9DAB"/>
<path d="M95.6944 87.5221C95.6944 87.5221 93.0351 88.9784 86.1968 84.6095C78.0288 79.3541 79.675 90.3714 85.4369 92.7141C91.4521 95.1835 94.5547 89.8015 94.4914 87.7753" stroke="#423232" stroke-width="1.89953" stroke-miterlimit="10" stroke-linecap="round" stroke-linejoin="round"/>
<path d="M82.0186 89.7379C82.0186 89.7379 85.2477 87.4585 92.4026 91.8274" stroke="#423232" stroke-width="1.89953" stroke-miterlimit="10" stroke-linecap="round" stroke-linejoin="round"/>
<path d="M116.023 45.1874C116.023 39.0593 111.889 33.9526 106.296 32.3476C106.588 31.1317 106.636 29.8672 106.345 28.5541C105.372 24.3228 101.578 21.356 97.2497 21.6478C95.5475 21.7451 93.9425 22.3773 92.6293 23.3501C90.5867 18.6324 85.869 15.3252 80.4218 15.3252C74.6342 15.3252 69.722 19.0215 67.8739 24.1769C65.8312 21.7451 62.7671 20.1887 59.3626 20.1887C53.4291 20.1887 48.5656 24.8578 48.2737 30.7427C47.3497 30.4508 46.3283 30.3049 45.307 30.3536C41.3675 30.5968 38.1576 33.8067 37.8657 37.7462C37.7685 39.0593 38.0117 40.3239 38.498 41.4911C32.9536 42.0747 28.625 46.7924 28.625 52.4827C28.625 56.7627 31.0568 60.5076 34.6558 62.3558C33.1967 63.8148 32.2727 65.8089 32.2727 67.9975C32.2727 72.0829 35.3853 75.4873 39.3735 75.9251C39.1303 76.7032 39.033 77.6273 39.3248 78.5514C39.7625 80.1564 41.0757 81.4209 42.6807 81.7613C43.6534 81.9559 44.5775 81.8586 45.4043 81.5182C45.842 82.1504 46.2797 82.6854 46.6688 83.1718C47.1551 83.7554 47.5442 84.2904 47.9333 84.8254C50.1705 88.0353 55.2773 86.6249 55.4718 82.734C55.4718 82.6854 55.4718 82.6854 55.4718 82.6368C43.3129 77.9678 45.5015 64.3984 51.4351 63.6203C57.6604 62.8421 59.6058 68.3866 59.9463 69.7484C66.6093 65.4684 57.1254 50.051 66.9012 45.4792C75.6069 41.4425 84.7504 47.5706 95.9366 49.0783C100.071 49.6619 103.961 45.5765 105.712 47.8624C106.053 48.8837 106.345 49.9051 106.588 50.975C107.366 54.4282 107.755 57.3463 106.442 64.7389C109.652 62.988 111.208 60.3617 111.5 57.784C111.597 56.9086 111.597 55.9845 111.549 55.1091C114.272 52.7259 116.023 49.1755 116.023 45.1874Z" fill="#423232"/>
</g>
</svg>
