<svg width="147" height="147" viewBox="0 0 147 147" fill="none" xmlns="http://www.w3.org/2000/svg">
<path d="M73.9288 146.135C114.254 146.135 146.882 113.458 146.882 73.1816C146.882 32.8565 114.205 0.228516 73.9288 0.228516C33.6037 0.228516 0.975661 32.9049 0.975661 73.1816C0.927251 113.507 33.6037 146.135 73.9288 146.135Z" fill="#B5E2DC"/>
<mask id="mask0_1827_19440" style="mask-type:alpha" maskUnits="userSpaceOnUse" x="0" y="0" width="147" height="147">
<path d="M73.9287 146.136C114.254 146.136 146.882 113.459 146.882 73.1826C146.882 32.8575 114.205 0.229492 73.9287 0.229492C33.6036 0.229492 0.975643 32.9059 0.975643 73.1826C0.927233 113.508 33.6036 146.136 73.9287 146.136Z" fill="#F7C0B5"/>
</mask>
<g mask="url(#mask0_1827_19440)">
<path d="M33.0749 134.611C33.4154 134.855 33.8045 135.098 34.1449 135.341C34.534 135.584 34.8745 135.827 35.2635 136.022C35.604 136.216 35.8958 136.411 36.2362 136.605C36.2849 136.654 36.3335 136.654 36.3821 136.703C37.5008 137.384 38.668 138.016 39.8353 138.599C40.1757 138.794 40.5648 138.989 40.9052 139.134C40.9052 139.134 40.9539 139.183 41.0025 139.183C41.3916 139.378 41.7807 139.572 42.1698 139.767C42.9479 140.156 43.7747 140.496 44.5529 140.837C44.942 141.031 45.3797 141.177 45.7688 141.323C46.1579 141.469 46.5956 141.663 46.9847 141.809C47.3737 141.955 47.8115 142.15 48.2005 142.296C48.2005 142.296 48.2005 142.296 48.2492 142.296C48.6383 142.442 49.076 142.588 49.4651 142.733C50.3405 143.025 51.2646 143.317 52.14 143.609C52.4318 143.706 52.7723 143.803 53.0641 143.901C53.9882 144.193 54.9122 144.436 55.8363 144.63C56.1767 144.728 56.5172 144.776 56.9063 144.873C57.7817 145.068 58.7058 145.263 59.5812 145.457C59.7758 145.506 59.9217 145.506 60.1162 145.554C60.408 145.603 60.7485 145.652 61.0403 145.7C61.478 145.749 61.8671 145.846 62.3048 145.895C62.4993 145.943 62.6939 145.943 62.8884 145.992C63.1316 146.041 63.4234 146.089 63.7152 146.089C64.4934 146.187 65.3202 146.284 66.0984 146.381C66.3415 146.43 66.6334 146.43 66.8765 146.478H66.9252C67.2656 146.527 67.6061 146.527 67.9465 146.576C68.287 146.624 68.6274 146.624 68.9679 146.624C69.1624 146.624 69.4056 146.673 69.6001 146.673C69.9892 146.673 70.3296 146.722 70.6701 146.722C71.1564 146.722 71.5942 146.77 72.0805 146.77C72.5669 146.77 73.0046 146.77 73.4909 146.77C73.8314 146.77 74.1718 146.77 74.5123 146.77C94.9878 146.478 113.469 137.773 126.601 123.96C126.601 123.96 126.601 123.912 126.649 123.912C125.142 120.945 119.549 115.595 113.712 111.169C106.32 105.576 95.8632 102.123 95.8632 102.123C95.8632 102.123 89.0056 101.004 63.5693 106.306C44.1638 110.391 35.8958 126.976 33.0749 134.611Z" fill="#F7D3B5"/>
<path d="M58.1707 119.778C59.1921 124.787 65.8065 127.754 76.944 123.28C90.6105 117.735 95.8632 102.123 95.8632 102.123C96.5927 90.9371 98.2949 81.3559 98.2949 81.3559C82.4884 79.9941 63.8124 98.4756 63.8124 98.4756L61.6725 107.619C61.4779 108.397 61.0889 109.078 60.5052 109.564C59.4839 111.315 57.4898 116.568 58.1707 119.778Z" fill="#F7D3B5"/>
<path d="M60.5052 109.613C69.7946 109.127 76.6522 107.765 83.9961 94.585C77.7708 100.081 70.4268 102.172 62.6938 103.145L61.6724 107.619C61.4779 108.446 61.0888 109.127 60.5052 109.613Z" fill="#EFBDA5"/>
<path d="M41.2938 51.0073C40.4183 55.0927 39.9806 58.3999 42.3638 69.2942C44.7469 80.1885 40.1752 91.0829 51.6531 101.053C59.3861 107.765 72.9068 109.029 83.7038 101.685C87.3515 99.205 90.7073 95.7519 93.4309 91.2288C95.5709 87.6784 98.0513 84.3225 100.823 81.2585C104.666 77.0759 109.286 68.6619 107 53.7795C103.304 29.5591 79.3266 26.7869 65.1738 29.4618C51.0209 32.1368 43.6769 40.2102 41.2938 51.0073Z" fill="#F7D3B5"/>
<path d="M87.838 70.024C87.838 70.024 89.3457 62.7287 96.4465 63.6042C102.575 64.3823 104.715 79.0702 90.8048 83.1556" fill="#F7D3B5"/>
<path d="M91.2436 76.492C91.2436 76.492 92.9944 75.3734 92.7999 73.428C92.5081 71.1421 92.7999 69.7317 93.8699 69.294C96.5448 68.1754 97.0798 71.288 96.9825 71.6771" stroke="#423232" stroke-width="1.51278" stroke-miterlimit="10" stroke-linecap="round" stroke-linejoin="round"/>
<path d="M54.1345 81.2101C54.1345 81.2101 52.2863 81.3074 50.5355 79.2161C49.5627 78.0488 48.7359 76.5897 49.2709 76.152C49.8059 75.6657 58.6089 77.0275 59.1926 78.1947C59.7762 79.362 56.3717 81.2101 54.1345 81.2101Z" fill="#EFBDA5"/>
<path d="M52.6757 64.8682C52.6757 64.8682 52.5784 69.4885 49.6117 74.6439C48.2985 76.9297 50.2925 80.6747 54.6211 81.3069" stroke="#423232" stroke-width="1.51278" stroke-miterlimit="10" stroke-linecap="round" stroke-linejoin="round"/>
<path opacity="0.42" d="M79.0355 83.6909C76.2688 83.6909 74.026 81.84 74.026 79.5569C74.026 77.2737 76.2688 75.4229 79.0355 75.4229C81.8021 75.4229 84.0449 77.2737 84.0449 79.5569C84.0449 81.84 81.8021 83.6909 79.0355 83.6909Z" fill="#ED938A"/>
<path opacity="0.42" d="M43.1428 75.5195C43.2887 78.2431 43.24 80.9181 43.4346 83.593C45.5745 83.1067 47.1309 81.5017 47.1309 79.6049C47.1309 77.5622 45.4286 75.9086 43.1428 75.5195Z" fill="#ED938A"/>
<path d="M28.1621 125.552C35.0683 116.652 45.7681 112.956 51.653 110.767C52.1393 108.335 53.0634 105.66 54.5225 103.083C56.7597 104.445 59.3374 105.466 62.0123 106.001L61.6232 107.606C61.4287 108.384 60.456 111.983 61.9637 116.603C63.2282 120.494 68.3349 122.245 76.992 118.306C93.8685 110.67 95.8139 102.061 95.8139 102.061C96.1057 97.3924 96.5921 93.0152 97.0298 89.4648C102.282 90.6321 108.362 93.0152 111.669 98.0247C115.754 104.153 117.262 110.378 116.873 115.339C123.974 119.862 134.965 126.72 138.564 138.976C143.233 154.928 142.455 164.704 142.455 164.704H16.7814C16.9273 164.752 18.7755 137.663 28.1621 125.552Z" fill="#6060D8"/>
<path d="M103.304 109.6C103.304 109.6 100.337 121.126 87.3513 129.102" stroke="#423232" stroke-width="1.51278" stroke-miterlimit="10" stroke-linecap="round" stroke-linejoin="round"/>
<path d="M51.7017 110.767C51.7017 110.767 48.2486 125.698 55.7871 132.555" stroke="#423232" stroke-width="1.51278" stroke-miterlimit="10" stroke-linecap="round" stroke-linejoin="round"/>
<path d="M75.1439 130.27C75.1439 130.27 77.6729 137.662 76.992 142.769" stroke="#423232" stroke-width="1.51278" stroke-miterlimit="10" stroke-linecap="round" stroke-linejoin="round"/>
<path d="M59.6299 129.832C59.6299 129.832 57.7331 133.966 56.3713 140.532" stroke="#423232" stroke-width="1.51278" stroke-miterlimit="10" stroke-linecap="round" stroke-linejoin="round"/>
<path d="M116.971 115.388C116.971 115.388 112.983 131.632 89.2485 136.398" stroke="#423232" stroke-width="1.51278" stroke-miterlimit="10" stroke-linecap="round" stroke-linejoin="round"/>
<path d="M76.5543 143.888L78.6943 143.694C79.4724 143.596 80.0561 142.867 79.9102 142.089L79.1806 138.441C78.9861 137.42 78.0134 136.69 76.992 136.836C75.9707 136.933 75.1439 137.809 75.1439 138.879L75.0953 142.624C75.0953 143.353 75.7762 143.985 76.5543 143.888Z" fill="white"/>
<path d="M54.2308 141.651L56.2735 142.38C57.0517 142.672 57.8785 142.186 58.0244 141.407L58.8998 137.808C59.143 136.787 58.608 135.766 57.5867 135.377C56.614 135.036 55.4954 135.474 55.0577 136.398L53.4527 139.754C53.1122 140.483 53.4527 141.359 54.2308 141.651Z" fill="white"/>
<path d="M32.7832 140.532C32.7832 140.532 30.0596 155.804 31.1296 164.753" stroke="#544D4D" stroke-width="1.51278" stroke-miterlimit="10" stroke-linecap="round" stroke-linejoin="round"/>
<path d="M70.1185 69.7522C71.2857 69.7036 72.1612 68.7309 72.0639 67.5636L72.0153 66.2018C71.9666 65.0346 70.9939 64.1591 69.8267 64.2564C68.6594 64.305 67.784 65.2777 67.8813 66.445L67.9299 67.8068C67.9785 68.9254 68.9512 69.8008 70.1185 69.7522Z" fill="#423232"/>
<path d="M49.643 70.4816C50.713 70.433 51.5398 69.5089 51.4911 68.4389L51.4425 67.1744C51.3939 66.1044 50.4698 65.2776 49.3998 65.3263C48.3298 65.3749 47.503 66.299 47.5517 67.3689L47.6003 68.6335C47.6489 69.7034 48.573 70.5302 49.643 70.4816Z" fill="#423232"/>
<path d="M65.401 66.9312C65.401 66.9312 66.6655 65.1317 68.8541 64.7913C70.6536 64.4995 72.6476 65.3749 72.9395 66.3962" stroke="#423232" stroke-width="1.51278" stroke-miterlimit="10" stroke-linecap="round" stroke-linejoin="round"/>
<path d="M51.0527 67.3698C51.0527 67.3698 51.0527 65.8135 48.8155 65.8135C46.9674 65.8135 46.1892 67.5157 46.1892 67.5157" stroke="#423232" stroke-width="1.51278" stroke-miterlimit="10" stroke-linecap="round" stroke-linejoin="round"/>
<path d="M63.4066 59.1013C62.3853 59.4417 61.3639 58.5176 61.5585 57.399C61.6557 56.8154 61.8989 56.2318 62.3853 55.7941C63.8443 54.4809 69.8751 53.3137 73.5228 55.0159C76.7327 56.5722 68.0756 57.5449 63.4066 59.1013Z" fill="#423232"/>
<path d="M48.8651 59.8795C49.6919 60.1713 50.5674 59.2959 50.4215 58.2745C50.3728 57.7396 50.1783 57.2046 49.7892 56.8155C48.6219 55.6482 44.6338 54.7242 42.1048 56.5237C39.9162 58.0314 45.0716 58.4691 48.8651 59.8795Z" fill="#423232"/>
<path d="M56.6276 86.9704C56.5771 87.7772 57.1822 89.1892 58.2916 90.1977C63.9897 86.7183 66.5615 88.5336 66.5615 88.5336C68.5785 85.4576 68.1247 81.2723 63.2333 84.4491C59.8044 86.6174 57.7369 86.9704 56.6276 86.9704Z" fill="#423232"/>
<path d="M58.2917 90.197C59.5019 91.2559 61.3172 91.9115 63.7881 90.9029C64.9479 90.4491 65.8556 89.5414 66.5615 88.5329C66.5615 88.5329 63.9898 86.7176 58.2917 90.197Z" fill="#FE9DAB"/>
<path d="M55.6704 86.7681C55.6704 86.7681 57.7883 87.9279 63.2343 84.4485C69.7392 80.2632 68.4282 89.0373 63.8394 90.903C59.0489 92.8697 56.5781 88.5835 56.6285 86.9698" stroke="#423232" stroke-width="1.51278" stroke-miterlimit="10" stroke-linecap="round" stroke-linejoin="round"/>
<path d="M66.5615 88.5329C66.5615 88.5329 63.9898 86.7176 58.2917 90.197" stroke="#423232" stroke-width="1.51278" stroke-miterlimit="10" stroke-linecap="round" stroke-linejoin="round"/>
<path d="M37.5417 39.268C40.9948 51.7673 51.0137 49.6759 60.4003 46.2715C72.8996 41.6997 83.8912 45.396 83.9399 56.6794C84.0371 73.2155 88.1712 68.206 88.6089 67.5738C89.6789 65.5311 91.9647 63.002 96.2933 63.537C101.984 64.2666 104.221 76.8145 93.6183 81.9698C91.7702 91.3565 96.8283 90.481 96.8283 90.481C98.5305 83.5748 112.829 68.8869 112.878 59.2085C112.878 46.1742 106.312 42.4779 106.312 42.4779C106.118 33.3831 96.6337 23.3642 80.6813 23.7047C64.7289 23.9965 54.9532 23.5587 51.8405 19.8138C48.7279 15.9716 34.0886 26.7687 37.5417 39.268Z" fill="#423232"/>
<path d="M37.1528 54.2968C37.6392 57.4581 39.001 59.8899 40.8977 61.6894C40.1682 56.3881 40.5573 53.8591 41.1895 50.8923C42.5513 44.8129 45.4695 39.5603 50.333 35.6694C47.9012 35.4749 45.4208 36.0099 43.1836 37.4203C43.1836 37.3717 35.1588 40.6302 37.1528 54.2968Z" fill="#423232"/>
<path d="M93.3277 71.6256C93.3277 71.6256 97.2186 71.042 96.9268 76.4891C96.7808 79.2614 96.7808 80.769 96.8295 81.5472C96.8781 82.0822 96.5377 82.5686 96.0513 82.7631C95.4677 83.0063 94.8354 82.7631 94.5436 82.1795C94.1059 81.4013 93.6195 80.3313 93.6195 79.4559C93.6195 77.9968 92.0632 76.6837 92.0632 76.6837C92.0632 76.6837 93.4736 75.4678 93.3277 71.6256Z" fill="white"/>
<path d="M81.5574 165.394C81.9465 164.957 97.218 138.839 94.9322 129.015C93.3758 122.255 95.4185 114.473 97.218 107.615C97.9476 104.795 98.6285 102.168 99.0175 99.8338C99.6984 95.7971 99.2121 91.9549 97.5585 88.4045C95.759 84.4164 96.0508 80.9633 96.0508 80.9147L95.0781 80.8174C95.0781 80.9633 94.7863 84.6109 96.683 88.7936C98.2394 92.1494 98.6771 95.8457 98.0448 99.6879C97.6557 101.974 96.9748 104.6 96.2453 107.421C94.3972 114.376 92.3545 122.303 93.9595 129.307C96.0994 138.645 80.8765 164.762 80.7793 164.859L81.5574 165.394Z" fill="white"/>
<path d="M96.7805 79.3104C96.7319 80.3803 96.7805 81.1099 96.7805 81.5476C96.8292 82.0826 96.4887 82.5689 96.0024 82.7635C95.4187 83.0066 94.7865 82.7635 94.4947 82.1798C94.057 81.4017 93.5706 80.3317 93.5706 79.4563C93.5706 79.4076 93.5706 79.3104 93.5706 79.2617C94.5919 79.6508 95.7592 79.9426 96.7805 79.3104Z" fill="#E5E5E5"/>
<path d="M51.0142 111.653C51.3546 113.89 51.4033 117.44 51.5006 121.574C51.6465 129.55 56.3641 160.628 58.65 165.541L59.5254 165.151C57.3368 160.385 52.6192 129.453 52.4733 121.574C52.376 117.44 52.3274 113.841 51.9869 111.507C51.2574 106.594 51.7924 102.898 52.0842 101.342C51.9383 101.196 51.7924 101.099 51.6465 100.953C51.5006 100.855 51.4033 100.71 51.2574 100.612C50.9656 101.877 50.1388 105.914 51.0142 111.653Z" fill="white"/>
</g>
</svg>
